<?xml version="1.0" encoding="UTF-8" standalone="no"?>
<!-- Created with Inkscape (http://www.inkscape.org/) -->

<svg
   xmlns:dc="http://purl.org/dc/elements/1.1/"
   xmlns:cc="http://creativecommons.org/ns#"
   xmlns:rdf="http://www.w3.org/1999/02/22-rdf-syntax-ns#"
   xmlns:svg="http://www.w3.org/2000/svg"
   xmlns="http://www.w3.org/2000/svg"
   xmlns:sodipodi="http://sodipodi.sourceforge.net/DTD/sodipodi-0.dtd"
   xmlns:inkscape="http://www.inkscape.org/namespaces/inkscape"
   id="svg2"
   version="1.1"
   inkscape:version="0.48.4 r9939"
   width="455"
   height="366.25"
   xml:space="preserve"
   sodipodi:docname="human_walk-crop_bw.eps"><sodipodi:namedview
     pagecolor="#ffffff"
     bordercolor="#666666"
     borderopacity="1"
     objecttolerance="10"
     gridtolerance="10"
     guidetolerance="10"
     inkscape:pageopacity="0"
     inkscape:pageshadow="2"
     inkscape:window-width="1280"
     inkscape:window-height="1002"
     id="namedview4"
     showgrid="false"
     inkscape:zoom="1.8225496"
     inkscape:cx="299.76283"
     inkscape:cy="223.56359"
     inkscape:window-x="-8"
     inkscape:window-y="-7"
     inkscape:window-maximized="1"
     inkscape:current-layer="g10" /><metadata
     id="metadata8"><rdf:RDF><cc:Work
         rdf:about=""><dc:format>image/svg+xml</dc:format><dc:type
           rdf:resource="http://purl.org/dc/dcmitype/StillImage" /><dc:title></dc:title></cc:Work></rdf:RDF></metadata><defs
     id="defs6" /><g
     transform="matrix(1.25,0,0,-1.25,0,366.25)"
     inkscape:label="ink_ext_XXXXXX"
     inkscape:groupmode="layer"
     id="g10"><path
       d="m 0,0 397,0 0,312.5 -397,0 L 0,0 z"
       style="fill:#ffffff;fill-opacity:1;fill-rule:nonzero;stroke:none"
       id="path14"
       inkscape:connector-curvature="0" /><path
       d="m 0,0 371.98011,0 0,298.89269 L 0,298.89269 0,0 z"
       style="fill:#ffffff;fill-opacity:1;fill-rule:nonzero;stroke:none"
       id="path16"
       inkscape:connector-curvature="0" /><path
       d="m 31.75,32 325.5,0 0,257.25 -325.5,0 0,-257.25 z"
       style="fill:#ffffff;fill-opacity:1;fill-rule:nonzero;stroke:none"
       id="path18"
       inkscape:connector-curvature="0" /><g
       id="g20"><text
   transform="matrix(1,0,0,-1,148.75,3.75)"
   id="text22"><tspan
     style="font-size:11.25px;font-variant:normal;font-weight:normal;writing-mode:lr-tb;fill:#414141;fill-opacity:1;fill-rule:nonzero;stroke:none;font-family:ArialMT;-inkscape-font-specification:ArialMT"
     x="0 7.5037498 13.757029 23.128279 29.381557 31.876995 38.130287 41.259666 49.380116 55.633381 65.004631 71.257896 77.511192"
     y="0"
     sodipodi:role="line"
     id="tspan24">Sample Number</tspan></text>

</g><path
       d="m 31.75,32 325.5,0"
       style="fill:none;stroke:#414141;stroke-width:0.75;stroke-linecap:square;stroke-linejoin:miter;stroke-miterlimit:10;stroke-opacity:1;stroke-dasharray:none"
       id="path26"
       inkscape:connector-curvature="0" /><path
       d="m 31.75,32 0,3.2551"
       style="fill:none;stroke:#414141;stroke-width:0.75;stroke-linecap:square;stroke-linejoin:miter;stroke-miterlimit:10;stroke-opacity:1;stroke-dasharray:none"
       id="path28"
       inkscape:connector-curvature="0" /><path
       d="m 86,32 0,3.2551"
       style="fill:none;stroke:#414141;stroke-width:0.75;stroke-linecap:square;stroke-linejoin:miter;stroke-miterlimit:10;stroke-opacity:1;stroke-dasharray:none"
       id="path30"
       inkscape:connector-curvature="0" /><path
       d="m 140.25,32 0,3.2551"
       style="fill:none;stroke:#414141;stroke-width:0.75;stroke-linecap:square;stroke-linejoin:miter;stroke-miterlimit:10;stroke-opacity:1;stroke-dasharray:none"
       id="path32"
       inkscape:connector-curvature="0" /><path
       d="m 194.5,32 0,3.2551"
       style="fill:none;stroke:#414141;stroke-width:0.75;stroke-linecap:square;stroke-linejoin:miter;stroke-miterlimit:10;stroke-opacity:1;stroke-dasharray:none"
       id="path34"
       inkscape:connector-curvature="0" /><path
       d="m 248.75,32 0,3.2551"
       style="fill:none;stroke:#414141;stroke-width:0.75;stroke-linecap:square;stroke-linejoin:miter;stroke-miterlimit:10;stroke-opacity:1;stroke-dasharray:none"
       id="path36"
       inkscape:connector-curvature="0" /><path
       d="m 303,32 0,3.2551"
       style="fill:none;stroke:#414141;stroke-width:0.75;stroke-linecap:square;stroke-linejoin:miter;stroke-miterlimit:10;stroke-opacity:1;stroke-dasharray:none"
       id="path38"
       inkscape:connector-curvature="0" /><path
       d="m 357.25,32 0,3.2551"
       style="fill:none;stroke:#414141;stroke-width:0.75;stroke-linecap:square;stroke-linejoin:miter;stroke-miterlimit:10;stroke-opacity:1;stroke-dasharray:none"
       id="path40"
       inkscape:connector-curvature="0" /><g
       id="g42"><text
   transform="matrix(1,0,0,-1,28.375,18.25)"
   id="text44"><tspan
     style="font-size:9.75px;font-variant:normal;font-weight:normal;writing-mode:lr-tb;fill:#414141;fill-opacity:1;fill-rule:nonzero;stroke:none;font-family:ArialMT;-inkscape-font-specification:ArialMT"
     x="0 48.248558 53.668076 59.087585 102.49409 107.9136 113.33313 156.73964 162.15915 167.57867 210.98518 216.40469 221.82422 265.23071 270.65024 276.06973 319.47626 324.89578 330.31528"
     y="0"
     sodipodi:role="line"
     id="tspan46">0100200300400500600</tspan></text>

<text
   transform="matrix(-4e-8,1,1,4e-8,9,146)"
   id="text48"><tspan
     style="font-size:11.25px;font-variant:normal;font-weight:normal;writing-mode:lr-tb;fill:#414141;fill-opacity:1;fill-rule:nonzero;stroke:none;font-family:ArialMT;-inkscape-font-specification:ArialMT"
     x="0 8.1204367 14.373728 16.869165 19.998545"
     y="0"
     sodipodi:role="line"
     id="tspan50">Units</tspan></text>

</g><path
       d="m 31.75,32 0,257.25"
       style="fill:none;stroke:#414141;stroke-width:0.75;stroke-linecap:square;stroke-linejoin:miter;stroke-miterlimit:10;stroke-opacity:1;stroke-dasharray:none"
       id="path52"
       inkscape:connector-curvature="0" /><path
       d="m 31.75,32 3.2551,0"
       style="fill:none;stroke:#414141;stroke-width:0.75;stroke-linecap:square;stroke-linejoin:miter;stroke-miterlimit:10;stroke-opacity:1;stroke-dasharray:none"
       id="path54"
       inkscape:connector-curvature="0" /><path
       d="m 31.75,96.3121 3.2551,0"
       style="fill:none;stroke:#414141;stroke-width:0.75;stroke-linecap:square;stroke-linejoin:miter;stroke-miterlimit:10;stroke-opacity:1;stroke-dasharray:none"
       id="path56"
       inkscape:connector-curvature="0" /><path
       d="m 31.75,160.625 3.2551,0"
       style="fill:none;stroke:#414141;stroke-width:0.75;stroke-linecap:square;stroke-linejoin:miter;stroke-miterlimit:10;stroke-opacity:1;stroke-dasharray:none"
       id="path58"
       inkscape:connector-curvature="0" /><path
       d="m 31.75,224.938 3.2551,0"
       style="fill:none;stroke:#414141;stroke-width:0.75;stroke-linecap:square;stroke-linejoin:miter;stroke-miterlimit:10;stroke-opacity:1;stroke-dasharray:none"
       id="path60"
       inkscape:connector-curvature="0" /><path
       d="m 31.75,289.25 3.2551,0"
       style="fill:none;stroke:#414141;stroke-width:0.75;stroke-linecap:square;stroke-linejoin:miter;stroke-miterlimit:10;stroke-opacity:1;stroke-dasharray:none"
       id="path62"
       inkscape:connector-curvature="0" /><g
       id="g64"><text
   transform="matrix(1,0,0,-1,18,28.625)"
   id="text66"><tspan
     style="font-size:9.75px;font-variant:normal;font-weight:normal;writing-mode:lr-tb;fill:#414141;fill-opacity:1;fill-rule:nonzero;stroke:none;font-family:ArialMT;-inkscape-font-specification:ArialMT"
     x="0 3.2467501"
     y="0"
     sodipodi:role="line"
     id="tspan68">-5</tspan><tspan
     style="font-size:9.75px;font-variant:normal;font-weight:normal;writing-mode:lr-tb;fill:#414141;fill-opacity:1;fill-rule:nonzero;stroke:none;font-family:ArialMT;-inkscape-font-specification:ArialMT"
     x="3"
     y="-64.312103"
     id="tspan70">0</tspan><tspan
     style="font-size:9.75px;font-variant:normal;font-weight:normal;writing-mode:lr-tb;fill:#414141;fill-opacity:1;fill-rule:nonzero;stroke:none;font-family:ArialMT;-inkscape-font-specification:ArialMT"
     x="3"
     y="-128.625"
     id="tspan72">5</tspan><tspan
     style="font-size:9.75px;font-variant:normal;font-weight:normal;writing-mode:lr-tb;fill:#414141;fill-opacity:1;fill-rule:nonzero;stroke:none;font-family:ArialMT;-inkscape-font-specification:ArialMT"
     x="-3 2.4195154"
     y="-192.9375"
     sodipodi:role="line"
     id="tspan74">10</tspan><tspan
     style="font-size:9.75px;font-variant:normal;font-weight:normal;writing-mode:lr-tb;fill:#414141;fill-opacity:1;fill-rule:nonzero;stroke:none;font-family:ArialMT;-inkscape-font-specification:ArialMT"
     x="-3 2.4195154"
     y="-257.25"
     sodipodi:role="line"
     id="tspan76">15</tspan></text>

</g><path
       d="m 32.2926,127.26 0.5426,0.103 0.5421,1.234 0.5426,0.258 0.5426,1.029 0.5426,-1.338 0.5426,0.604 0.5421,1.492 0.5426,0.026 0.5426,0.566 0.5426,1.042 0.5426,0.553 0.5421,-2.598 0.5426,-2.881 0.5426,-3.203 0.5426,0.476 0.5426,4.052 0.5421,6.521 0.5426,1.788 0.5426,-2.496 0.5426,-4.218 0.5426,-2.213 0.5421,-1.942 0.5426,0.45 0.5426,1.518 0.5426,-0.013 0.5426,-1.556 0.5421,-8.065 0.5426,-5.943 0.5426,4.489 0.5426,3.975 0.5426,-1.415 0.5421,-3.923 0.5426,-0.476 0.5426,2.251 0.5426,3.254 0.5426,-1.813 0.5421,-3.808 0.5426,0.219 0.5426,-2.277 0.5426,-5.698 0.5426,-2.444 0.5421,0.039 0.5426,-0.476 0.5426,-0.116 0.5426,1.724 0.5426,2.817 0.5421,-2.779 0.5426,-3.344 0.5426,2.598"
       style="fill:none;stroke:#5c5c5c;stroke-width:1;stroke-linecap:butt;stroke-linejoin:bevel;stroke-miterlimit:10;stroke-opacity:1;stroke-dasharray:none"
       id="path78"
       inkscape:connector-curvature="0" /><path
       d="m 58.875,105.303 0.5426,13.75 0.5426,12.117 0.5421,-23.011 0.5426,-11.293 0.5426,11.807 0.5426,-33.416 0.5426,-3.7691 0.5421,-3.7047 0.5426,12.9789 0.5426,16.2059 0.5426,0.6308 0.5426,9.0812 0.5421,-34.0468 0.5426,-0.7211 0.5426,9.9938 0.5426,1.0043 0.5426,21.1458 0.5421,-7.6412 0.5426,-0.0898 0.5426,2.457 0.5426,4.952 0.5426,-20.7602 0.5421,-3.1258 0.5426,26.947 0.5426,-5.363 0.5426,1.273 0.5426,-0.913 0.5421,-2.0971 0.5426,1.8271 0.5426,2.701 0.5426,-1.402 0.5426,1.569 0.5421,-1.582 0.5426,-37.533 0.5426,43.154 0.5426,9.891 0.5426,3.049 0.5421,-6.74 0.5426,-14.213 0.5426,-1.8648 0.5426,0.784 0.5426,8.9518 0.5421,-3.91 0.5426,4.078 0.5426,15.525 0.5426,-1.904 0.5426,-11.203 0.5421,-14.4191 0.5426,1.6981"
       style="fill:none;stroke:#5c5c5c;stroke-width:1;stroke-linecap:butt;stroke-linejoin:bevel;stroke-miterlimit:10;stroke-opacity:1;stroke-dasharray:none"
       id="path80"
       inkscape:connector-curvature="0" /><path
       d="m 85.4574,98.152 0.5426,2.174 0.5426,0.45 0.5426,-3.8201 0.5421,-0.2707 0.5426,3.9878 0.5426,3.267 0.5426,2.302 0.5426,-4.875 0.5421,-3.833 0.5426,4.348 0.5426,3.46 0.5426,-0.656 0.5426,-4.656 0.5421,-0.013 0.5426,-25.4811 0.5426,-11.164 0.5426,46.6521 0.5426,1.106 0.5421,-38.112 0.5426,-18.5602 0.5426,20.4262 0.5426,22.239 0.5426,3.228 0.5421,-0.334 0.5426,4 0.5426,-5.0029 0.5425,-20.2852 0.542,-13.3117 0.543,-1.1961 0.542,11.8199 0.543,27.089 0.542,-5.93 0.543,-0.759 0.542,8.824 0.543,0.99 0.542,-0.99 0.543,-5.235 0.542,-2.5859 0.543,1.5309 0.543,1.029 0.542,4.476 0.542,-25.7511 0.543,-2.2758 0.542,0.9391 0.543,22.6888 0.542,12.605 0.543,-10.997 0.542,-45.7519 0.543,27.0109"
       style="fill:none;stroke:#5c5c5c;stroke-width:1;stroke-linecap:butt;stroke-linejoin:bevel;stroke-miterlimit:10;stroke-opacity:1;stroke-dasharray:none"
       id="path82"
       inkscape:connector-curvature="0" /><path
       d="m 112.04,82.948 0.543,26.574 0.542,0.129 0.542,2.418 0.543,-15.6659 0.542,10.6629 0.543,-25.4941 0.542,-10.3539 0.543,1.8519 0.543,27.5261 0.542,7.318 0.542,1.222 0.543,-12.7719 0.542,8.5149 0.543,3.974 0.542,-6.701 0.543,-5.518 0.542,1.6719 0.543,1.0929 0.542,-2.6359 0.543,-0.1801 0.542,1.466 0.543,-0.2828 0.543,0.682 0.542,1.5051 0.542,-0.7211 0.543,-1.273 0.542,-0.4371 0.543,3.5751 0.542,5.403 0.543,-31.9891 0.542,-11.898 0.543,5.9422 0.543,38.0219 0.542,-5.145 0.542,-27.1922 0.543,-19.6527 0.542,7.0738 0.543,21.545 0.542,14.316 0.543,8.5271 0.543,-34.6771 0.542,2.8043 0.542,-6.0203 0.543,-3.2918 0.542,9.4019 0.543,8.8879 0.542,-6.4699 0.543,-3.9102 0.542,7.9492"
       style="fill:none;stroke:#5c5c5c;stroke-width:1;stroke-linecap:butt;stroke-linejoin:bevel;stroke-miterlimit:10;stroke-opacity:1;stroke-dasharray:none"
       id="path84"
       inkscape:connector-curvature="0" /><path
       d="m 138.622,80.723 0.543,2.6629 0.542,25.5831 0.543,-1.055 0.542,-30.2781 0.543,-5.8269 0.543,5.3129 0.542,29.4421 0.542,-1.685 0.543,2.161 0.542,0.887 0.543,-28.2711 0.542,-0.1028 0.543,28.6569 0.542,0.579 0.543,-0.399 0.542,-30.1752 0.543,1.2223 0.542,29.4159 0.543,-2.276 0.542,-3.486 0.543,2.675 0.542,-3.665 0.543,-20.9791 0.542,-5.0938 0.543,31.3329 0.542,-7.511 0.543,-1.7621 0.543,3.4981 0.542,0.052 0.542,-0.322 0.543,-3.434 0.542,-1.5179 0.543,0.7718 0.542,0.3731 0.543,-0.759 0.542,0.8488 0.543,0.3602 0.542,-0.116 0.543,-0.9391 0.542,1.0813 0.543,-0.3864 0.542,0.3864 0.543,0.2046 0.542,-0.7707 0.543,2.3918 0.542,1.4281 0.543,-4.5788 0.542,2.7777 0.543,0.8621"
       style="fill:none;stroke:#5c5c5c;stroke-width:1;stroke-linecap:butt;stroke-linejoin:bevel;stroke-miterlimit:10;stroke-opacity:1;stroke-dasharray:none"
       id="path86"
       inkscape:connector-curvature="0" /><path
       d="m 165.205,100.3 0.542,-3.8199 0.543,0.4238 0.542,5.9941 0.543,0.656 0.542,9.814 0.543,-35.5129 0.542,-26.343 0.543,2.8168 0.542,9.3262 0.543,11.9871 0.542,4.6437 0.543,22.6511 0.542,-2.148 0.543,-0.399 0.542,-28.015 0.543,-8.991 0.542,3.8461 0.543,12.1679 0.542,23.127 0.543,-4.8359 0.543,0.823 0.542,5.0289 0.542,-23.4101 0.543,-0.5137 0.542,3.434 0.543,25.0048 0.542,-1.724 0.543,-2.752 0.542,4.09 0.543,-25.3259 0.542,-2.3152 0.543,1.8262 0.542,-2.534 0.543,3.434 0.542,21.6219 0.543,2.11 0.542,-32.439 0.543,2.5981 0.542,23.8079 0.543,12.4 0.543,-4.837 0.542,-25.2361 0.543,-9.9547 0.542,1.4527 0.542,1.9941 0.543,28.426 0.542,-1.711 0.543,7.37 0.542,-5.209"
       style="fill:none;stroke:#5c5c5c;stroke-width:1;stroke-linecap:butt;stroke-linejoin:bevel;stroke-miterlimit:10;stroke-opacity:1;stroke-dasharray:none"
       id="path88"
       inkscape:connector-curvature="0" /><path
       d="m 191.787,105.149 0.543,-7.6791 0.542,10.4571 0.543,-27.0239 0.542,24.5929 0.543,-7.923 0.542,0.6301 0.543,0.0391 0.543,3.8838 0.542,-0.63 0.542,0.489 0.543,2.251 0.542,0.077 0.543,-2.367 0.543,-3.0999 0.542,-0.9641 0.542,4.604 0.543,0.026 0.542,4.837 0.543,-44.801 0.542,16.7731 0.543,-5.9289 0.542,-13.8152 0.543,-2.984 0.542,16.0011 0.543,27.0629 0.542,-2.0332 0.543,-0.9129 0.542,6.8301 0.543,4.695 0.543,-27.7962 0.542,-0.1929 0.542,-0.836 0.543,0.618 0.542,26.3811 0.543,-3.293 0.543,3.768 0.542,-28.6569 0.542,-4.4383 0.543,2.984 0.542,31.5912 0.543,-3.01 0.542,3.151 0.543,-25.7509 0.542,-0.3852 0.543,-1.5051 0.542,0.3602 0.543,23.885 0.542,-5.5049 0.543,7.7439"
       style="fill:none;stroke:#5c5c5c;stroke-width:1;stroke-linecap:butt;stroke-linejoin:bevel;stroke-miterlimit:10;stroke-opacity:1;stroke-dasharray:none"
       id="path90"
       inkscape:connector-curvature="0" /><path
       d="m 218.37,107.349 0.542,-0.901 0.543,-2.83 0.542,-29.3899 0.543,-24.6453 0.542,12.9531 0.543,20.9012 0.543,19.4869 0.542,-0.167 0.543,4.116 0.542,-23.8601 0.542,-9.75 0.543,-2.984 0.542,38.6521 0.543,-12.49 0.542,4.103 0.543,-1.6331 0.542,-18.432 0.543,-8.3609 0.542,2.7781 0.543,6.1488 0.542,22.6251 0.543,-4.438 0.543,-1.8519 0.542,0.039 0.542,-0.1929 0.543,3.1898 0.542,-3.448 0.543,0.2058 0.543,4.2322 0.542,-3.3572 0.543,1.6852 0.542,-3.3961 0.542,5.7111 0.543,0.064 0.542,-20.5021 0.543,-11.332 0.542,1.2859 0.543,4.8231 0.542,5.2609 0.543,0.9782 0.542,25.673 0.543,-0.951 0.542,-24.3228 0.543,-1.2481 0.543,1.016 0.542,21.8279 0.542,1.556 0.543,-23.8081 0.542,-5.8789"
       style="fill:none;stroke:#5c5c5c;stroke-width:1;stroke-linecap:butt;stroke-linejoin:bevel;stroke-miterlimit:10;stroke-opacity:1;stroke-dasharray:none"
       id="path92"
       inkscape:connector-curvature="0" /><path
       d="m 244.952,76.491 0.543,-6.907 0.543,-5.1578 0.542,8.6308 0.542,7.8211 0.543,26.8439 0.542,-1.698 0.543,3.112 0.542,-0.668 0.543,0.244 0.542,-26.78 0.543,-0.3859 0.542,26.3559 0.543,-25.3911 0.542,-2.341 0.543,-0.682 0.542,0.8242 0.543,-0.8109 0.542,1.2609 0.543,1.852 0.542,-1.4153 0.543,-0.7718 0.542,-4.2829 0.543,-20.0781 0.543,10.6371 0.542,41.7259 0.542,-10.6239 0.543,7.5239 0.542,4.168 0.543,-3.782 0.542,-8.7341 0.543,8.6311 0.542,2.483 0.543,-5.351 0.542,-0.991 0.543,0.399 0.542,-5.261 0.543,5.531 0.542,2.032 0.543,-3.254 0.542,-3.6012 0.543,3.5752 0.542,3.692 0.543,-2.585 0.543,-2.4181 0.542,-3.1777 0.543,2.5218 0.542,-1.132 0.542,0.1148 0.543,3.0232"
       style="fill:none;stroke:#5c5c5c;stroke-width:1;stroke-linecap:butt;stroke-linejoin:bevel;stroke-miterlimit:10;stroke-opacity:1;stroke-dasharray:none"
       id="path94"
       inkscape:connector-curvature="0" /><path
       d="m 271.535,101.213 0.542,-1.183 0.543,-2.9839 0.542,0.0129 0.543,5.119 0.542,-4.271 0.543,7.872 0.542,-33.2489 0.543,-4.5789 0.542,31.9238 0.543,-2.5719 0.543,-15.0359 0.542,-12.6961 0.542,4.4769 0.543,33.764 0.542,-0.837 0.543,-7.7941 0.543,5.3381 0.542,-6.251 0.542,-25.134 0.543,-5.1961 0.542,4.643 0.543,5.6472 0.542,30.3939 0.543,-4.991 0.542,-1.054 0.543,4.617 0.542,-28.0401 0.543,-0.0129 0.542,29.88 0.543,-2.521 0.542,-2.792 0.543,0.476 0.543,1.299 0.542,-0.99 0.542,-24.1301 0.543,-3.8328 0.542,-1.0289 0.543,-1.093 0.543,8.1027 0.542,17.1969 0.542,11.9622 0.543,-9.955 0.542,-28.015 0.543,33.25 0.542,-9.9168 0.543,11.4348 0.542,1.736 0.543,-12.502 0.542,5.916"
       style="fill:none;stroke:#5c5c5c;stroke-width:1;stroke-linecap:butt;stroke-linejoin:bevel;stroke-miterlimit:10;stroke-opacity:1;stroke-dasharray:none"
       id="path96"
       inkscape:connector-curvature="0" /><path
       d="m 298.117,103.618 0.543,-22.6758 0.542,-10.1231 0.543,10.4438 0.542,21.6351 0.543,7.923 0.542,-2.997 0.543,-9.183 0.542,2.07 0.543,-0.668 0.543,-1.4149 0.542,4.7199 0.543,-1.273 0.542,-5.1578 0.542,0.6168 0.543,0.1422 0.542,-1.1192 0.543,2.5719 0.542,-1.9289 0.543,1.698 0.542,-0.4628 0.543,-1.209 0.542,5.1958 0.543,-21.429 0.542,-7.3571 0.543,-7.0488 0.543,12.7469 0.542,29.854 0.542,-2.624 0.543,-8.7589 0.542,3.0609 0.543,-2.1738 0.543,9.3128 0.542,-0.939 0.543,-5.634 0.542,-0.18 0.542,-4.425 0.543,8.039 0.542,-24.7469 0.543,-0.3859 0.542,26.0588 0.543,-7.8592 0.542,-1.1187 0.543,5.9299 0.542,-20.619 0.543,-6.1102 0.542,-1.2339 0.543,1.582 0.543,3.0742 0.542,3.3438"
       style="fill:none;stroke:#5c5c5c;stroke-width:1;stroke-linecap:butt;stroke-linejoin:bevel;stroke-miterlimit:10;stroke-opacity:1;stroke-dasharray:none"
       id="path98"
       inkscape:connector-curvature="0" /><path
       d="m 324.7,82.7809 0.542,25.4291 0.543,-1.582 0.542,1.621 0.543,-25.558 0.543,-0.1289 0.542,-2.6359 0.542,-3.743 0.543,2.0316 0.542,30.2652 0.543,-4.373 0.542,-1.17 0.543,-0.669 0.542,-3.795 0.543,1.904 0.542,-3.511 0.543,3.228 0.542,-1.6081 0.543,4.3481 0.542,-1.737 0.543,-19.1779 0.542,-0.6171 0.543,-3.627 0.542,26.728 0.543,-7.537 0.542,3.665 0.543,5.66 0.543,-0.386 0.542,-7.4222 0.542,1.5313 0.543,0.5789 0.542,-3.4598 0.543,2.3789 0.542,-0.398 0.543,-1.5571 0.542,3.988 0.543,-0.592 0.542,-4.2831 0.543,-0.039 0.542,3.3062 0.543,8.0519 0.542,0.386 0.543,-5.042 0.542,-3.2799 0.543,6.0189 0.542,-46.3298 0.543,36.7219 0.543,5.5819 0.542,-26.9472 0.543,-13.5437"
       style="fill:none;stroke:#5c5c5c;stroke-width:1;stroke-linecap:butt;stroke-linejoin:bevel;stroke-miterlimit:10;stroke-opacity:1;stroke-dasharray:none"
       id="path100"
       inkscape:connector-curvature="0" /><path
       d="m 351.283,61.4551 0.542,0.6949 0.542,12.3352 0.543,34.3808 0.542,-8.63 0.543,10.624 0.542,-8.682 0.543,-22.96 0.542,-11.2668 0.543,4.7847 0.542,7.0481 0.543,25.609"
       style="fill:none;stroke:#5c5c5c;stroke-width:1;stroke-linecap:butt;stroke-linejoin:bevel;stroke-miterlimit:10;stroke-opacity:1;stroke-dasharray:none"
       id="path102"
       inkscape:connector-curvature="0" /><path
       d="m 32.2926,218.133 0.5426,-1.736 0.5421,0.231 0.5426,1.351 0.5426,1.093 0.5426,-0.952 0.5426,1.878 0.5421,-1.247 0.5426,0 0.5426,1.826 0.5426,2.959 0.5426,0.823 0.5421,-1.441 0.5426,-1.801 0.5426,-0.501 0.5426,-0.361 0.5426,2.637 0.5421,4.631 0.5426,-1.209 0.5426,-4.18 0.5426,-5.531 0.5426,-0.116 0.5421,5.736 0.5426,-7.498 0.5426,-0.643 0.5426,6.019 0.5426,-6.135 0.5421,-4.18 0.5426,8.733 0.5426,2.804 0.5426,-8.785 0.5426,-3.563 0.5421,1.749 0.5426,2.573 0.5426,1.273 0.5426,-3.961 0.5426,2.778 0.5421,3.164 0.5426,-0.463 0.5426,-1.492 0.5426,-1.312 0.5426,0.553 0.5421,0.888 0.5426,6.084 0.5426,2.032 0.5426,-4.682 0.5426,-5.891 0.5421,1.119 0.5426,9.956 0.5426,15.409"
       style="fill:none;stroke:#b8b8b8;stroke-width:1;stroke-linecap:butt;stroke-linejoin:bevel;stroke-miterlimit:10;stroke-opacity:1;stroke-dasharray:none"
       id="path104"
       inkscape:connector-curvature="0" /><path
       d="m 58.875,238.752 0.5426,13.621 0.5426,2.47 0.5421,-6.406 0.5426,-18.046 0.5426,-20.22 0.5426,-13.775 0.5426,-7.769 0.5421,5.698 0.5426,19.306 0.5426,18.278 0.5426,3.486 0.5426,-4.965 0.5421,-1.955 0.5426,-8.065 0.5426,-8.541 0.5426,-4.643 0.5426,1.042 0.5421,2.624 0.5426,0.527 0.5426,2.328 0.5426,1.196 0.5426,-0.913 0.5421,1.916 0.5426,-2.649 0.5426,-0.206 0.5426,4.335 0.5426,-1.698 0.5421,-2.894 0.5426,6.881 0.5426,4.078 0.5426,0.334 0.5426,0.991 0.5421,4.9 0.5426,26.883 0.5426,-36.414 0.5426,-4.836 0.5426,-8.631 0.5421,-14.213 0.5426,16.798 0.5426,26.394 0.5426,-2.367 0.5426,-6.199 0.5421,-7.82 0.5426,-13.609 0.5426,-8.322 0.5426,3.344 0.5426,6.419 0.5421,6.637 0.5426,-6.65"
       style="fill:none;stroke:#b8b8b8;stroke-width:1;stroke-linecap:butt;stroke-linejoin:bevel;stroke-miterlimit:10;stroke-opacity:1;stroke-dasharray:none"
       id="path106"
       inkscape:connector-curvature="0" /><path
       d="m 85.4574,207.432 0.5426,1.337 0.5426,0.155 0.5426,1.196 0.5421,0.128 0.5426,-2.971 0.5426,-1.736 0.5426,3.936 0.5426,9.582 0.5421,-8.116 0.5426,-6.868 0.5426,12.013 0.5426,4.553 0.5426,-3.691 0.5421,3.241 0.5426,40.195 0.5207,28.89"
       style="fill:none;stroke:#b8b8b8;stroke-width:1;stroke-linecap:butt;stroke-linejoin:bevel;stroke-miterlimit:10;stroke-opacity:1;stroke-dasharray:none"
       id="path108"
       inkscape:connector-curvature="0" /><path
       d="m 94.1496,289.276 0.5305,-53.303 0.5426,-20.85 0.5421,14.677 0.5426,-22.664 0.5426,-7.062 0.5426,17.339 0.5426,8.451 0.5421,-3.242 0.5426,-5.209 0.5426,-4.181 0.5425,-4.681 0.542,-2.907 0.543,-6.882 0.542,1.248 0.543,9.12 0.542,1.414 0.543,-4.566 0.542,-2.547 0.543,4.94 0.542,4.463 0.543,-9.596 0.542,0.991 0.543,2.289 0.543,0.515 0.542,3.859 0.542,2.958 0.543,2.894 0.542,4.695 0.543,6.804 0.542,33.301 0.529,27.732"
       style="fill:none;stroke:#b8b8b8;stroke-width:1;stroke-linecap:butt;stroke-linejoin:bevel;stroke-miterlimit:10;stroke-opacity:1;stroke-dasharray:none"
       id="path110"
       inkscape:connector-curvature="0" /><path
       d="m 110.964,289.276 0.533,-42.151 0.543,-16.901 0.543,-4.167 0.542,-29.275 0.542,-4.76 0.543,28.169 0.542,15.036 0.543,0.734 0.542,-1.119 0.543,-13.75 0.543,-8.876 0.542,-1.53 0.542,-6.393 0.543,-1.646 0.542,4.913 0.543,-0.103 0.542,-5.634 0.543,-0.295 0.542,4.875 0.543,4.154 0.542,0.18 0.543,-3.473 0.542,5.081 0.543,-1.801 0.543,-1.633 0.542,5.762 0.542,-0.977 0.543,-5.068 0.542,6.727 0.543,9.48 0.542,2.842 0.543,26.651 0.542,20.67 0.543,-35.294 0.543,-19.358 0.542,-12.812 0.542,-17.132 0.543,0.025 0.542,19.564 0.543,17.3 0.542,7.011 0.543,0.578 0.543,-16.528 0.542,-13.853 0.542,-5.634 0.543,5.981 0.542,6.984 0.543,5.081 0.542,-0.154"
       style="fill:none;stroke:#b8b8b8;stroke-width:1;stroke-linecap:butt;stroke-linejoin:bevel;stroke-miterlimit:10;stroke-opacity:1;stroke-dasharray:none"
       id="path112"
       inkscape:connector-curvature="0" /><path
       d="m 137.537,216.757 0.543,-1.402 0.542,6.791 0.543,3.306 0.542,-4.759 0.543,-6.367 0.542,-3.293 0.543,-2.097 0.543,-4.283 0.542,6.56 0.542,8.194 0.543,-4.168 0.542,-3.871 0.543,4.926 0.542,-2.212 0.543,4.231 0.542,12.451 0.543,14.11 0.542,-0.038 0.543,-11.332 0.542,-19.242 0.543,-23.577 0.542,11.64 0.543,28.285 0.542,3.254 0.543,-4.026 0.542,8.476 0.543,-6.739 0.542,-20.876 0.543,-6.058 0.543,3.395 0.542,-4.759 0.542,1.672 0.543,12.798 0.542,-0.797 0.543,-7.486 0.542,4.746 0.543,2.007 0.542,-3.628 0.543,-4.578 0.542,-1.968 0.543,0.72 0.542,2.469 0.543,0.772 0.542,-0.296 0.543,2.959 0.542,2.817 0.543,3.485 0.542,-5.595 0.543,5.634"
       style="fill:none;stroke:#b8b8b8;stroke-width:1;stroke-linecap:butt;stroke-linejoin:bevel;stroke-miterlimit:10;stroke-opacity:1;stroke-dasharray:none"
       id="path114"
       inkscape:connector-curvature="0" /><path
       d="m 164.12,219.008 0.542,6.483 0.543,-6.959 0.542,0.283 0.543,14.612 0.542,20.181 0.543,2.405 0.542,-18.367 0.543,-1.904 0.542,-11.178 0.543,-31.037 0.542,-19.821 0.543,21.378 0.542,28.079 0.543,5.685 0.542,-2.586 0.543,1.479 0.542,-0.373 0.543,-9.762 0.542,-9.364 0.543,-3.01 0.542,1.029 0.543,4.283 0.543,1.351 0.542,-1.968 0.542,0.759 0.543,-1.081 0.542,2.071 0.543,1.389 0.542,-3.099 0.543,-0.901 0.542,1.261 0.543,9.376 0.542,1.325 0.543,-2.289 0.542,2.752 0.543,0.528 0.542,52.196 0.301,15.062"
       style="fill:none;stroke:#b8b8b8;stroke-width:1;stroke-linecap:butt;stroke-linejoin:bevel;stroke-miterlimit:10;stroke-opacity:1;stroke-dasharray:none"
       id="path116"
       inkscape:connector-curvature="0" /><path
       d="m 184.909,289.276 0.368,-25.815 0.543,-46.009 0.542,-12.773 0.543,-19.602 0.543,-8.104 0.542,26.922 0.543,34.612 0.542,3.872 0.542,-12.991 0.543,-8.965 0.542,-12.31 0.543,-4.643 0.542,-9.454 0.543,4.811 0.542,14.521 0.543,-4.244 0.542,-8.683 0.543,7.191 0.542,6.984 0.543,-1.08 0.543,-4.103 0.542,-4.168 0.542,0.425 0.543,-0.734 0.542,4.116 0.543,1.48 0.543,0.913 0.542,3.871 0.542,2.598 0.543,9.622 0.542,39.063 0.543,12.696 0.542,-49.431 0.543,-7.319 0.542,-8.386 0.543,-34.755 0.542,-1.646 0.543,35.796 0.542,21.789 0.543,-5.222 0.542,5.454 0.543,-1.441 0.543,-16.489 0.542,-8.85 0.542,-6.804 0.543,-4.772 0.542,5.942 0.543,6.586 0.543,1.196"
       style="fill:none;stroke:#b8b8b8;stroke-width:1;stroke-linecap:butt;stroke-linejoin:bevel;stroke-miterlimit:10;stroke-opacity:1;stroke-dasharray:none"
       id="path118"
       inkscape:connector-curvature="0" /><path
       d="m 211.318,210.943 0.542,-2.791 0.542,1.183 0.543,4.283 0.542,-0.668 0.543,-3.435 0.542,-3.923 0.543,-2.559 0.542,3.961 0.543,4.682 0.542,0.27 0.543,1.492 0.542,4.476 0.543,3.563 0.542,7.384 0.543,20.85 0.542,9.891 0.543,-11.589 0.542,-16.811 0.543,-12.657 0.543,-13.789 0.542,7.769 0.543,27.397 0.542,-2.572 0.542,-8.219 0.543,0.283 0.542,-14.689 0.543,-7.28 0.542,5.852 0.543,-1.299 0.542,-1.428 0.543,8.399 0.542,6.329 0.543,-7.499 0.542,-6.29 0.543,1.582 0.543,3.936 0.542,-3.897 0.542,-1.171 0.543,8.593 0.542,-3.486 0.543,-5.39 0.543,9.133 0.542,-1.029 0.543,-3.344 0.542,4.154 0.542,3.087 0.543,4.052 0.542,8.283 0.543,-4.309"
       style="fill:none;stroke:#b8b8b8;stroke-width:1;stroke-linecap:butt;stroke-linejoin:bevel;stroke-miterlimit:10;stroke-opacity:1;stroke-dasharray:none"
       id="path120"
       inkscape:connector-curvature="0" /><path
       d="m 237.9,231.703 0.542,-10.264 0.543,-6.791 0.542,3.112 0.543,0.463 0.542,-2.585 0.543,10.933 0.542,8.695 0.543,-8.232 0.543,-10.74 0.542,2.752 0.542,1.171 0.543,-9.12 0.542,-7.974 0.543,7.743 0.543,10.316 0.542,-2.431 0.542,-8.039 0.543,1.247 0.542,9.055 0.543,-8.553 0.542,-2.444 0.543,3.344 0.542,-4.309 0.543,-2.315 0.542,4.746 0.543,-0.707 0.542,-2.496 0.543,2.534 0.542,4.592 0.543,-1.389 0.542,-3.447 0.543,4.978 0.542,3.987 0.543,12.22 0.542,24.567 0.543,-25.751 0.543,-9.93 0.542,28.105 0.542,-22.085 0.543,-43.822 0.542,4.977 0.543,34.009 0.542,8.901 0.543,-5.081 0.542,12.039 0.543,-5.248 0.542,-19.281 0.543,-6.894 0.542,-6.393"
       style="fill:none;stroke:#b8b8b8;stroke-width:1;stroke-linecap:butt;stroke-linejoin:bevel;stroke-miterlimit:10;stroke-opacity:1;stroke-dasharray:none"
       id="path122"
       inkscape:connector-curvature="0" /><path
       d="m 264.482,199.868 0.543,-0.566 0.542,7.589 0.543,4.939 0.542,-2.752 0.543,-3.28 0.542,1.338 0.543,3.974 0.543,0.54 0.542,0.219 0.543,-2.855 0.542,-1.325 0.542,1.916 0.543,4.451 0.542,2.225 0.543,-0.579 0.542,2.251 0.543,4.168 0.542,0.759 0.543,3.871 0.542,29.558 0.543,27.693 0.542,-40.247 0.543,-23.975 0.543,2.714 0.542,-24.272 0.542,-24.927 0.543,24.85 0.542,44.285 0.543,4.94 0.543,-30.163 0.542,-0.81 0.542,8.553 0.543,-10.547 0.542,-15.705 0.543,-1.248 0.542,11.178 0.543,2.186 0.542,-5.813 0.543,-0.232 0.542,4.54 0.543,3.255 0.542,0.309 0.543,-0.644 0.542,-4.772 0.543,-1.903 0.543,4.746 0.542,2.341 0.542,1.878 0.543,-1.171"
       style="fill:none;stroke:#b8b8b8;stroke-width:1;stroke-linecap:butt;stroke-linejoin:bevel;stroke-miterlimit:10;stroke-opacity:1;stroke-dasharray:none"
       id="path124"
       inkscape:connector-curvature="0" /><path
       d="m 291.065,213.348 0.542,3.602 0.543,3.396 0.543,-2.226 0.542,19.654 0.542,44.813 0.543,-14.354 0.542,-36.8 0.543,-1.158 0.542,-20.502 0.543,-33.893 0.542,0.154 0.543,41.418 0.542,27.615 0.543,-11.062 0.542,-5.106 0.543,2.676 0.542,-13.287 0.543,-13.815 0.542,-6.894 0.543,-0.977 0.542,9.325 0.543,6.045 0.543,-4.54 0.542,-2.984 0.543,11.344 0.542,3.821 0.542,-11.024 0.543,-0.385 0.542,2.778 0.543,-3.499 0.542,-1.839 0.543,4.913 0.542,1.106 0.543,-2.881 0.542,2.187 0.543,4.604 0.542,2.689 0.543,24.631 0.543,15.191 0.542,-13.338 0.542,-23.397 0.543,-25.005 0.542,8.849 0.543,33.443 0.543,4.939 0.542,-12.644 0.543,3.743 0.542,-4.347 0.542,-19.294"
       style="fill:none;stroke:#b8b8b8;stroke-width:1;stroke-linecap:butt;stroke-linejoin:bevel;stroke-miterlimit:10;stroke-opacity:1;stroke-dasharray:none"
       id="path126"
       inkscape:connector-curvature="0" /><path
       d="m 317.647,211.033 0.543,-13.287 0.542,-0.63 0.543,13.776 0.542,2.637 0.543,1.813 0.542,7.28 0.543,-3.37 0.542,-5.955 0.543,3.987 0.542,1.325 0.543,-3.691 0.543,-5.325 0.542,-3.628 0.542,0.193 0.543,3.962 0.542,6.663 0.543,3.01 0.543,-2.92 0.542,1.865 0.542,1.698 0.543,-4.322 0.542,-0.219 0.543,3.01 0.542,11.113 0.543,20.284 0.542,5.968 0.543,-15.37 0.542,-21.725 0.543,-14.033 0.542,-9.788 0.543,-10.586 0.542,13.467 0.543,42.266 0.542,10.47 0.543,-24.4 0.542,-1.042 0.543,-14.997 0.542,-19.256 0.543,1.184 0.543,15.242 0.542,0.849 0.542,-1.48 0.543,7.731 0.542,5.544 0.543,-2.161 0.542,-3.023 0.543,-2.315 0.542,-0.926 0.543,-0.631"
       style="fill:none;stroke:#b8b8b8;stroke-width:1;stroke-linecap:butt;stroke-linejoin:bevel;stroke-miterlimit:10;stroke-opacity:1;stroke-dasharray:none"
       id="path128"
       inkscape:connector-curvature="0" /><path
       d="m 344.23,211.29 0.542,0 0.543,5.004 0.542,5.17 0.543,-0.385 0.542,1.517 0.543,3.679 0.542,3.499 0.543,12.502 0.542,34.356 0.543,-16.297 0.543,-25.39 0.542,-13.352 0.543,-29.558 0.542,-15.448 0.542,23.32 0.543,33.674 0.542,7.139 0.543,-12.901 0.542,-5.235 0.543,-7.808 0.542,-10.65 0.543,-7.19 0.542,2.662 0.543,8.464"
       style="fill:none;stroke:#b8b8b8;stroke-width:1;stroke-linecap:butt;stroke-linejoin:bevel;stroke-miterlimit:10;stroke-opacity:1;stroke-dasharray:none"
       id="path130"
       inkscape:connector-curvature="0" /><path
       d="m 32.2926,77.032 0.5426,0.9129 0.5421,1.5301 0.5426,-0.282 0.5426,-0.0391 0.5426,0.7973 0.5426,-0.643 0.5421,2.393 0.5426,26.8948 0.5426,-1.466 0.5426,0.231 0.5426,-0.63 0.5421,0.386 0.5426,-1.299 0.5426,-0.54 0.5426,-1.402 0.5426,-1.029 0.5421,-2.701 0.5426,-2.303 0.5426,-1.0289 0.5426,-0.3731 0.5426,2.6371 0.5421,-2.0972 0.5426,-0.1539 0.5426,3.82 0.5426,-2.7911 0.5426,1.132 0.5421,3.3061 0.5426,3.241 0.5426,2.637 0.5426,0.591 0.5426,2.058 0.5421,-1.517 0.5426,-0.219 0.5426,-0.142 0.5426,5.454 0.5426,-0.836 0.5421,-0.977 0.5426,5.299 0.5426,3.138 0.5426,-0.926 0.5426,1.068 0.5421,1.582 0.5426,3.267 0.5426,-1.402 0.5426,1.826 0.5426,6.522 0.5421,-3.692 0.5426,-0.591 0.5426,-4.142"
       style="fill:none;stroke:#a5a5a5;stroke-width:1;stroke-linecap:butt;stroke-linejoin:bevel;stroke-miterlimit:10;stroke-opacity:1;stroke-dasharray:none"
       id="path132"
       inkscape:connector-curvature="0" /><path
       d="m 58.875,124.533 0.5426,-9.3 0.5426,-18.174 0.5421,9.724 0.5426,-8.7471 0.5426,-0.9257 0.5426,2.1218 0.5426,-1.9422 0.5421,3.1902 0.5426,7.64 0.5426,-2.881 0.5426,-5.4538 0.5426,-2.7262 0.5421,3.833 0.5426,6.469 0.5426,1.415 0.5426,-2.096 0.5426,3.305 0.5421,2.38 0.5426,-0.81 0.5426,0.038 0.5426,0.154 0.5426,2.586 0.5421,4.335 0.5426,3.318 0.5426,-0.424 0.5426,-2.714 0.5426,0.681 0.5421,7.383 0.5426,-1.517 0.5426,0.231 0.5426,0.193 0.5426,0.978 0.5421,4.463 0.5426,-66.9491 0.5426,37.9441 0.5426,-5.1581 0.5426,3.1771 0.5421,1.286 0.5426,-4.7202 0.5426,4.1162 0.5426,5.955 0.5426,-5.261 0.5421,-0.63 0.5426,10.2 0.5426,2.521 0.5426,3.074 0.5426,3.19 0.5421,-3.408 0.5426,0.244"
       style="fill:none;stroke:#a5a5a5;stroke-width:1;stroke-linecap:butt;stroke-linejoin:bevel;stroke-miterlimit:10;stroke-opacity:1;stroke-dasharray:none"
       id="path134"
       inkscape:connector-curvature="0" /><path
       d="M 85.4574,116.841 86,121.96 l 0.5426,4.695 0.5426,1.544 0.5421,3.794 0.5426,3.229 0.5426,-0.965 0.5426,1.042 0.5426,-2.007 0.5421,1.659 0.5426,3.782 0.5426,-1.029 0.5426,0.99 0.5426,8.413 0.5421,12.065 0.5426,7.395 0.5426,-42.587 0.5426,-10.985 0.5426,-10.766 0.5421,0.335 0.5426,6.251 0.5426,-3.949 0.5426,12.412 0.5426,6.663 0.5421,0.039 0.5426,-3.447 0.5426,-2.56 0.5425,4.566 0.542,-0.81 0.543,-2.496 0.542,3.821 0.543,5.016 0.542,-1.544 0.543,0.078 0.542,3.537 0.543,4.232 0.542,-0.116 0.543,4.476 0.542,-2.675 0.543,-2.393 0.543,1.518 0.542,4.656 0.542,-3.884 0.543,-0.811 0.542,2.611 0.543,12.49 0.542,9.878 0.543,-34.42 0.542,-20.554 0.543,-6.1349"
       style="fill:none;stroke:#a5a5a5;stroke-width:1;stroke-linecap:butt;stroke-linejoin:bevel;stroke-miterlimit:10;stroke-opacity:1;stroke-dasharray:none"
       id="path136"
       inkscape:connector-curvature="0" /><path
       d="m 112.04,99.0141 0.543,-0.7852 0.542,5.0811 0.542,18.406 0.543,-7.538 0.542,0.965 0.543,7.319 0.542,-10.933 0.543,-7.653 0.543,9.351 0.542,10.47 0.542,2.881 0.543,-1.505 0.542,-2.624 0.543,-1.273 0.542,2.688 0.543,-3.55 0.542,5.183 0.543,3.139 0.542,9.222 0.543,-2.122 0.542,-3.511 0.543,0.527 0.543,2.881 0.542,-0.064 0.542,-1.338 0.543,2.405 0.542,-0.913 0.543,5.557 0.542,15.975 0.543,5.081 0.542,-23.68 0.543,-28.876 0.543,-12.7859 0.542,6.7919 0.542,-4.695 0.543,-0.5019 0.542,5.7109 0.543,12.76 0.542,5.389 0.543,-5.222 0.543,-0.875 0.542,0.618 0.542,-1.544 0.543,-2.096 0.542,5.492 0.543,2.675 0.542,-3.846 0.543,-1.479 0.542,1.595"
       style="fill:none;stroke:#a5a5a5;stroke-width:1;stroke-linecap:butt;stroke-linejoin:bevel;stroke-miterlimit:10;stroke-opacity:1;stroke-dasharray:none"
       id="path138"
       inkscape:connector-curvature="0" /><path
       d="m 138.622,117.767 0.543,4.643 0.542,6.818 0.543,2.353 0.542,-0.064 0.543,-2.701 0.543,0.836 0.542,1.788 0.542,-0.039 0.543,-1.8 0.542,-0.129 0.543,2.032 0.542,4.618 0.543,6.418 0.542,-2.598 0.543,-5.132 0.542,-11.293 0.543,-11.885 0.542,-14.9851 0.543,2.8043 0.542,5.4278 0.543,12.785 0.542,5.788 0.543,1.634 0.542,-2.598 0.543,-1.171 0.542,3.049 0.543,-0.631 0.543,-1.196 0.542,2.624 0.542,-0.54 0.543,-2.508 0.542,-1.402 0.543,4.206 0.542,4.077 0.543,-0.257 0.542,1.26 0.543,5.866 0.542,2.045 0.543,-0.926 0.542,0 0.543,1.337 0.542,-2.971 0.543,-0.553 0.542,1.376 0.543,-5.916 0.542,8.347 0.543,5.03 0.542,-3.833 0.543,2.688"
       style="fill:none;stroke:#a5a5a5;stroke-width:1;stroke-linecap:butt;stroke-linejoin:bevel;stroke-miterlimit:10;stroke-opacity:1;stroke-dasharray:none"
       id="path140"
       inkscape:connector-curvature="0" /><path
       d="m 165.205,142.489 0.542,7.203 0.543,1.762 0.542,-14.483 0.543,-19.14 0.542,-9.839 0.543,-8.9272 0.542,2.1092 0.543,-0.077 0.542,-4.1411 0.543,14.3411 0.542,5.338 0.543,-2.354 0.542,-0.334 0.543,-0.72 0.542,-2.496 0.543,0.836 0.542,1.428 0.543,4.206 0.542,4.849 0.543,0.489 0.543,0.45 0.542,0.283 0.542,-4.296 0.543,8.322 0.542,-1.183 0.543,0.913 0.542,-2.778 0.543,2.495 0.542,0.142 0.543,2.752 0.542,0.386 0.543,3.64 0.542,0.785 0.543,3.383 0.542,12.18 0.543,-31.5 0.542,-9.66 0.543,-30.3811 0.542,23.2431 0.543,5.865 0.543,6.83 0.542,-5.814 0.543,8.862 0.542,6.779 0.542,-8.644 0.543,-5.711 0.542,3.152 0.543,7.974 0.542,5.853"
       style="fill:none;stroke:#a5a5a5;stroke-width:1;stroke-linecap:butt;stroke-linejoin:bevel;stroke-miterlimit:10;stroke-opacity:1;stroke-dasharray:none"
       id="path142"
       inkscape:connector-curvature="0" /><path
       d="m 191.787,126.861 0.543,-0.489 0.542,-1.466 0.543,0.823 0.542,3.409 0.543,1.762 0.542,4.746 0.543,5.479 0.543,0.939 0.542,-2.778 0.542,-2.238 0.543,-1.775 0.542,1.338 0.543,0.025 0.543,-2.469 0.542,-0.566 0.542,9.325 0.543,17.017 0.542,7.666 0.543,-33.764 0.542,-13.312 0.543,-21.6869 0.542,3.8849 0.543,-3.229 0.542,8.477 0.543,10.701 0.542,7.345 0.543,11.19 0.542,-11.267 0.543,-6.663 0.543,-1.312 0.542,6.573 0.542,2.173 0.543,-0.681 0.542,0.18 0.543,1.35 0.543,-0.591 0.542,0.476 0.542,0.514 0.543,0.064 0.542,4.618 0.543,3.704 0.542,-0.167 0.543,-2.907 0.542,0.36 0.543,-1.144 0.542,-3.55 0.543,1.402 0.542,4.682 0.543,5.119"
       style="fill:none;stroke:#a5a5a5;stroke-width:1;stroke-linecap:butt;stroke-linejoin:bevel;stroke-miterlimit:10;stroke-opacity:1;stroke-dasharray:none"
       id="path144"
       inkscape:connector-curvature="0" /><path
       d="m 218.37,140.148 0.542,4.09 0.543,1.93 0.542,-23.423 0.543,-24.8251 0.542,10.4831 0.543,-6.675 0.543,-1.235 0.542,16.888 0.543,9.583 0.542,2.508 0.542,-5.968 0.543,-11.435 0.542,-1.209 0.543,4.463 0.542,2.573 0.543,1.582 0.542,-3.602 0.543,-2.559 0.542,0.681 0.543,-2.842 0.542,-0.605 0.543,2.959 0.543,0.771 0.542,-1.131 0.542,2.932 0.543,-0.116 0.542,1.107 0.543,3.743 0.543,-5.596 0.542,5.351 0.543,-2.277 0.542,-4.501 0.542,0.591 0.543,8.695 0.542,-5.299 0.543,-12.772 0.542,-6.11 0.543,0.9129 0.542,2.1741 0.543,1.955 0.542,6.29 0.543,3.383 0.542,0.81 0.543,5.981 0.543,0.141 0.542,-6.367 0.542,-0.951 0.543,2.636 0.542,3.988"
       style="fill:none;stroke:#a5a5a5;stroke-width:1;stroke-linecap:butt;stroke-linejoin:bevel;stroke-miterlimit:10;stroke-opacity:1;stroke-dasharray:none"
       id="path146"
       inkscape:connector-curvature="0" /><path
       d="m 244.952,119.851 0.543,0.334 0.543,-0.09 0.542,5.943 0.542,3.756 0.543,3.408 0.542,-4.913 0.543,5.067 0.542,4.091 0.543,0.874 0.542,-4.038 0.543,3.781 0.542,2.791 0.543,-0.964 0.542,0.99 0.543,0.849 0.542,4.798 0.543,1.916 0.542,-0.489 0.543,0.811 0.542,3.768 0.543,-1.196 0.542,-12.464 0.543,-16.952 0.543,-14.393 0.542,0.321 0.542,-3.923 0.543,-0.54 0.542,1.569 0.543,4.36 0.542,8.606 0.543,11.344 0.542,-8.412 0.543,-4.965 0.542,7.936 0.543,5.403 0.542,-4.477 0.543,1.068 0.542,-0.939 0.543,0.682 0.542,3.048 0.543,0.206 0.542,1.685 0.543,1.878 0.543,4.193 0.542,-0.553 0.543,-0.849 0.542,2.521 0.542,-1.826 0.543,-4.592"
       style="fill:none;stroke:#a5a5a5;stroke-width:1;stroke-linecap:butt;stroke-linejoin:bevel;stroke-miterlimit:10;stroke-opacity:1;stroke-dasharray:none"
       id="path148"
       inkscape:connector-curvature="0" /><path
       d="m 271.535,131.273 0.542,-0.579 0.543,2.418 0.542,1.569 0.543,4.013 0.542,1.3 0.543,6.045 0.542,9.364 0.543,-32.401 0.542,-15.641 0.543,-10.0969 0.543,8.0779 0.542,3.473 0.542,-4.515 0.543,10.946 0.542,6.161 0.543,-2.624 0.543,-2.045 0.542,-4.952 0.542,5.698 0.543,5.364 0.542,-0.656 0.543,-1.081 0.542,0.875 0.543,2.714 0.542,1.556 0.543,-1.697 0.542,-1.004 0.543,3.82 0.542,5.351 0.543,1.93 0.542,-0.528 0.543,-1.132 0.543,-0.553 0.542,2.508 0.542,-2.971 0.543,6.894 0.542,-1.041 0.543,2.675 0.543,4.965 0.542,16.207 0.542,-14.702 0.543,-28.002 0.542,-8.167 0.543,-11.5641 0.542,1.8391 0.543,1.505 0.542,5.364 0.543,0.939 0.542,13.261"
       style="fill:none;stroke:#a5a5a5;stroke-width:1;stroke-linecap:butt;stroke-linejoin:bevel;stroke-miterlimit:10;stroke-opacity:1;stroke-dasharray:none"
       id="path150"
       inkscape:connector-curvature="0" /><path
       d="m 298.117,122.153 0.543,11.281 0.542,-14.381 0.543,-6.932 0.542,6.701 0.543,4.772 0.542,2.122 0.543,2.29 0.542,1.209 0.543,-1.724 0.543,-0.257 0.542,4.296 0.543,0.527 0.542,-2.328 0.542,6.354 0.543,0.811 0.542,-0.155 0.543,2.02 0.542,0.836 0.543,-3.409 0.542,0.695 0.543,0.463 0.542,2.354 0.543,4.823 0.542,3.332 0.543,-4.94 0.543,-11.177 0.542,-8.875 0.542,-26.0469 0.543,0.1539 0.542,12.091 0.543,8.695 0.543,8.837 0.542,7.653 0.543,-8.296 0.542,-10.445 0.542,-0.231 0.543,4.116 0.542,1.067 0.543,-7.563 0.542,1.042 0.543,6.637 0.542,0.695 0.543,-2.573 0.542,1.569 0.543,-0.385 0.542,4.347 0.543,1.878 0.543,0.643 0.542,1.466"
       style="fill:none;stroke:#a5a5a5;stroke-width:1;stroke-linecap:butt;stroke-linejoin:bevel;stroke-miterlimit:10;stroke-opacity:1;stroke-dasharray:none"
       id="path152"
       inkscape:connector-curvature="0" /><path
       d="m 324.7,128.211 0.542,1.621 0.543,4.103 0.542,0.502 0.543,-1.286 0.543,0.54 0.542,0.334 0.542,1.209 0.543,2.174 0.542,3.319 0.543,-0.155 0.542,1.248 0.543,-5.647 0.542,-10.598 0.543,-25.172 0.542,7.563 0.543,-8.2058 0.542,0.025 0.543,12.3608 0.542,7.422 0.543,-4.103 0.542,1.35 0.543,0.489 0.542,-3.28 0.543,5.068 0.542,7.46 0.543,0 0.543,-3.022 0.542,1.414 0.542,0.978 0.543,-1.312 0.542,2.097 0.543,1.53 0.542,2.174 0.543,2.585 0.542,-0.103 0.543,-2.032 0.542,0.708 0.543,-1.402 0.542,0.771 0.543,2.303 0.542,0.36 0.543,5.634 0.542,0.849 0.543,11.499 0.542,-27.745 0.543,-12.412 0.543,-4.541 0.542,0.965 0.543,-8.541"
       style="fill:none;stroke:#a5a5a5;stroke-width:1;stroke-linecap:butt;stroke-linejoin:bevel;stroke-miterlimit:10;stroke-opacity:1;stroke-dasharray:none"
       id="path154"
       inkscape:connector-curvature="0" /><path
       d="m 351.283,99.309 0.542,8.001 0.542,5.441 0.543,6.65 0.542,4.759 0.543,-2.11 0.542,-2.456 0.543,-0.065 0.542,1.222 0.543,2.611 0.542,-1.685 0.543,3.165"
       style="fill:none;stroke:#a5a5a5;stroke-width:1;stroke-linecap:butt;stroke-linejoin:bevel;stroke-miterlimit:10;stroke-opacity:1;stroke-dasharray:none"
       id="path156"
       inkscape:connector-curvature="0" /><path
       d="m 32.2926,97.6238 0.5426,0.0391 0.5421,-0.3219 0.5426,0.052 0.5426,0.334 0.5426,0.2582 0.5426,0.0898 0.5421,-0.2191 0.5426,-0.0637 0.5426,0.2828 0.5426,0.4879 0.5426,0.2582 0.5421,0.5008 0.5426,0.5152 0.5426,0.5659 0.5426,0.681 0.5426,0.309 0.5421,-0.36 0.5426,-0.103 0.5426,0.27 0.5426,0.296 0.5426,-0.746 0.5421,-0.27 0.5426,0.54 0.5426,-1.003 0.5426,-0.1799 0.5426,0.2959 0.5421,-1.2611 0.5426,-1.3887 0.5426,1.1578 0.5426,1.762 0.5426,-0.7589 0.5421,-0.7851 0.5426,0.1672 0.5426,0.3347 0.5426,-0.0129 0.5426,-0.5921 0.5421,-0.27 0.5426,0.1801 0.5426,0.4379 0.5426,-0.3859 0.5426,-0.759 0.5421,-0.5149 0.5426,-0.7589 0.5426,0.5148 0.5426,0.643 0.5426,-0.3598 0.5421,-0.5793 0.5426,1.8141 0.5426,-2.2641"
       style="fill:none;stroke:#959595;stroke-width:1;stroke-linecap:butt;stroke-linejoin:bevel;stroke-miterlimit:10;stroke-opacity:1;stroke-dasharray:none"
       id="path158"
       inkscape:connector-curvature="0" /><path
       d="m 58.875,96.4539 0.5426,0.7199 0.5426,-0.1277 0.5421,0.218 0.5426,-0.861 0.5426,1.8391 0.5426,-0.2703 0.5426,-1.6078 0.5421,1.2089 0.5426,1.325 0.5426,-0.064 0.5426,-1.9559 0.5426,2.2258 0.5421,0.5402 0.5426,-0.3089 0.5426,-0.4114 0.5426,-0.991 0.5426,-0.8359 0.5421,0.2062 0.5426,0.5918 0.5426,-0.1679 0.5426,0.605 0.5426,0.309 0.5421,-0.7719 0.5426,-0.1671 0.5426,-0.193 0.5426,-0.0649 0.5426,0.9778 0.5421,0.1543 0.5426,-1.1703 0.5426,-0.1797 0.5426,0.8359 0.5426,0.45 0.5421,-0.2062 0.5426,1.9301 0.5426,3.28 0.5426,-6.9078 0.5426,1.1188 0.5421,-0.6559 0.5426,-0.4629 0.5426,-0.2184 0.5426,4.3342 0.5426,4.103 0.5421,1.197 0.5426,-1.197 0.5426,-3.485 0.5426,-3.8459 0.5426,-0.193 0.5421,2.6879 0.5426,1.248"
       style="fill:none;stroke:#959595;stroke-width:1;stroke-linecap:butt;stroke-linejoin:bevel;stroke-miterlimit:10;stroke-opacity:1;stroke-dasharray:none"
       id="path160"
       inkscape:connector-curvature="0" /><path
       d="M 85.4574,101.239 86,100.004 l 0.5426,-1.1321 0.5426,-0.643 0.5421,-0.1289 0.5426,0.4629 0.5426,-0.6559 0.5426,-1.1832 0.5426,0.6563 0.5421,3.1899 0.5426,0.463 0.5426,-2.0451 0.5426,-0.4117 0.5426,0.991 0.5421,-0.2582 0.5426,-0.3852 0.5426,-0.3726 0.5426,5.9928 0.5426,-5.1061 0.5421,4.2581 0.5426,-1.711 0.5426,-2.4702 0.5426,-1.6078 0.5426,-0.784 0.5421,-0.6558 0.5426,0.8359 0.5426,0.116 0.5425,-1.0043 0.542,0.6051 0.543,-0.45 0.542,0.4762 0.543,0.8867 0.542,-1.4277 0.543,0.759 0.542,-0.6692 0.543,0.6949 0.542,-0.6687 0.543,1.2859 0.542,-0.8359 0.543,-0.591 0.543,0.3078 0.542,0.2961 0.542,-0.5141 0.543,0.6813 0.542,0.0129 0.543,-0.5911 0.542,0.643 0.543,0.4629 0.542,4.1801 0.543,-2.9199"
       style="fill:none;stroke:#959595;stroke-width:1;stroke-linecap:butt;stroke-linejoin:bevel;stroke-miterlimit:10;stroke-opacity:1;stroke-dasharray:none"
       id="path162"
       inkscape:connector-curvature="0" /><path
       d="m 112.04,99.0391 0.543,-0.1801 0.542,-2.0449 0.542,0.7328 0.543,0.9519 0.542,-0.8226 0.543,-0.3731 0.542,2.8169 0.543,1.106 0.543,-1.9041 0.542,-2.534 0.542,0.6051 0.543,0.4629 0.542,-0.193 0.543,1.2609 0.542,0.3852 0.543,-0.3981 0.542,-0.6687 0.543,-0.6434 0.542,0.1672 0.543,0.1668 0.542,-0.8617 0.543,0.3219 0.543,-0.4891 0.542,-0.309 0.542,0.2582 0.543,-0.2961 0.542,1.4399 0.543,0.1551 0.542,-0.7079 0.543,0.811 0.542,-0.2192 0.543,2.8561 0.543,-3.2549 0.542,5.5829 0.542,-0.991 0.543,-0.386 0.542,0.914 0.543,-1.402 0.542,-1.4409 0.543,-2.675 0.543,0.7839 0.542,-0.2308 0.542,-0.7852 0.543,2.868 0.542,1.261 0.543,-0.373 0.542,-1.7751 0.543,-0.9777 0.542,0.3726"
       style="fill:none;stroke:#959595;stroke-width:1;stroke-linecap:butt;stroke-linejoin:bevel;stroke-miterlimit:10;stroke-opacity:1;stroke-dasharray:none"
       id="path164"
       inkscape:connector-curvature="0" /><path
       d="m 138.622,98.3828 0.543,-0.8867 0.542,-0.7852 0.543,0.5403 0.542,-0.5403 0.543,0.2192 0.543,0.9769 0.542,0.9141 0.542,-1.402 0.543,1.1321 0.542,0.6429 0.543,-1.4152 0.542,-0.2187 0.543,-0.4762 0.542,-0.141 0.543,1.2992 0.542,3.0098 0.543,1.44 0.542,-0.99 0.543,-2.495 0.542,0.668 0.543,1.39 0.542,-3.756 0.543,-0.2828 0.542,0.2828 0.543,-0.5149 0.542,0.695 0.543,-1.2743 0.543,0.9391 0.542,-0.45 0.542,1.209 0.543,1.2351 0.542,-2.5339 0.543,0.7078 0.542,-0.9391 0.543,0.141 0.542,0.7461 0.543,-0.1539 0.542,-0.991 0.543,1.248 0.542,0.579 0.543,-0.7329 0.542,-0.3992 0.543,1.0422 0.542,0.7199 0.543,-0.4761 0.542,-0.3469 0.543,1.248 0.542,-0.7851 0.543,-1.5309"
       style="fill:none;stroke:#959595;stroke-width:1;stroke-linecap:butt;stroke-linejoin:bevel;stroke-miterlimit:10;stroke-opacity:1;stroke-dasharray:none"
       id="path166"
       inkscape:connector-curvature="0" /><path
       d="m 165.205,96.891 0.542,0.3219 0.543,0.5922 0.542,-0.759 0.543,-0.052 0.542,3.9489 0.543,-4.2321 0.542,2.843 0.543,-1.0809 0.542,0.8879 0.543,3.2671 0.542,-1.338 0.543,-4.1931 0.542,-0.4367 0.543,0.3207 0.542,-0.025 0.543,0.6941 0.542,-0.4629 0.543,-0.6043 0.542,0.8363 0.543,0.4239 0.543,-0.6168 0.542,-0.5153 0.542,-0.257 0.543,-0.1027 0.542,0.4117 0.543,-0.3219 0.542,0.1418 0.543,0.0512 0.542,0.6172 0.543,-0.7071 0.542,1.9168 0.543,1.3371 0.542,-0.4109 0.543,-0.0262 0.542,-1.1449 0.543,-1.5558 0.542,8.9008 0.543,1.054 0.542,-8.3728 0.543,-1.6852 0.543,0.759 0.542,0.7719 0.543,-1.0809 0.542,0.334 0.542,5.145 0.543,1.531 0.542,-0.617 0.543,-2.959 0.542,-0.437"
       style="fill:none;stroke:#959595;stroke-width:1;stroke-linecap:butt;stroke-linejoin:bevel;stroke-miterlimit:10;stroke-opacity:1;stroke-dasharray:none"
       id="path168"
       inkscape:connector-curvature="0" /><path
       d="m 191.787,100.004 0.543,-0.7591 0.542,-1.325 0.543,1.1321 0.542,0.0519 0.543,-2.7398 0.542,0.2961 0.543,1.1187 0.543,1.0289 0.542,-0.3348 0.542,-1.35 0.543,-0.8109 0.542,0.2059 0.543,1.209 0.543,0.8492 0.542,-0.6563 0.542,-0.1801 0.543,0.2192 0.542,-0.2699 0.543,0.7839 0.542,6.123 0.543,-7.8198 0.542,7.5108 0.543,-0.9 0.542,1.698 0.543,-0.849 0.542,-5.4149 0.543,-2.4961 0.542,0.116 0.543,0.0899 0.543,0.064 0.542,1.0942 0.542,0.6039 0.543,-0.27 0.542,0.9911 0.543,0.6168 0.543,-1.145 0.542,-1.1699 0.542,0.077 0.543,-0.425 0.542,0.425 0.543,1.2992 0.542,-0.0902 0.543,-0.695 0.542,-1.0539 0.543,-0.4633 0.542,0.025 0.543,0.2961 0.542,0.1801 0.543,-0.1148"
       style="fill:none;stroke:#959595;stroke-width:1;stroke-linecap:butt;stroke-linejoin:bevel;stroke-miterlimit:10;stroke-opacity:1;stroke-dasharray:none"
       id="path170"
       inkscape:connector-curvature="0" /><path
       d="m 218.37,96.7762 0.542,0.9636 0.543,-0.2308 0.542,1.7359 0.543,2.2771 0.542,-1.274 0.543,-2.7781 0.543,-0.45 0.542,2.3539 0.543,0.8622 0.542,-1.7751 0.542,2.5461 0.543,-2.714 0.542,-0.0641 0.543,-1.582 0.542,1.4019 0.543,-0.9386 0.542,-0.2704 0.543,1.6332 0.542,-0.2441 0.543,-1.698 0.542,0.1543 0.543,1.3769 0.543,0.8867 0.542,-1.4269 0.542,-0.0899 0.543,1.543 0.542,-0.8488 0.543,-0.643 0.543,1.209 0.542,-1.1961 0.543,-1.132 0.542,0.1539 0.542,0.348 0.543,0.4238 0.542,0.3602 0.543,-1.3121 0.542,0.9391 0.543,-0.7461 0.542,1.1191 0.543,0.1551 0.542,-0.6051 0.543,-0.2828 0.542,0.334 0.543,2.6117 0.543,-0.2059 0.542,-3.0359 0.542,1.6719 0.543,-0.527 0.542,0.0129"
       style="fill:none;stroke:#959595;stroke-width:1;stroke-linecap:butt;stroke-linejoin:bevel;stroke-miterlimit:10;stroke-opacity:1;stroke-dasharray:none"
       id="path172"
       inkscape:connector-curvature="0" /><path
       d="m 244.952,97.7789 0.543,0.7199 0.543,-0.9648 0.542,-0.2051 0.542,1.157 0.543,-1.2218 0.542,-0.4243 0.543,0.0512 0.542,-0.5531 0.543,0.2062 0.542,-0.18 0.543,0.5019 0.542,0.784 0.543,-1.2988 0.542,1.1058 0.543,-0.2308 0.542,-0.1422 0.543,1.0551 0.542,0.0769 0.543,-0.6039 0.542,0.5777 0.543,0.2321 0.542,-0.8489 0.543,2.765 0.543,-2.07 0.542,2.418 0.542,-4.2059 0.543,3.9359 0.542,-2.7012 0.543,3.5242 0.542,-3.0742 0.543,-1.1578 0.542,-0.6949 0.543,2.1867 0.542,0.9391 0.543,-2.2379 0.542,0.0129 0.543,2.0711 0.542,2.045 0.543,-0.926 0.542,-2.5858 0.543,-0.9902 0.542,0.5531 0.543,0.425 0.543,-0.0653 0.542,-0.3078 0.543,0.1918 0.542,0.9653 0.542,1.1187 0.543,0.0641"
       style="fill:none;stroke:#959595;stroke-width:1;stroke-linecap:butt;stroke-linejoin:bevel;stroke-miterlimit:10;stroke-opacity:1;stroke-dasharray:none"
       id="path174"
       inkscape:connector-curvature="0" /><path
       d="m 271.535,99.7719 0.542,-1.1957 0.543,-1.3371 0.542,-0.1551 0.543,-0.1031 0.542,0.8882 0.543,1.0028 0.542,-0.3207 0.543,-1.4801 0.542,7.3709 0.543,-4.348 0.543,0.63 0.542,-1.556 0.542,-1.0551 0.543,2.4571 0.542,-0.424 0.543,-3.0999 0.543,5.8129 0.542,-1.877 0.542,-3.7308 0.543,1.2738 0.542,1.0801 0.543,-1.7492 0.542,-0.2321 0.543,0.0524 0.542,-1.068 0.543,0.1156 0.542,-0.3597 0.543,0.064 0.542,0.45 0.543,0.4508 0.542,0.3082 0.543,-0.5531 0.543,-0.6039 0.542,0.373 0.542,1.4528 0.543,0.1421 0.542,-0.6691 0.543,0.0641 0.543,1.3121 0.542,-0.2442 0.542,-2.2257 0.543,3.8458 0.542,4.194 0.543,-8.4 0.542,0.9262 0.543,0.1929 0.542,-0.3472 0.543,1.3761 0.542,-1.9421"
       style="fill:none;stroke:#959595;stroke-width:1;stroke-linecap:butt;stroke-linejoin:bevel;stroke-miterlimit:10;stroke-opacity:1;stroke-dasharray:none"
       id="path176"
       inkscape:connector-curvature="0" /><path
       d="m 298.117,96.5309 0.543,4.1291 0.542,2.199 0.543,-2.199 0.542,0.309 0.543,-0.566 0.542,-1.5178 0.543,-1.209 0.542,-0.6563 0.543,0.4762 0.543,-0.8359 0.542,0.3078 0.543,-0.3598 0.542,1.3508 0.542,2.148 0.543,-0.8359 0.542,-0.8231 0.543,-0.0261 0.542,-0.6559 0.543,-0.4629 0.542,0.9 0.543,1.0938 0.542,-0.386 0.543,0.3602 0.542,1.5949 0.543,-0.167 0.543,-0.335 0.542,2.405 0.542,-1.685 0.543,-4.0899 0.542,4.6559 0.543,1.531 0.543,-5.6591 0.542,2.1601 0.543,-0.9898 0.542,-1.1832 0.542,0.823 0.543,-0.5019 0.542,-1.3629 0.543,0.0637 0.542,1.3121 0.543,0.1539 0.542,0.0519 0.543,1.3383 0.542,-0.373 0.543,-2.5469 0.542,0.0129 0.543,0.9769 0.543,0.3731 0.542,-0.566"
       style="fill:none;stroke:#959595;stroke-width:1;stroke-linecap:butt;stroke-linejoin:bevel;stroke-miterlimit:10;stroke-opacity:1;stroke-dasharray:none"
       id="path178"
       inkscape:connector-curvature="0" /><path
       d="m 324.7,97.2641 0.542,-0.527 0.543,1.2988 0.542,-0.7328 0.543,-0.4761 0.543,0.875 0.542,-1.1711 0.542,0.0902 0.543,0.7078 0.542,0.5141 0.543,0.9519 0.542,0.4371 0.543,-0.2699 0.542,1.1959 0.543,1.004 0.542,-3.2159 0.543,0.823 0.542,0.2957 0.543,-2.3796 0.542,0.4117 0.543,1.5179 0.542,-1.0027 0.543,3.2019 0.542,-1.2468 0.543,-0.7852 0.542,-0.5269 0.543,-1.0551 0.543,1.9422 0.542,-1.2094 0.542,-0.7199 0.543,0.2191 0.542,-0.232 0.543,-0.707 0.542,0.3601 0.543,0.759 0.542,0.668 0.543,0.1289 0.542,-0.3469 0.543,-0.4383 0.542,-0.784 0.543,0.3731 0.542,0.309 0.543,-0.1028 0.542,1.7879 0.543,2.122 0.542,-3.936 0.543,2.675 0.543,2.174 0.542,-5.492 0.543,-0.1031"
       style="fill:none;stroke:#959595;stroke-width:1;stroke-linecap:butt;stroke-linejoin:bevel;stroke-miterlimit:10;stroke-opacity:1;stroke-dasharray:none"
       id="path180"
       inkscape:connector-curvature="0" /><path
       d="m 351.283,96.6469 0.542,0.6301 0.542,1.389 0.543,-1.3121 0.542,1.209 0.543,4.0261 0.542,0.515 0.543,-0.926 0.542,-1.569 0.543,-1.4918 0.542,-1.7883 0.543,-0.5019"
       style="fill:none;stroke:#959595;stroke-width:1;stroke-linecap:butt;stroke-linejoin:bevel;stroke-miterlimit:10;stroke-opacity:1;stroke-dasharray:none"
       id="path182"
       inkscape:connector-curvature="0" /><path
       d="m 32.2926,96.5309 0.5426,-0.0899 0.5421,-0.0898 0.5426,0.3597 0.5426,0.5403 0.5426,0.3218 0.5426,-0.0769 0.5421,-0.052 0.5426,0.6047 0.5426,0.4242 0.5426,0.0899 0.5426,0.8242 0.5421,0.9899 0.5426,-0.129 0.5426,-0.771 0.5426,-0.4629 0.5426,0.3339 0.5421,1.634 0.5426,2.534 0.5426,1.35 0.5426,-0.296 0.5426,-0.617 0.5421,1.157 0.5426,1.428 0.5426,1.016 0.5426,0.155 0.5426,-0.335 0.5421,1.145 0.5426,0.167 0.5426,-1.929 0.5426,-0.618 0.5426,0.798 0.5421,0.72 0.5426,0.026 0.5426,-0.553 0.5426,-0.399 0.5426,0.939 0.5421,0.45 0.5426,-0.887 0.5426,0 0.5426,-0.167 0.5426,-2.341 0.5421,-2.11 0.5426,-0.579 0.5426,-0.9 0.5426,-1.338 0.5426,-0.6171 0.5421,0.707 0.5426,-1.3891 0.5426,-0.2058"
       style="fill:none;stroke:#bababa;stroke-width:1;stroke-linecap:butt;stroke-linejoin:bevel;stroke-miterlimit:10;stroke-opacity:1;stroke-dasharray:none"
       id="path184"
       inkscape:connector-curvature="0" /><path
       d="m 58.875,98.293 0.5426,1.2992 0.5426,-0.9262 0.5421,11.139 0.5426,0.45 0.5426,-1.749 0.5426,-3.91 0.5426,-6.187 0.5421,-0.1031 0.5426,1.3761 0.5426,-2.405 0.5426,7.332 0.5426,4.334 0.5421,0.541 0.5426,-3.718 0.5426,-3.82 0.5426,-0.437 0.5426,0.257 0.5421,0.54 0.5426,1.094 0.5426,0.398 0.5426,0.528 0.5426,0.45 0.5421,-0.103 0.5426,-1.35 0.5426,-0.618 0.5426,0.309 0.5426,0.231 0.5421,0.695 0.5426,1.582 0.5426,0.72 0.5426,0 0.5426,0.541 0.5421,0.257 0.5426,2.431 0.5426,-11.705 0.5426,-0.2699 0.5426,8.5019 0.5421,6.238 0.5426,-1.132 0.5426,-5.813 0.5426,-4.631 0.5426,-3.576 0.5421,1.1711 0.5426,0.3078 0.5426,-1.543 0.5426,4.5531 0.5426,1.634 0.5421,-1.029 0.5426,-1.582"
       style="fill:none;stroke:#bababa;stroke-width:1;stroke-linecap:butt;stroke-linejoin:bevel;stroke-miterlimit:10;stroke-opacity:1;stroke-dasharray:none"
       id="path186"
       inkscape:connector-curvature="0" /><path
       d="M 85.4574,100.596 86,99.0262 86.5426,97.9328 87.0852,97.2 l 0.5421,-0.2699 0.5426,0.7719 0.5426,-0.9008 0.5426,-0.3864 0.5426,0.3223 0.5421,1.4277 0.5426,3.4602 0.5426,0.128 0.5426,-1.337 0.5426,-1.209 0.5421,-0.1031 0.5426,0.591 0.5426,4.1161 0.5426,5.171 0.5426,-9.6468 0.5421,1.2858 0.5426,-3.2409 0.5426,3.5889 0.5426,0.424 0.5426,-4.4629 0.5421,-0.2449 0.5426,0.7339 0.5426,0.2571 0.5425,2.5598 0.542,-0.618 0.543,-2.559 0.542,1.2211 0.543,1.0551 0.542,-1.0551 0.543,-1.8 0.542,1.1437 0.543,-0.5136 0.542,-0.309 0.543,-0.3981 0.542,0.0379 0.543,1.4918 0.543,0.2063 0.542,0.6429 0.542,0.9 0.543,-1.4019 0.542,-1.8903 0.543,1.4403 0.542,-1.466 0.543,6.9969 0.542,3.846 0.543,-6.997"
       style="fill:none;stroke:#bababa;stroke-width:1;stroke-linecap:butt;stroke-linejoin:bevel;stroke-miterlimit:10;stroke-opacity:1;stroke-dasharray:none"
       id="path188"
       inkscape:connector-curvature="0" /><path
       d="m 112.04,100.21 0.543,4.515 0.542,-7.2031 0.542,1.6851 0.543,4.154 0.542,-2.727 0.543,-1.7231 0.542,4.9391 0.543,3.241 0.543,1.299 0.542,-1.016 0.542,-2.778 0.543,-2.007 0.542,0.618 0.543,1.247 0.542,2.046 0.543,1.003 0.542,0.051 0.543,0.283 0.542,1.209 0.543,-0.643 0.542,-0.9 0.543,0.527 0.543,-24.7339 0.542,-0.6949 0.542,-1.1063 0.543,-0.7847 0.542,0.8617 0.543,0.232 0.542,-1.4148 0.543,-1.8141 0.542,-3.0102 0.543,-2.6617 0.543,-0.5152 0.542,3.293 0.542,3.3191 0.543,-2.6121 0.542,-5.6199 0.543,-2.4309 0.542,1.993 0.543,8.5019 0.543,1.3379 0.542,-3.4988 0.542,-0.4109 0.543,-0.643 0.542,-2.4703 0.543,-0.9258 0.542,1.1961 0.543,0.0387 0.542,-0.4887"
       style="fill:none;stroke:#bababa;stroke-width:1;stroke-linecap:butt;stroke-linejoin:bevel;stroke-miterlimit:10;stroke-opacity:1;stroke-dasharray:none"
       id="path190"
       inkscape:connector-curvature="0" /><path
       d="m 138.622,72.9672 0.543,1.7109 0.542,1.1449 0.543,0.077 0.542,1.5691 0.543,0.5141 0.543,-0.9004 0.542,0.9391 0.542,3.2031 0.543,2.084 0.542,25.287 0.543,-0.99 0.542,0.63 0.543,-25.043 0.542,24.773 0.543,-1.158 0.542,-0.939 0.543,0.682 0.542,0.077 0.543,-1.042 0.542,1.775 0.543,-2.919 0.542,-2.727 0.543,3.987 0.542,-23.525 0.543,-3.4731 0.542,-1.068 0.543,3.2289 0.543,2.0582 0.542,-0.8242 0.542,-0.334 0.543,0.1543 0.542,0.9778 0.543,26.1241 0.542,-25.6101 0.543,25.4811 0.542,-0.322 0.543,0 0.542,-1.376 0.543,-1.698 0.542,-0.81 0.543,-0.553 0.542,-0.502 0.543,0.155 0.542,0.167 0.543,-1.081 0.542,0.322 0.543,0.694 0.542,-1.659 0.543,-0.386"
       style="fill:none;stroke:#bababa;stroke-width:1;stroke-linecap:butt;stroke-linejoin:bevel;stroke-miterlimit:10;stroke-opacity:1;stroke-dasharray:none"
       id="path192"
       inkscape:connector-curvature="0" /><path
       d="m 165.205,101.843 0.542,-0.398 0.543,-2.3411 0.542,-1.4801 0.543,1.8403 0.542,-2.3801 0.543,8.039 0.542,-2.546 0.543,-4.8372 0.542,4.5152 0.543,2.341 0.542,-1.917 0.543,-3.0989 0.542,-2.2 0.543,1.3508 0.542,2.6111 0.543,-1.312 0.542,-3.6019 0.543,3.2418 0.542,0 0.543,-1.9679 0.543,-0.9391 0.542,1.659 0.542,1.2601 0.543,-1.0929 0.542,-0.9262 0.543,0.5152 0.542,0.836 0.543,0.514 0.542,0.6179 0.543,-0.669 0.542,0.0378 0.543,0 0.542,0.7332 0.543,-0.6039 0.542,1.9679 0.543,5.389 0.542,4.206 0.543,-7.846 0.542,-5.7372 0.543,2.2641 0.543,6.9331 0.542,4.978 0.543,-4 0.542,-5.866 0.542,-5.5818 0.543,4.6428 0.542,0.155 0.543,-3.2541 0.542,0.2832"
       style="fill:none;stroke:#bababa;stroke-width:1;stroke-linecap:butt;stroke-linejoin:bevel;stroke-miterlimit:10;stroke-opacity:1;stroke-dasharray:none"
       id="path194"
       inkscape:connector-curvature="0" /><path
       d="m 191.787,98.1781 0.543,1.1059 0.542,-0.682 0.543,-2.045 0.542,2.1219 0.543,1.8781 0.542,0.296 0.543,-0.425 0.543,-0.077 0.542,0.643 0.542,0.142 0.543,0.862 0.542,1.839 0.543,1.698 0.543,0.399 0.542,-0.232 0.542,1.081 0.543,-0.901 0.542,-2.997 0.543,0.27 0.542,5.017 0.543,-3.808 0.542,-1.016 0.543,5.711 0.542,-32.4 0.543,-2.1481 0.542,5.1192 0.543,28.9659 0.542,-2.637 0.543,-1.659 0.543,0.36 0.542,1.865 0.542,1.119 0.543,0.708 0.542,0.746 0.543,-0.772 0.543,-2.212 0.542,-1.196 0.542,0.514 0.543,1.775 0.542,1.659 0.543,-0.643 0.542,-2.264 0.543,-0.746 0.542,-0.103 0.543,-0.72 0.542,0.386 0.543,1.338 0.542,0.476 0.543,-0.862"
       style="fill:none;stroke:#bababa;stroke-width:1;stroke-linecap:butt;stroke-linejoin:bevel;stroke-miterlimit:10;stroke-opacity:1;stroke-dasharray:none"
       id="path196"
       inkscape:connector-curvature="0" /><path
       d="m 218.37,105.728 0.542,-2.084 0.543,-2.212 0.542,-4.425 0.543,0.6821 0.542,8.0899 0.543,-22.7149 0.543,25.6349 0.542,-25.3002 0.543,-1.8008 0.542,-1.2218 0.542,0.2058 0.543,-3.0871 0.542,-4.9008 0.543,-1.325 0.542,0.6821 0.543,1.0929 0.542,-0.0261 0.543,-2.3532 0.542,-3.6277 0.543,-2.6883 0.542,-1.5949 0.543,0.1293 0.543,0.5398 0.542,0.2059 0.542,1.132 0.543,0.077 0.542,-1.209 0.543,0.257 0.543,1.0813 0.542,-0.3992 0.543,0.7718 0.542,1.5434 0.542,-0.2191 0.543,-1.2219 0.542,0.734 0.543,-0.425 0.542,-3.0871 0.543,-2.0711 0.542,-0.1032 0.543,1.9942 0.542,1.6082 0.543,2.2508 0.542,3.0871 0.543,1.3629 0.543,0.4629 0.542,0.2703 0.542,1.4539 0.543,1.1578 0.542,0.7582"
       style="fill:none;stroke:#bababa;stroke-width:1;stroke-linecap:butt;stroke-linejoin:bevel;stroke-miterlimit:10;stroke-opacity:1;stroke-dasharray:none"
       id="path198"
       inkscape:connector-curvature="0" /><path
       d="m 244.952,74.8961 0.543,-0.0902 0.543,-1.1957 0.542,-2.1223 0.542,0.5269 0.543,1.9422 0.542,2.0328 0.543,2.1614 0.542,-0.0262 0.543,0.9648 0.542,1.8782 0.543,1.2211 0.542,0.6691 0.543,25.4548 0.542,-1.029 0.543,-0.759 0.542,-0.694 0.543,-0.978 0.542,-0.579 0.543,-0.077 0.542,-0.579 0.543,-1.672 0.542,-1.736 0.543,-0.6428 0.543,6.6238 0.542,2.74 0.542,-4.181 0.543,-2.238 0.542,-3.6268 0.543,-2.277 0.542,1.9938 0.543,3.447 0.542,1.132 0.543,0.656 0.542,1.248 0.543,-1.634 0.542,-2.251 0.543,-1.17 0.542,0.193 0.543,0.746 0.542,0.617 0.543,0.746 0.542,-0.72 0.543,-1.814 0.543,-0.566 0.542,-0.2961 0.543,-0.025 0.542,0.72 0.542,-0.1289 0.543,-0.4758"
       style="fill:none;stroke:#bababa;stroke-width:1;stroke-linecap:butt;stroke-linejoin:bevel;stroke-miterlimit:10;stroke-opacity:1;stroke-dasharray:none"
       id="path200"
       inkscape:connector-curvature="0" /><path
       d="m 271.535,99.0262 0.542,0.9136 0.543,0.4372 0.542,0.167 0.543,-0.09 0.542,-1.479 0.543,0.566 0.542,1.222 0.543,3.203 0.542,1.775 0.543,-8.4898 0.543,1.4019 0.542,-0.9 0.542,2.6629 0.543,5.389 0.542,-0.72 0.543,-3.64 0.543,-4.0911 0.542,1.5699 0.542,2.2122 0.543,-2.2508 0.542,-2.084 0.543,1.0039 0.542,-0.3481 0.543,-0.7718 0.542,-0.1153 0.543,1.016 0.542,0.784 0.543,-0.9 0.542,-0.7199 0.543,0.141 0.542,0.2449 0.543,0.784 0.543,0.7332 0.542,1.0168 0.542,1.5951 0.543,-0.592 0.542,-1.4539 0.543,-0.7582 0.543,-1.0679 0.542,0.1289 0.542,3.3571 0.543,4.887 0.542,-1.852 0.543,-5.389 0.542,0.3859 0.543,2.4691 0.542,5.788 0.543,4.579 0.542,-3.485"
       style="fill:none;stroke:#bababa;stroke-width:1;stroke-linecap:butt;stroke-linejoin:bevel;stroke-miterlimit:10;stroke-opacity:1;stroke-dasharray:none"
       id="path202"
       inkscape:connector-curvature="0" /><path
       d="m 298.117,108.262 0.543,-4.914 0.542,-3.421 0.543,-2.3411 0.542,1.4922 0.543,-1.1453 0.542,4.5532 0.543,2.316 0.542,0.077 0.543,-0.926 0.543,-1.119 0.542,-0.605 0.543,0.785 0.542,1.055 0.542,-0.965 0.543,-0.54 0.542,1.042 0.543,1.067 0.542,-0.437 0.543,-0.142 0.542,-0.064 0.543,-0.605 0.542,0.181 0.543,0.398 0.542,-0.733 0.543,-1.003 0.543,-2.8942 0.542,-2.6886 0.542,4.6308 0.543,3.846 0.542,1.929 0.543,2.753 0.543,3.074 0.542,3.511 0.543,1.377 0.542,-0.656 0.542,2.135 0.543,2.727 0.542,1.247 0.543,0.579 0.542,-0.784 0.543,-0.553 0.542,2.984 0.543,1.8 0.542,0.013 0.543,-0.913 0.542,-2.611 0.543,-2.727 0.543,-1.685 0.542,-1.132"
       style="fill:none;stroke:#bababa;stroke-width:1;stroke-linecap:butt;stroke-linejoin:bevel;stroke-miterlimit:10;stroke-opacity:1;stroke-dasharray:none"
       id="path204"
       inkscape:connector-curvature="0" /><path
       d="m 324.7,118.23 0.542,-1.042 0.543,-0.257 0.542,0.823 0.543,0.695 0.543,-0.386 0.542,0.206 0.542,-0.553 0.543,-3.152 0.542,-2.469 0.543,-0.579 0.542,1.569 0.543,1.569 0.542,0.245 0.543,-0.913 0.542,-2.907 0.543,-2.136 0.542,-1.453 0.543,3.331 0.542,2.367 0.543,0.18 0.542,-4.733 0.543,-4.579 0.542,-4.1931 0.543,0.6811 0.542,1.274 0.543,-0.116 0.543,-1.479 0.542,-1.0421 0.542,-0.4379 0.543,0.6179 0.542,0.5141 0.543,-0.9262 0.542,-1.6718 0.543,-0.5918 0.542,0.0777 0.543,1.2223 0.542,1.1058 0.543,0.0379 0.542,1.5181 0.543,1.093 0.542,-1.363 0.543,-1.1192 0.542,0.3992 0.543,-0.5019 0.542,2.6499 0.543,-18.9339 0.543,17.4549 0.542,-2.4311 0.543,1.2602"
       style="fill:none;stroke:#bababa;stroke-width:1;stroke-linecap:butt;stroke-linejoin:bevel;stroke-miterlimit:10;stroke-opacity:1;stroke-dasharray:none"
       id="path206"
       inkscape:connector-curvature="0" /><path
       d="m 351.283,99.1551 0.542,3.6019 0.542,4.489 0.543,-1.197 0.542,-2.508 0.543,-2.894 0.542,-3.781 0.543,4 0.542,-1.7109 0.543,-0.6942 0.542,2.1731 0.543,0.039"
       style="fill:none;stroke:#bababa;stroke-width:1;stroke-linecap:butt;stroke-linejoin:bevel;stroke-miterlimit:10;stroke-opacity:1;stroke-dasharray:none"
       id="path208"
       inkscape:connector-curvature="0" /><path
       d="m 32.2926,96.325 0.5426,-0.0129 0.5421,0.0129 0.5426,0.2059 0.5426,0.0773 0.5426,-0.141 0.5426,-0.0641 0.5421,-0.0133 0.5426,0.025 0.5426,0.1293 0.5426,0.2438 0.5426,0.2832 0.5421,0.4121 0.5426,0.8867 0.5426,0.9391 0.5426,0.785 0.5426,0 0.5421,-0.6042 0.5426,-0.7207 0.5426,-0.0261 0.5426,0.6179 0.5426,0.6172 0.5421,0.1799 0.5426,0.193 0.5426,0.656 0.5426,0.412 0.5426,-0.077 0.5421,-0.103 0.5426,0.283 0.5426,0.296 0.5426,0.025 0.5426,-0.115 0.5421,-0.219 0.5426,-0.142 0.5426,0.168 0.5426,-0.129 0.5426,-0.502 0.5421,-0.064 0.5426,0.232 0.5426,-0.18 0.5426,0.475 0.5426,0.631 0.5421,-0.232 0.5426,-0.013 0.5426,0.489 0.5426,0.527 0.5426,-0.077 0.5421,-0.424 0.5426,-0.245 0.5426,-1.093"
       style="fill:none;stroke:#585858;stroke-width:1;stroke-linecap:butt;stroke-linejoin:bevel;stroke-miterlimit:10;stroke-opacity:1;stroke-dasharray:none"
       id="path210"
       inkscape:connector-curvature="0" /><path
       d="m 58.875,100.93 0.5426,-2.1089 0.5426,-1.8402 0.5421,0.875 0.5426,0.2441 0.5426,1.3379 0.5426,-0.2059 0.5426,-1.7359 0.5421,-1.0422 0.5426,0.116 0.5426,0.3473 0.5426,0.5398 0.5426,-0.9261 0.5421,0.425 0.5426,0.6941 0.5426,0.0262 0.5426,-0.991 0.5426,0.2578 0.5421,0.4761 0.5426,-0.4121 0.5426,-0.3859 0.5426,1.016 0.5426,0.2059 0.5421,-0.643 0.5426,-0.334 0.5426,0.2949 0.5426,0.5789 0.5426,0.5403 0.5421,0.7211 0.5426,0.7707 0.5426,0.6951 0.5426,0.605 0.5426,0.128 0.5421,-0.257 0.5426,-2.161 0.5426,0.3469 0.5426,-1.5168 0.5426,1.968 0.5421,0.2699 0.5426,-0.7078 0.5426,-0.4371 0.5426,-0.4121 0.5426,-1.016 0.5421,-0.0899 0.5426,1.1711 0.5426,-0.7594 0.5426,-0.7457 0.5426,1.016 0.5421,-0.9652 0.5426,-0.116"
       style="fill:none;stroke:#585858;stroke-width:1;stroke-linecap:butt;stroke-linejoin:bevel;stroke-miterlimit:10;stroke-opacity:1;stroke-dasharray:none"
       id="path212"
       inkscape:connector-curvature="0" /><path
       d="M 85.4574,96.7879 86,97.4961 l 0.5426,0.5141 0.5426,0.2828 0.5421,0.1422 0.5426,-0.1422 0.5426,-0.3078 0.5426,-0.2454 0.5426,0 0.5421,0.9782 0.5426,1.0929 0.5426,0.3091 0.5426,0.141 0.5426,0.476 0.5421,0.618 0.5426,1.003 0.5426,-0.077 0.5426,-1.943 0.5426,-2.2501 0.5421,-1.3899 0.5426,-0.1671 0.5426,-0.1161 0.5426,0.168 0.5426,0.1152 0.5421,-0.2179 0.5426,1.209 0.5426,2.0961 0.5425,0.5018 0.542,-1.3249 0.543,-1.7359 0.542,-0.6563 0.543,0.1031 0.542,0.2309 0.543,1.1063 0.542,0.8238 0.543,0.141 0.542,-0.334 0.543,-0.2711 0.542,0.4762 0.543,0.7078 0.543,0.3602 0.542,0.2189 0.542,-0.7459 0.543,-0.7211 0.542,-0.373 0.543,0.0898 0.542,0.682 0.543,0.3731 0.542,-0.566 0.543,-1.7489"
       style="fill:none;stroke:#585858;stroke-width:1;stroke-linecap:butt;stroke-linejoin:bevel;stroke-miterlimit:10;stroke-opacity:1;stroke-dasharray:none"
       id="path214"
       inkscape:connector-curvature="0" /><path
       d="m 112.04,97.123 0.543,0.7461 0.542,-0.6429 0.542,-0.7332 0.543,0.064 0.542,0.309 0.543,-0.3859 0.542,0.6808 0.543,2.47 0.543,2.7651 0.542,0.412 0.542,-1.916 0.543,-1.8272 0.542,-0.45 0.543,0.7071 0.542,1.3511 0.543,0.129 0.542,-0.232 0.543,0.103 0.542,-0.09 0.543,-0.257 0.542,-0.219 0.543,0.36 0.543,0.309 0.542,0.013 0.542,0.373 0.543,0.386 0.542,-0.142 0.543,0.013 0.542,0.592 0.543,1.067 0.542,0.515 0.543,0.064 0.543,-0.36 0.542,0.501 0.542,-0.63 0.543,-0.669 0.542,0.296 0.543,0.566 0.542,0.27 0.543,-2.739 0.543,-0.965 0.542,0.141 0.542,0.888 0.543,1.518 0.542,1.106 0.543,0.128 0.542,-0.566 0.543,-0.385 0.542,-0.206"
       style="fill:none;stroke:#585858;stroke-width:1;stroke-linecap:butt;stroke-linejoin:bevel;stroke-miterlimit:10;stroke-opacity:1;stroke-dasharray:none"
       id="path216"
       inkscape:connector-curvature="0" /><path
       d="m 138.622,102.551 0.543,-0.193 0.542,-0.322 0.543,-0.051 0.542,-0.129 0.543,0.116 0.543,-0.051 0.542,-0.476 0.542,-0.811 0.543,-1.0418 0.542,-0.9512 0.543,-1.0172 0.542,-0.5527 0.543,-0.4242 0.542,-0.3219 0.543,0.2961 0.542,0.5148 0.543,0.9903 0.542,0.7078 0.543,0.514 0.542,0.0899 0.543,-1.2481 0.542,-0.3726 0.543,0.734 0.542,0.8226 0.543,1.0932 0.542,0.322 0.543,-0.412 0.543,-0.231 0.542,-0.091 0.542,-0.012 0.543,0.077 0.542,0.128 0.543,0.103 0.542,-0.193 0.543,-0.3728 0.542,-0.0903 0.543,-0.025 0.542,-0.0648 0.543,0.1668 0.542,0.1031 0.543,0.348 0.542,0.488 0.543,0.168 0.542,0.077 0.543,0.051 0.542,0.206 0.543,0.103 0.542,-0.296 0.543,0.257"
       style="fill:none;stroke:#585858;stroke-width:1;stroke-linecap:butt;stroke-linejoin:bevel;stroke-miterlimit:10;stroke-opacity:1;stroke-dasharray:none"
       id="path218"
       inkscape:connector-curvature="0" /><path
       d="m 165.205,101.277 0.542,0.013 0.543,-0.476 0.542,-0.347 0.543,-0.7459 0.542,-2.0711 0.543,-0.9 0.542,-0.3469 0.543,2.109 0.542,1.6079 0.543,-0.4891 0.542,-1.518 0.543,-0.6168 0.542,-0.257 0.543,0.1148 0.542,1.132 0.543,-0.398 0.542,-0.9649 0.543,-0.682 0.542,0.0391 0.543,0.5269 0.543,0.9 0.542,0.4512 0.542,0.1797 0.543,-0.3348 0.542,-0.4242 0.543,0.0512 0.542,0.3219 0.543,0.489 0.542,0.4371 0.543,0.1668 0.542,-0.0508 0.543,-0.2582 0.542,-0.2699 0.543,-0.064 0.542,1.0289 0.543,-0.0387 0.542,-0.1672 0.543,0.965 0.542,-1.3759 0.543,0.373 0.543,0 0.542,-0.9519 0.543,-1.8403 0.542,0.116 0.542,-0.1281 0.543,-0.1418 0.542,0.4762 0.543,0.3726 0.542,-0.45"
       style="fill:none;stroke:#585858;stroke-width:1;stroke-linecap:butt;stroke-linejoin:bevel;stroke-miterlimit:10;stroke-opacity:1;stroke-dasharray:none"
       id="path220"
       inkscape:connector-curvature="0" /><path
       d="m 191.787,96.8398 0.543,-0.1929 0.542,0.4761 0.543,-0.7718 0.542,1.0808 0.543,0.7969 0.542,0.0262 0.543,-0.2449 0.543,-0.2051 0.542,0.1918 0.542,0.3992 0.543,0.7078 0.542,0.9131 0.543,0.682 0.543,0.334 0.542,0.013 0.542,-0.335 0.543,-0.9391 0.542,-0.977 0.543,0.2313 0.542,0.2058 0.543,0.2828 0.542,0.2571 0.543,0.6951 0.542,0.45 0.543,-1.0799 0.542,-0.643 0.543,0.7457 0.542,-1.1187 0.543,-1.8531 0.543,-0.45 0.542,0.1031 0.542,0.875 0.543,0.9258 0.542,0.0133 0.543,-0.4891 0.543,-0.5402 0.542,-0.0258 0.542,0.4121 0.543,0.3726 0.542,0.2313 0.543,-0.3211 0.542,-0.6309 0.543,-0.0902 0.542,0.116 0.543,0.2192 0.542,0.2058 0.543,-0.425 0.542,-1.1187 0.543,2.1347"
       style="fill:none;stroke:#585858;stroke-width:1;stroke-linecap:butt;stroke-linejoin:bevel;stroke-miterlimit:10;stroke-opacity:1;stroke-dasharray:none"
       id="path222"
       inkscape:connector-curvature="0" /><path
       d="m 218.37,98.4859 0.542,1.6851 0.543,0.399 0.542,-1.5559 0.543,-1.6731 0.542,1.107 0.543,2.225 0.543,0.772 0.542,0.398 0.543,-0.09 0.542,-0.861 0.542,0 0.543,1.376 0.542,1.08 0.543,0.258 0.542,-0.644 0.543,-0.553 0.542,0.013 0.543,0.54 0.542,1.119 0.543,0.862 0.542,0.489 0.543,-0.129 0.543,-0.45 0.542,-0.218 0.542,-0.013 0.543,0.064 0.542,0.219 0.543,0.334 0.543,0.244 0.542,0.554 0.543,0.347 0.542,-0.322 0.542,-0.051 0.543,0.334 0.542,0.348 0.543,0.578 0.542,1.145 0.543,0.708 0.542,-1.094 0.543,-1.183 0.542,-0.296 0.543,-0.939 0.542,-1.338 0.543,-0.758 0.543,-0.065 0.542,-0.218 0.542,-0.682 0.543,-0.373 0.542,0.167"
       style="fill:none;stroke:#585858;stroke-width:1;stroke-linecap:butt;stroke-linejoin:bevel;stroke-miterlimit:10;stroke-opacity:1;stroke-dasharray:none"
       id="path224"
       inkscape:connector-curvature="0" /><path
       d="m 244.952,102.345 0.543,0.347 0.543,0.258 0.542,0.334 0.542,-0.244 0.543,-0.644 0.542,-1.029 0.543,-0.733 0.542,-0.231 0.543,-0.5921 0.542,-0.4238 0.543,-0.193 0.542,-0.5531 0.543,-0.5148 0.542,-0.309 0.543,-0.1801 0.542,-0.1031 0.543,-0.2051 0.542,-0.309 0.543,-0.4629 0.542,0.1801 0.543,0.309 0.542,-0.682 0.543,1.9941 0.543,2.3148 0.542,0.411 0.542,-1.3629 0.543,-1.2731 0.542,-1.7109 0.543,0.3988 0.542,-0.1679 0.543,-0.6301 0.542,1.2609 0.543,0.7711 0.542,0.309 0.543,-1.2348 0.542,-0.9769 0.543,0.0379 0.542,-0.025 0.543,0.6558 0.542,0.45 0.543,-0.116 0.542,-0.6301 0.543,-0.4367 0.543,-0.091 0.542,0.091 0.543,0.45 0.542,0.566 0.542,0.3598 0.543,0.193"
       style="fill:none;stroke:#585858;stroke-width:1;stroke-linecap:butt;stroke-linejoin:bevel;stroke-miterlimit:10;stroke-opacity:1;stroke-dasharray:none"
       id="path226"
       inkscape:connector-curvature="0" /><path
       d="m 271.535,97.9719 0.542,0.4371 0.543,0.2832 0.542,0.2058 0.543,-0.1421 0.542,0.489 0.543,0.9781 0.542,1.067 0.543,0.206 0.542,-0.965 0.543,-0.6169 0.543,-1.8262 0.542,-1.2481 0.542,0.9 0.543,0.2192 0.542,-0.8231 0.543,0.2442 0.543,0.6687 0.542,-1.634 0.542,1.6731 0.543,0.3211 0.542,-0.9 0.543,-0.9649 0.542,0.0899 0.543,-0.141 0.542,0.205 0.543,0.4629 0.542,0.1551 0.543,-0.2699 0.542,-0.309 0.543,-0.0641 0.542,0.2442 0.543,0.4887 0.543,0.3601 0.542,0.077 0.542,0.2058 0.543,-0.2828 0.542,-0.425 0.543,-0.141 0.543,-0.1668 0.542,0.6688 0.542,1.0539 0.543,0.1293 0.542,0.5269 0.543,-0.591 0.542,-1.1063 0.543,0.334 0.542,0.2063 0.543,0.4109 0.542,-0.4238"
       style="fill:none;stroke:#585858;stroke-width:1;stroke-linecap:butt;stroke-linejoin:bevel;stroke-miterlimit:10;stroke-opacity:1;stroke-dasharray:none"
       id="path228"
       inkscape:connector-curvature="0" /><path
       d="m 298.117,98.2422 0.543,-0.3731 0.542,-0.682 0.543,0.0391 0.542,0.3976 0.543,-0.9898 0.542,0.1539 0.543,1.0293 0.542,0.6437 0.543,-0.116 0.543,-0.6179 0.542,-0.3469 0.543,-0.0129 0.542,0.0769 0.542,-0.4882 0.543,-0.245 0.542,0.1672 0.543,-0.1543 0.542,-0.2699 0.543,-0.0258 0.542,-0.0769 0.543,0.2957 0.542,0.6043 0.543,1.4019 0.542,1.8399 0.543,1.453 0.543,0.026 0.542,-1.942 0.542,-3.062 0.543,2.1609 0.542,2.3281 0.543,0.888 0.543,-0.656 0.542,-0.193 0.543,1.325 0.542,2.032 0.542,1.286 0.543,0.026 0.542,-0.759 0.543,-1.106 0.542,-0.45 0.543,0.116 0.542,0.964 0.543,0.746 0.542,0.361 0.543,-0.373 0.542,-1.184 0.543,-1.312 0.543,-0.862 0.542,-0.398"
       style="fill:none;stroke:#585858;stroke-width:1;stroke-linecap:butt;stroke-linejoin:bevel;stroke-miterlimit:10;stroke-opacity:1;stroke-dasharray:none"
       id="path230"
       inkscape:connector-curvature="0" /><path
       d="m 324.7,101.908 0.542,0.18 0.543,0.116 0.542,0.27 0.543,0.437 0.543,0.566 0.542,0.489 0.542,-0.129 0.543,-0.296 0.542,-0.218 0.543,0.154 0.542,0.347 0.543,0.27 0.542,0.283 0.543,1.068 0.542,0.566 0.543,-0.618 0.542,-1.157 0.543,-0.978 0.542,-2.096 0.543,-1.3382 0.542,-0.9898 0.543,0.8101 0.542,-0.2191 0.543,-1.5051 0.542,-0.4367 0.543,-0.0512 0.543,-0.0129 0.542,-0.5531 0.542,-0.5539 0.543,0.0258 0.542,0.0133 0.543,0.0636 0.542,0.0782 0.543,0.2179 0.542,0.3731 0.543,0.618 0.542,0.4628 0.543,0.334 0.542,0.2571 0.543,-0.2309 0.542,-0.9129 0.543,-0.3992 0.542,0.1672 0.543,0.257 0.542,1.2348 0.543,-0.7457 0.543,-1.1703 0.542,-0.5789 0.543,0.064"
       style="fill:none;stroke:#585858;stroke-width:1;stroke-linecap:butt;stroke-linejoin:bevel;stroke-miterlimit:10;stroke-opacity:1;stroke-dasharray:none"
       id="path232"
       inkscape:connector-curvature="0" /><path
       d="m 351.283,96.441 0.542,0.566 0.542,0.7078 0.543,0.2821 0.542,0.6441 0.543,-0.4629 0.542,-1.3769 0.543,1.8519 0.542,0.116 0.543,-1.0293 0.542,-1.4277 0.543,0.7211"
       style="fill:none;stroke:#585858;stroke-width:1;stroke-linecap:butt;stroke-linejoin:bevel;stroke-miterlimit:10;stroke-opacity:1;stroke-dasharray:none"
       id="path234"
       inkscape:connector-curvature="0" /><path
       d="m 297.25,205.25 50.25,0 0,74.25 -50.25,0 0,-74.25 z"
       style="fill:#ffffff;fill-opacity:1;fill-rule:nonzero;stroke:none"
       id="path236"
       inkscape:connector-curvature="0" /><g
       id="g238"><text
   transform="matrix(1,0,0,-1,337.802,269.893)"
   id="text240"><tspan
     style="font-size:9px;font-variant:normal;writing-mode:lr-tb;fill:#202020;fill-opacity:1;fill-rule:nonzero;stroke:none;font-family:mwa_cmr10-Identity;-inkscape-font-specification:mwa_cmr10-Identity-H"
     x="0"
     y="0"
     id="tspan242" /></text>

<text
   transform="matrix(1,0,0,-1,336.23013,269.893)"
   id="text244"><tspan
     style="font-size:9px;font-variant:normal;writing-mode:lr-tb;fill:#202020;fill-opacity:1;fill-rule:nonzero;stroke:none;font-family:mwa_cmmi10-Identity;-inkscape-font-specification:mwa_cmmi10-Identity-H"
     x="0"
     y="0"
     id="tspan246" /></text>

</g><path
       d="m 303.247,272.053 29.985,0"
       style="fill:none;stroke:#5c5c5c;stroke-width:1;stroke-linecap:square;stroke-linejoin:miter;stroke-miterlimit:10;stroke-opacity:1;stroke-dasharray:none"
       id="path248"
       inkscape:connector-curvature="0" /><g
       id="g250"><text
   transform="matrix(1,0,0,-1,337.848,258.52)"
   id="text252"><tspan
     style="font-size:9px;font-variant:normal;writing-mode:lr-tb;fill:#202020;fill-opacity:1;fill-rule:nonzero;stroke:none;font-family:mwa_cmr10-Identity;-inkscape-font-specification:mwa_cmr10-Identity-H"
     x="0"
     y="0"
     id="tspan254" /></text>

<text
   transform="matrix(1,0,0,-1,336.23003,258.52)"
   id="text256"><tspan
     style="font-size:9px;font-variant:normal;writing-mode:lr-tb;fill:#202020;fill-opacity:1;fill-rule:nonzero;stroke:none;font-family:mwa_cmmi10-Identity;-inkscape-font-specification:mwa_cmmi10-Identity-H"
     x="0"
     y="0"
     id="tspan258" /></text>

</g><path
       d="m 303.247,260.68 29.985,0"
       style="fill:none;stroke:#b8b8b8;stroke-width:1;stroke-linecap:square;stroke-linejoin:miter;stroke-miterlimit:10;stroke-opacity:1;stroke-dasharray:none"
       id="path260"
       inkscape:connector-curvature="0" /><g
       id="g262"><text
   transform="matrix(1,0,0,-1,337.771,247.148)"
   id="text264"><tspan
     style="font-size:9px;font-variant:normal;writing-mode:lr-tb;fill:#202020;fill-opacity:1;fill-rule:nonzero;stroke:none;font-family:mwa_cmr10-Identity;-inkscape-font-specification:mwa_cmr10-Identity-H"
     x="0"
     y="0"
     id="tspan266" /></text>

<text
   transform="matrix(1,0,0,-1,336.22998,247.148)"
   id="text268"><tspan
     style="font-size:9px;font-variant:normal;writing-mode:lr-tb;fill:#202020;fill-opacity:1;fill-rule:nonzero;stroke:none;font-family:mwa_cmmi10-Identity;-inkscape-font-specification:mwa_cmmi10-Identity-H"
     x="0"
     y="0"
     id="tspan270" /></text>

</g><path
       d="m 303.247,249.308 29.985,0"
       style="fill:none;stroke:#a5a5a5;stroke-width:1;stroke-linecap:square;stroke-linejoin:miter;stroke-miterlimit:10;stroke-opacity:1;stroke-dasharray:none"
       id="path272"
       inkscape:connector-curvature="0" /><g
       id="g274"><text
   transform="matrix(1,0,0,-1,337.968,237.322)"
   id="text276"><tspan
     style="font-size:9px;font-variant:normal;writing-mode:lr-tb;fill:#202020;fill-opacity:1;fill-rule:nonzero;stroke:none;font-family:mwa_cmr10-Identity;-inkscape-font-specification:mwa_cmr10-Identity-H"
     x="0"
     y="0"
     id="tspan278" /></text>

<text
   transform="matrix(1,0,0,-1,336.23011,234.947)"
   id="text280"><tspan
     style="font-size:9px;font-variant:normal;writing-mode:lr-tb;fill:#202020;fill-opacity:1;fill-rule:nonzero;stroke:none;font-family:mwb_cmmi10-Identity;-inkscape-font-specification:mwb_cmmi10-Identity-H"
     x="0"
     y="0"
     id="tspan282" /></text>

<text
   transform="matrix(1,0,0,-1,340.45511,233.597)"
   id="text284"><tspan
     style="font-size:6px;font-variant:normal;writing-mode:lr-tb;fill:#202020;fill-opacity:1;fill-rule:nonzero;stroke:none;font-family:mwa_cmmi10-Identity;-inkscape-font-specification:mwa_cmmi10-Identity-H"
     x="0"
     y="0"
     id="tspan286" /></text>

</g><path
       d="m 303.247,237.52 29.985,0"
       style="fill:none;stroke:#959595;stroke-width:1;stroke-linecap:square;stroke-linejoin:miter;stroke-miterlimit:10;stroke-opacity:1;stroke-dasharray:none"
       id="path288"
       inkscape:connector-curvature="0" /><g
       id="g290"><text
   transform="matrix(1,0,0,-1,337.968,225.119)"
   id="text292"><tspan
     style="font-size:9px;font-variant:normal;writing-mode:lr-tb;fill:#202020;fill-opacity:1;fill-rule:nonzero;stroke:none;font-family:mwa_cmr10-Identity;-inkscape-font-specification:mwa_cmr10-Identity-H"
     x="0"
     y="0"
     id="tspan294" /></text>

<text
   transform="matrix(1,0,0,-1,336.23011,222.74361)"
   id="text296"><tspan
     style="font-size:9px;font-variant:normal;writing-mode:lr-tb;fill:#202020;fill-opacity:1;fill-rule:nonzero;stroke:none;font-family:mwb_cmmi10-Identity;-inkscape-font-specification:mwb_cmmi10-Identity-H"
     x="0"
     y="0"
     id="tspan298" /></text>

<text
   transform="matrix(1,0,0,-1,340.45511,221.394)"
   id="text300"><tspan
     style="font-size:6px;font-variant:normal;writing-mode:lr-tb;fill:#202020;fill-opacity:1;fill-rule:nonzero;stroke:none;font-family:mwa_cmmi10-Identity;-inkscape-font-specification:mwa_cmmi10-Identity-H"
     x="0"
     y="0"
     id="tspan302" /></text>

</g><path
       d="m 303.247,225.316 29.985,0"
       style="fill:none;stroke:#bababa;stroke-width:1;stroke-linecap:square;stroke-linejoin:miter;stroke-miterlimit:10;stroke-opacity:1;stroke-dasharray:none"
       id="path304"
       inkscape:connector-curvature="0" /><g
       id="g306"><text
   transform="matrix(1,0,0,-1,337.968,212.915)"
   id="text308"><tspan
     style="font-size:9px;font-variant:normal;writing-mode:lr-tb;fill:#202020;fill-opacity:1;fill-rule:nonzero;stroke:none;font-family:mwa_cmr10-Identity;-inkscape-font-specification:mwa_cmr10-Identity-H"
     x="0"
     y="0"
     id="tspan310" /></text>

<text
   transform="matrix(1,0,0,-1,336.23011,210.54)"
   id="text312"><tspan
     style="font-size:9px;font-variant:normal;writing-mode:lr-tb;fill:#202020;fill-opacity:1;fill-rule:nonzero;stroke:none;font-family:mwb_cmmi10-Identity;-inkscape-font-specification:mwb_cmmi10-Identity-H"
     x="0"
     y="0"
     id="tspan314" /></text>

<text
   transform="matrix(1,0,0,-1,340.45511,209.19)"
   id="text316"><tspan
     style="font-size:6px;font-variant:normal;writing-mode:lr-tb;fill:#202020;fill-opacity:1;fill-rule:nonzero;stroke:none;font-family:mwa_cmmi10-Identity;-inkscape-font-specification:mwa_cmmi10-Identity-H"
     x="0"
     y="0"
     id="tspan318" /></text>

</g><path
       d="m 303.247,213.113 29.985,0"
       style="fill:none;stroke:#585858;stroke-width:1;stroke-linecap:square;stroke-linejoin:miter;stroke-miterlimit:10;stroke-opacity:1;stroke-dasharray:none"
       id="path320"
       inkscape:connector-curvature="0" /><path
       d="m 297.25,205.25 0,74.25 50.25,0 0,-74.25 -50.25,0"
       style="fill:none;stroke:#414141;stroke-width:0.75;stroke-linecap:square;stroke-linejoin:miter;stroke-miterlimit:10;stroke-opacity:1;stroke-dasharray:none"
       id="path322"
       inkscape:connector-curvature="0" /><g
       id="g252"
       transform="matrix(0.65766557,0,0,0.77980328,124.7136,74.6207)"><text
   transform="matrix(1,0,0,-1,325.8,249.6)"
   id="text254"><tspan
     style="font-size:10px;font-variant:normal;font-weight:normal;writing-mode:lr-tb;fill:#202020;fill-opacity:1;fill-rule:nonzero;stroke:none;font-family:mwa_cmr10;-inkscape-font-specification:mwa_cmr10"
     x="0"
     y="0"
     id="tspan256"></tspan></text>

<text
   transform="matrix(1,0,0,-1,323.4,249.6)"
   id="text258"><tspan
     style="font-size:10px;font-variant:normal;font-weight:normal;writing-mode:lr-tb;fill:#202020;fill-opacity:1;fill-rule:nonzero;stroke:none;font-family:mwa_cmmi10;-inkscape-font-specification:mwa_cmmi10"
     x="0"
     y="0"
     id="tspan260">x</tspan></text>

</g><g
       id="g264"
       transform="matrix(0.65766557,0,0,0.77980328,124.7136,74.6207)"><text
   transform="matrix(1,0,0,-1,325.8,237.6)"
   id="text266"><tspan
     style="font-size:10px;font-variant:normal;font-weight:normal;writing-mode:lr-tb;fill:#202020;fill-opacity:1;fill-rule:nonzero;stroke:none;font-family:mwa_cmr10;-inkscape-font-specification:mwa_cmr10"
     x="0"
     y="0"
     id="tspan268"></tspan></text>

<text
   transform="matrix(1,0,0,-1,323.4,237.6)"
   id="text270"><tspan
     style="font-size:10px;font-variant:normal;font-weight:normal;writing-mode:lr-tb;fill:#202020;fill-opacity:1;fill-rule:nonzero;stroke:none;font-family:mwa_cmmi10;-inkscape-font-specification:mwa_cmmi10"
     x="0"
     y="0"
     id="tspan272">y</tspan></text>

</g><g
       id="g276"
       transform="matrix(0.65766557,0,0,0.77980328,124.7136,73.0207)"><text
   transform="matrix(1,0,0,-1,325.8,224.8)"
   id="text278"><tspan
     style="font-size:10px;font-variant:normal;font-weight:normal;writing-mode:lr-tb;fill:#202020;fill-opacity:1;fill-rule:nonzero;stroke:none;font-family:mwa_cmr10;-inkscape-font-specification:mwa_cmr10"
     x="0"
     y="0"
     id="tspan280"></tspan></text>

<text
   transform="matrix(1,0,0,-1,323.4,224.8)"
   id="text282"><tspan
     style="font-size:10px;font-variant:normal;font-weight:normal;writing-mode:lr-tb;fill:#202020;fill-opacity:1;fill-rule:nonzero;stroke:none;font-family:mwa_cmmi10;-inkscape-font-specification:mwa_cmmi10"
     x="0"
     y="0"
     id="tspan284">z</tspan></text>

</g><g
       id="g288"
       transform="matrix(0.65766557,0,0,0.77980328,124.7136,73.0207)"><text
   transform="matrix(1,0,0,-1,325.8,212)"
   id="text290"><tspan
     style="font-size:10px;font-variant:normal;font-weight:normal;writing-mode:lr-tb;fill:#202020;fill-opacity:1;fill-rule:nonzero;stroke:none;font-family:mwa_cmr10;-inkscape-font-specification:mwa_cmr10"
     x="0"
     y="0"
     id="tspan292"></tspan></text>

<text
   transform="matrix(1,0,0,-1,323.4,209.6)"
   id="text294"><tspan
     style="font-size:10px;font-variant:normal;font-weight:normal;writing-mode:lr-tb;fill:#202020;fill-opacity:1;fill-rule:nonzero;stroke:none;font-family:mwb_cmmi10;-inkscape-font-specification:mwb_cmmi10"
     x="0"
     y="0"
     id="tspan296"></tspan></text>

<text
   transform="matrix(1,0,0,-1,329,208)"
   id="text298"><tspan
     style="font-size:7px;font-variant:normal;font-weight:normal;writing-mode:lr-tb;fill:#202020;fill-opacity:1;fill-rule:nonzero;stroke:none;font-family:mwa_cmmi10;-inkscape-font-specification:mwa_cmmi10"
     x="0"
     y="0"
     id="tspan300">x</tspan></text>

</g><g
       id="g304"
       transform="matrix(0.65766557,0,0,0.77980328,124.7136,74.6207)"><text
   transform="matrix(1,0,0,-1,325.8,195.2)"
   id="text306"><tspan
     style="font-size:10px;font-variant:normal;font-weight:normal;writing-mode:lr-tb;fill:#202020;fill-opacity:1;fill-rule:nonzero;stroke:none;font-family:mwa_cmr10;-inkscape-font-specification:mwa_cmr10"
     x="0"
     y="0"
     id="tspan308"></tspan></text>

<text
   transform="matrix(1,0,0,-1,323.4,192.8)"
   id="text310"><tspan
     style="font-size:10px;font-variant:normal;font-weight:normal;writing-mode:lr-tb;fill:#202020;fill-opacity:1;fill-rule:nonzero;stroke:none;font-family:mwb_cmmi10;-inkscape-font-specification:mwb_cmmi10"
     x="0"
     y="0"
     id="tspan312"></tspan></text>

<text
   transform="matrix(1,0,0,-1,329,191.2)"
   id="text314"><tspan
     style="font-size:7px;font-variant:normal;font-weight:normal;writing-mode:lr-tb;fill:#202020;fill-opacity:1;fill-rule:nonzero;stroke:none;font-family:mwa_cmmi10;-inkscape-font-specification:mwa_cmmi10"
     x="0"
     y="0"
     id="tspan316">y</tspan></text>

</g><g
       id="g320"
       transform="matrix(0.65766557,0,0,0.77980328,124.7136,74.6207)"><text
   transform="matrix(1,0,0,-1,325.8,176.8)"
   id="text322"><tspan
     style="font-size:10px;font-variant:normal;font-weight:normal;writing-mode:lr-tb;fill:#202020;fill-opacity:1;fill-rule:nonzero;stroke:none;font-family:mwa_cmr10;-inkscape-font-specification:mwa_cmr10"
     x="0"
     y="0"
     id="tspan324"></tspan></text>

<text
   transform="matrix(1,0,0,-1,323.4,174.4)"
   id="text326"><tspan
     style="font-size:10px;font-variant:normal;font-weight:normal;writing-mode:lr-tb;fill:#202020;fill-opacity:1;fill-rule:nonzero;stroke:none;font-family:mwb_cmmi10;-inkscape-font-specification:mwb_cmmi10"
     x="0"
     y="0"
     id="tspan328"></tspan></text>

<text
   transform="matrix(1,0,0,-1,329,172.8)"
   id="text330"><tspan
     style="font-size:7px;font-variant:normal;font-weight:normal;writing-mode:lr-tb;fill:#202020;fill-opacity:1;fill-rule:nonzero;stroke:none;font-family:mwa_cmmi10;-inkscape-font-specification:mwa_cmmi10"
     x="0"
     y="0"
     id="tspan332">z</tspan></text>

</g></g></svg>