<?xml version="1.0" encoding="UTF-8" standalone="no"?>
<!-- Created with Inkscape (http://www.inkscape.org/) -->

<svg
   xmlns:dc="http://purl.org/dc/elements/1.1/"
   xmlns:cc="http://creativecommons.org/ns#"
   xmlns:rdf="http://www.w3.org/1999/02/22-rdf-syntax-ns#"
   xmlns:svg="http://www.w3.org/2000/svg"
   xmlns="http://www.w3.org/2000/svg"
   xmlns:sodipodi="http://sodipodi.sourceforge.net/DTD/sodipodi-0.dtd"
   xmlns:inkscape="http://www.inkscape.org/namespaces/inkscape"
   id="svg2"
   version="1.1"
   inkscape:version="0.48.4 r9939"
   width="428.75"
   height="338.75"
   xml:space="preserve"
   sodipodi:docname="human_walk2-crop.pdf"><metadata
     id="metadata8"><rdf:RDF><cc:Work
         rdf:about=""><dc:format>image/svg+xml</dc:format><dc:type
           rdf:resource="http://purl.org/dc/dcmitype/StillImage" /><dc:title></dc:title></cc:Work></rdf:RDF></metadata><defs
     id="defs6"><clipPath
       clipPathUnits="userSpaceOnUse"
       id="clipPath18"><path
         d="M 0,0 612,0 612,792 0,792 0,0 z"
         id="path20" /></clipPath><clipPath
       clipPathUnits="userSpaceOnUse"
       id="clipPath28"><path
         d="m 0,7.63e-6 521.99999,0 L 521.99999,386 0,386 0,7.63e-6 z"
         id="path30" /></clipPath><clipPath
       clipPathUnits="userSpaceOnUse"
       id="clipPath38"><path
         d="m 0,7.63e-6 521.99999,0 L 521.99999,386 0,386 0,7.63e-6 z"
         id="path40" /></clipPath></defs><sodipodi:namedview
     pagecolor="#ffffff"
     bordercolor="#666666"
     borderopacity="1"
     objecttolerance="10"
     gridtolerance="10"
     guidetolerance="10"
     inkscape:pageopacity="0"
     inkscape:pageshadow="2"
     inkscape:window-width="1280"
     inkscape:window-height="1002"
     id="namedview4"
     showgrid="false"
     inkscape:zoom="1.3933579"
     inkscape:cx="214.375"
     inkscape:cy="169.375"
     inkscape:window-x="-8"
     inkscape:window-y="-7"
     inkscape:window-maximized="1"
     inkscape:current-layer="g10" /><g
     id="g10"
     inkscape:groupmode="layer"
     inkscape:label="human_walk2-crop"
     transform="matrix(1.25,0,0,-1.25,0,338.75)"><g
       id="g14"
       transform="translate(-128,-252)"><g
         clip-path="url(#clipPath18)"
         id="g16"><g
           transform="matrix(0.24,0,0,-0.24,0,792)"
           id="g22"><g
             transform="matrix(3.1250001,0,0,3.1250001,459.375,1046.875)"
             id="g24"><g
               clip-path="url(#clipPath28)"
               id="g26"><path
                 inkscape:connector-curvature="0"
                 id="path32"
                 style="fill:#ffffff;fill-opacity:1;fill-rule:nonzero;stroke:none"
                 d="M 0,0 522,0 522,386 0,386 0,0 z" /></g></g><g
             transform="matrix(3.1250001,0,0,3.1250001,459.375,1046.875)"
             id="g34"><g
               clip-path="url(#clipPath38)"
               id="g36"><path
                 inkscape:connector-curvature="0"
                 id="path42"
                 style="fill:#ffffff;fill-opacity:1;fill-rule:nonzero;stroke:none"
                 d="M 0,0 522,0 522,386 0,386 0,0 z" /></g></g><g
             transform="matrix(3.1250001,0,0,3.1250001,459.375,1046.875)"
             id="g44"><path
               inkscape:connector-curvature="0"
               id="path46"
               style="fill:#ffffff;fill-opacity:1;fill-rule:nonzero;stroke:none"
               d="m 68,344 404,0 0,-315 -404,0 0,315 z" /></g><g
             id="g48"><g
               transform="matrix(3.1250001,0,0,3.1250001,1303.125,2189.9984)"
               id="g50"><text
                 id="text52"
                 transform="translate(-60.633545,13.92334)"><tspan
                   id="tspan54"
                   sodipodi:role="line"
                   y="0"
                   x="0 10.005 18.344999 30.84 39.18 42.509998 50.849998 55.02 65.849998 74.190002 86.684998 95.025002 103.365"
                   style="font-size:15px;font-variant:normal;font-weight:normal;writing-mode:lr-tb;fill:#262626;fill-opacity:1;fill-rule:nonzero;stroke:none;font-family:Helvetica;-inkscape-font-specification:Helvetica">Sample Number</tspan></text>
</g></g><g
             transform="matrix(3.1250001,0,0,3.1250001,459.375,1046.875)"
             id="g56"><path
               inkscape:connector-curvature="0"
               id="path58"
               style="fill:none;stroke:#262626;stroke-width:1;stroke-linecap:square;stroke-linejoin:miter;stroke-miterlimit:10;stroke-opacity:1;stroke-dasharray:none"
               d="m 68,344 404,0" /></g><g
             transform="matrix(3.1250001,0,0,3.1250001,459.375,1046.875)"
             id="g60"><path
               inkscape:connector-curvature="0"
               id="path62"
               style="fill:none;stroke:#262626;stroke-width:1;stroke-linecap:square;stroke-linejoin:miter;stroke-miterlimit:10;stroke-opacity:1;stroke-dasharray:none"
               d="m 68,344 0,-4.04001" /></g><g
             transform="matrix(3.1250001,0,0,3.1250001,459.375,1046.875)"
             id="g64"><path
               inkscape:connector-curvature="0"
               id="path66"
               style="fill:none;stroke:#262626;stroke-width:1;stroke-linecap:square;stroke-linejoin:miter;stroke-miterlimit:10;stroke-opacity:1;stroke-dasharray:none"
               d="m 135.33333,344 0,-4.04001" /></g><g
             transform="matrix(3.1250001,0,0,3.1250001,459.375,1046.875)"
             id="g68"><path
               inkscape:connector-curvature="0"
               id="path70"
               style="fill:none;stroke:#262626;stroke-width:1;stroke-linecap:square;stroke-linejoin:miter;stroke-miterlimit:10;stroke-opacity:1;stroke-dasharray:none"
               d="m 202.66667,344 0,-4.04001" /></g><g
             transform="matrix(3.1250001,0,0,3.1250001,459.375,1046.875)"
             id="g72"><path
               inkscape:connector-curvature="0"
               id="path74"
               style="fill:none;stroke:#262626;stroke-width:1;stroke-linecap:square;stroke-linejoin:miter;stroke-miterlimit:10;stroke-opacity:1;stroke-dasharray:none"
               d="m 270,344 0,-4.04001" /></g><g
             transform="matrix(3.1250001,0,0,3.1250001,459.375,1046.875)"
             id="g76"><path
               inkscape:connector-curvature="0"
               id="path78"
               style="fill:none;stroke:#262626;stroke-width:1;stroke-linecap:square;stroke-linejoin:miter;stroke-miterlimit:10;stroke-opacity:1;stroke-dasharray:none"
               d="m 337.33334,344 0,-4.04001" /></g><g
             transform="matrix(3.1250001,0,0,3.1250001,459.375,1046.875)"
             id="g80"><path
               inkscape:connector-curvature="0"
               id="path82"
               style="fill:none;stroke:#262626;stroke-width:1;stroke-linecap:square;stroke-linejoin:miter;stroke-miterlimit:10;stroke-opacity:1;stroke-dasharray:none"
               d="m 404.66666,344 0,-4.04001" /></g><g
             transform="matrix(3.1250001,0,0,3.1250001,459.375,1046.875)"
             id="g84"><path
               inkscape:connector-curvature="0"
               id="path86"
               style="fill:none;stroke:#262626;stroke-width:1;stroke-linecap:square;stroke-linejoin:miter;stroke-miterlimit:10;stroke-opacity:1;stroke-dasharray:none"
               d="m 472,344 0,-4.04001" /></g><g
             id="g88"><g
               transform="matrix(3.1250001,0,0,3.1250001,671.875,2138.5417)"
               id="g90"><text
                 id="text92"
                 transform="translate(-4.135498,12.066895)"><tspan
                   id="tspan94"
                   y="0"
                   x="0"
                   style="font-size:13px;font-variant:normal;font-weight:normal;writing-mode:lr-tb;fill:#262626;fill-opacity:1;fill-rule:nonzero;stroke:none;font-family:Helvetica;-inkscape-font-specification:Helvetica">0</tspan></text>
</g></g><g
             id="g96"><g
               transform="matrix(3.1250001,0,0,3.1250001,882.29166,2138.5417)"
               id="g98"><text
                 id="text100"
                 transform="translate(-12.406494,12.066895)"><tspan
                   id="tspan102"
                   sodipodi:role="line"
                   y="0"
                   x="0 7.2280002 14.456"
                   style="font-size:13px;font-variant:normal;font-weight:normal;writing-mode:lr-tb;fill:#262626;fill-opacity:1;fill-rule:nonzero;stroke:none;font-family:Helvetica;-inkscape-font-specification:Helvetica">100</tspan></text>
</g></g><g
             id="g104"><g
               transform="matrix(3.1250001,0,0,3.1250001,1092.7084,2138.5417)"
               id="g106"><text
                 id="text108"
                 transform="translate(-12.406494,12.066895)"><tspan
                   id="tspan110"
                   sodipodi:role="line"
                   y="0"
                   x="0 7.2280002 14.456"
                   style="font-size:13px;font-variant:normal;font-weight:normal;writing-mode:lr-tb;fill:#262626;fill-opacity:1;fill-rule:nonzero;stroke:none;font-family:Helvetica;-inkscape-font-specification:Helvetica">200</tspan></text>
</g></g><g
             id="g112"><g
               transform="matrix(3.1250001,0,0,3.1250001,1303.125,2138.5417)"
               id="g114"><text
                 id="text116"
                 transform="translate(-12.406494,12.066895)"><tspan
                   id="tspan118"
                   sodipodi:role="line"
                   y="0"
                   x="0 7.2280002 14.456"
                   style="font-size:13px;font-variant:normal;font-weight:normal;writing-mode:lr-tb;fill:#262626;fill-opacity:1;fill-rule:nonzero;stroke:none;font-family:Helvetica;-inkscape-font-specification:Helvetica">300</tspan></text>
</g></g><g
             id="g120"><g
               transform="matrix(3.1250001,0,0,3.1250001,1513.5417,2138.5417)"
               id="g122"><text
                 id="text124"
                 transform="translate(-12.406494,12.066895)"><tspan
                   id="tspan126"
                   sodipodi:role="line"
                   y="0"
                   x="0 7.2280002 14.456"
                   style="font-size:13px;font-variant:normal;font-weight:normal;writing-mode:lr-tb;fill:#262626;fill-opacity:1;fill-rule:nonzero;stroke:none;font-family:Helvetica;-inkscape-font-specification:Helvetica">400</tspan></text>
</g></g><g
             id="g128"><g
               transform="matrix(3.1250001,0,0,3.1250001,1723.9583,2138.5417)"
               id="g130"><text
                 id="text132"
                 transform="translate(-12.406494,12.066895)"><tspan
                   id="tspan134"
                   sodipodi:role="line"
                   y="0"
                   x="0 7.2280002 14.456"
                   style="font-size:13px;font-variant:normal;font-weight:normal;writing-mode:lr-tb;fill:#262626;fill-opacity:1;fill-rule:nonzero;stroke:none;font-family:Helvetica;-inkscape-font-specification:Helvetica">500</tspan></text>
</g></g><g
             id="g136"><g
               transform="matrix(3.1250001,0,0,3.1250001,1934.375,2138.5417)"
               id="g138"><text
                 id="text140"
                 transform="translate(-12.406494,12.066895)"><tspan
                   id="tspan142"
                   sodipodi:role="line"
                   y="0"
                   x="0 7.2280002 14.456"
                   style="font-size:13px;font-variant:normal;font-weight:normal;writing-mode:lr-tb;fill:#262626;fill-opacity:1;fill-rule:nonzero;stroke:none;font-family:Helvetica;-inkscape-font-specification:Helvetica">600</tspan></text>
</g></g><g
             id="g144"><g
               transform="matrix(-1.4e-7,-3.1250001,3.1250001,-1.4e-7,576.3555,1629.6875)"
               id="g146"><text
                 id="text148"
                 transform="translate(-19.174805,-2.537598)"><tspan
                   id="tspan150"
                   sodipodi:role="line"
                   y="0"
                   x="0 10.83 19.17 22.5 26.67"
                   style="font-size:15px;font-variant:normal;font-weight:normal;writing-mode:lr-tb;fill:#262626;fill-opacity:1;fill-rule:nonzero;stroke:none;font-family:Helvetica;-inkscape-font-specification:Helvetica">Units</tspan></text>
</g></g><g
             transform="matrix(3.1250001,0,0,3.1250001,459.375,1046.875)"
             id="g152"><path
               inkscape:connector-curvature="0"
               id="path154"
               style="fill:none;stroke:#262626;stroke-width:1;stroke-linecap:square;stroke-linejoin:miter;stroke-miterlimit:10;stroke-opacity:1;stroke-dasharray:none"
               d="M 68,344 68,29" /></g><g
             transform="matrix(3.1250001,0,0,3.1250001,459.375,1046.875)"
             id="g156"><path
               inkscape:connector-curvature="0"
               id="path158"
               style="fill:none;stroke:#262626;stroke-width:1;stroke-linecap:square;stroke-linejoin:miter;stroke-miterlimit:10;stroke-opacity:1;stroke-dasharray:none"
               d="m 68,344 4.040001,0" /></g><g
             transform="matrix(3.1250001,0,0,3.1250001,459.375,1046.875)"
             id="g160"><path
               inkscape:connector-curvature="0"
               id="path162"
               style="fill:none;stroke:#262626;stroke-width:1;stroke-linecap:square;stroke-linejoin:miter;stroke-miterlimit:10;stroke-opacity:1;stroke-dasharray:none"
               d="m 68,299 4.040001,0" /></g><g
             transform="matrix(3.1250001,0,0,3.1250001,459.375,1046.875)"
             id="g164"><path
               inkscape:connector-curvature="0"
               id="path166"
               style="fill:none;stroke:#262626;stroke-width:1;stroke-linecap:square;stroke-linejoin:miter;stroke-miterlimit:10;stroke-opacity:1;stroke-dasharray:none"
               d="m 68,254 4.040001,0" /></g><g
             transform="matrix(3.1250001,0,0,3.1250001,459.375,1046.875)"
             id="g168"><path
               inkscape:connector-curvature="0"
               id="path170"
               style="fill:none;stroke:#262626;stroke-width:1;stroke-linecap:square;stroke-linejoin:miter;stroke-miterlimit:10;stroke-opacity:1;stroke-dasharray:none"
               d="m 68,209 4.040001,0" /></g><g
             transform="matrix(3.1250001,0,0,3.1250001,459.375,1046.875)"
             id="g172"><path
               inkscape:connector-curvature="0"
               id="path174"
               style="fill:none;stroke:#262626;stroke-width:1;stroke-linecap:square;stroke-linejoin:miter;stroke-miterlimit:10;stroke-opacity:1;stroke-dasharray:none"
               d="m 68,164 4.040001,0" /></g><g
             transform="matrix(3.1250001,0,0,3.1250001,459.375,1046.875)"
             id="g176"><path
               inkscape:connector-curvature="0"
               id="path178"
               style="fill:none;stroke:#262626;stroke-width:1;stroke-linecap:square;stroke-linejoin:miter;stroke-miterlimit:10;stroke-opacity:1;stroke-dasharray:none"
               d="m 68,119 4.040001,0" /></g><g
             transform="matrix(3.1250001,0,0,3.1250001,459.375,1046.875)"
             id="g180"><path
               inkscape:connector-curvature="0"
               id="path182"
               style="fill:none;stroke:#262626;stroke-width:1;stroke-linecap:square;stroke-linejoin:miter;stroke-miterlimit:10;stroke-opacity:1;stroke-dasharray:none"
               d="m 68,74 4.040001,0" /></g><g
             transform="matrix(3.1250001,0,0,3.1250001,459.375,1046.875)"
             id="g184"><path
               inkscape:connector-curvature="0"
               id="path186"
               style="fill:none;stroke:#262626;stroke-width:1;stroke-linecap:square;stroke-linejoin:miter;stroke-miterlimit:10;stroke-opacity:1;stroke-dasharray:none"
               d="m 68,29 4.040001,0" /></g><g
             id="g188"><g
               transform="matrix(3.1250001,0,0,3.1250001,655.20834,2121.875)"
               id="g190"><text
                 id="text192"
                 transform="translate(-21.23291,4.500488)"><tspan
                   id="tspan194"
                   sodipodi:role="line"
                   y="0"
                   x="0 4.329 11.557"
                   style="font-size:13px;font-variant:normal;font-weight:normal;writing-mode:lr-tb;fill:#262626;fill-opacity:1;fill-rule:nonzero;stroke:none;font-family:Helvetica;-inkscape-font-specification:Helvetica">-15</tspan></text>
</g></g><g
             id="g196"><g
               transform="matrix(3.1250001,0,0,3.1250001,655.20834,1981.25)"
               id="g198"><text
                 id="text200"
                 transform="translate(-21.23291,4.500488)"><tspan
                   id="tspan202"
                   sodipodi:role="line"
                   y="0"
                   x="0 4.329 11.557"
                   style="font-size:13px;font-variant:normal;font-weight:normal;writing-mode:lr-tb;fill:#262626;fill-opacity:1;fill-rule:nonzero;stroke:none;font-family:Helvetica;-inkscape-font-specification:Helvetica">-10</tspan></text>
</g></g><g
             id="g204"><g
               transform="matrix(3.1250001,0,0,3.1250001,655.20834,1840.625)"
               id="g206"><text
                 id="text208"
                 transform="translate(-12.961914,4.500488)"><tspan
                   id="tspan210"
                   sodipodi:role="line"
                   y="0"
                   x="0 4.329"
                   style="font-size:13px;font-variant:normal;font-weight:normal;writing-mode:lr-tb;fill:#262626;fill-opacity:1;fill-rule:nonzero;stroke:none;font-family:Helvetica;-inkscape-font-specification:Helvetica">-5</tspan></text>
</g></g><g
             id="g212"><g
               transform="matrix(3.1250001,0,0,3.1250001,655.20834,1700)"
               id="g214"><text
                 id="text216"
                 transform="translate(-8.270996,4.500488)"><tspan
                   id="tspan218"
                   y="0"
                   x="0"
                   style="font-size:13px;font-variant:normal;font-weight:normal;writing-mode:lr-tb;fill:#262626;fill-opacity:1;fill-rule:nonzero;stroke:none;font-family:Helvetica;-inkscape-font-specification:Helvetica">0</tspan></text>
</g></g><g
             id="g220"><g
               transform="matrix(3.1250001,0,0,3.1250001,655.20834,1559.375)"
               id="g222"><text
                 id="text224"
                 transform="translate(-8.270996,4.500488)"><tspan
                   id="tspan226"
                   y="0"
                   x="0"
                   style="font-size:13px;font-variant:normal;font-weight:normal;writing-mode:lr-tb;fill:#262626;fill-opacity:1;fill-rule:nonzero;stroke:none;font-family:Helvetica;-inkscape-font-specification:Helvetica">5</tspan></text>
</g></g><g
             id="g228"><g
               transform="matrix(3.1250001,0,0,3.1250001,655.20834,1418.75)"
               id="g230"><text
                 id="text232"
                 transform="translate(-16.541992,4.500488)"><tspan
                   id="tspan234"
                   sodipodi:role="line"
                   y="0"
                   x="0 7.2280002"
                   style="font-size:13px;font-variant:normal;font-weight:normal;writing-mode:lr-tb;fill:#262626;fill-opacity:1;fill-rule:nonzero;stroke:none;font-family:Helvetica;-inkscape-font-specification:Helvetica">10</tspan></text>
</g></g><g
             id="g236"><g
               transform="matrix(3.1250001,0,0,3.1250001,655.20834,1278.125)"
               id="g238"><text
                 id="text240"
                 transform="translate(-16.541992,4.500488)"><tspan
                   id="tspan242"
                   sodipodi:role="line"
                   y="0"
                   x="0 7.2280002"
                   style="font-size:13px;font-variant:normal;font-weight:normal;writing-mode:lr-tb;fill:#262626;fill-opacity:1;fill-rule:nonzero;stroke:none;font-family:Helvetica;-inkscape-font-specification:Helvetica">15</tspan></text>
</g></g><g
             id="g244"><g
               transform="matrix(3.1250001,0,0,3.1250001,655.20834,1137.5)"
               id="g246"><text
                 id="text248"
                 transform="translate(-16.541992,4.500488)"><tspan
                   id="tspan250"
                   sodipodi:role="line"
                   y="0"
                   x="0 7.2280002"
                   style="font-size:13px;font-variant:normal;font-weight:normal;writing-mode:lr-tb;fill:#262626;fill-opacity:1;fill-rule:nonzero;stroke:none;font-family:Helvetica;-inkscape-font-specification:Helvetica">20</tspan></text>
</g></g><g
             transform="matrix(3.1250001,0,0,3.1250001,459.375,1046.875)"
             id="g252"><path
               inkscape:connector-curvature="0"
               id="path254"
               style="fill:none;stroke:#ff0000;stroke-width:1.33333302;stroke-linecap:square;stroke-linejoin:miter;stroke-miterlimit:10;stroke-opacity:1;stroke-dasharray:none"
               d="m 68.673332,187.34601 0.673332,-0.072 0.673333,-0.864 0.673339,-0.18 0.673333,-0.72001 0.673332,0.93601 0.673332,-0.42301 0.673332,-1.04399 0.673333,-0.018 0.673332,-0.396 0.67334,-0.729 0.673332,-0.38699 0.673332,1.81799 0.673332,2.016 0.673332,2.241 0.673333,-0.33301 0.673332,-2.83499 0.67334,-4.563 0.673332,-1.25099 0.673332,1.74598 0.673332,2.95202 0.673333,1.54798 0.673332,1.35901 0.67334,-0.315 0.673332,-1.062 0.673332,0.009 0.673332,1.08901 0.673333,5.643 0.673332,4.15801 0.673332,-3.14101 0.67334,-2.78101 0.673332,0.99001 0.673332,2.74499 0.673332,0.33301 0.673333,-1.57499 0.673332,-2.27701 0.673332,1.26899 0.67334,2.66401 0.673332,-0.153 0.673332,1.593 0.673333,3.987 0.673332,1.71 0.673332,-0.027 0.673332,0.333 0.67334,0.081 0.673332,-1.206 0.673332,-1.971 0.673333,1.944 0.67333,2.33999 0.67333,-1.81799 0.67334,-9.621 0.67334,-8.478 0.67333,16.101 0.67333,7.90201 0.67333,-8.26201 0.67334,23.382 0.67333,2.637 0.67334,2.59201 0.67333,-9.08101 0.67333,-11.34 0.67333,-0.44099 0.67334,-6.35401 0.67333,23.823 0.67333,0.504 0.67334,-6.993 0.67333,-0.70199 0.67333,-14.79601 0.67334,5.34599 0.67333,0.063 0.67333,-1.719 0.67333,-3.46499 0.67334,14.52598 0.67334,2.18701 0.67333,-18.85501 0.67333,3.75301 0.67333,-0.89101 0.67333,0.63901 0.67334,1.467 0.67334,-1.278 0.67333,-1.89 0.67333,0.981 0.67333,-1.09799 0.67334,1.10699 0.67333,26.262 0.67333,-30.195 0.67334,-6.921 0.67333,-2.133 0.67333,4.71601 0.67334,9.94499 0.67334,1.30501 0.67332,-0.54902 0.67334,-6.26399 0.67333,2.73599 0.67333,-2.85299 0.67333,-10.86299 0.67334,1.332 0.67334,7.83899 0.67332,10.089 0.67334,-1.188 0.67333,-1.521 0.67334,-0.315 0.67332,2.673 0.67334,0.189 0.67334,-2.78999 0.67333,-2.28602 0.67334,-1.61099 0.67332,3.411 0.67334,2.682 0.67333,-3.042 0.67334,-2.42099 0.67334,0.459 0.67332,3.25799 0.67334,0.009 0.67332,17.829 0.67334,7.812 0.67334,-32.64299 0.67333,-0.77401 0.67334,26.667 0.67332,12.987 0.67334,-14.292 0.67333,-15.561 0.67334,-2.259 0.67334,0.234 0.67332,-2.79901 0.67334,3.50101 0.67333,14.19299 0.67334,9.31501 0.67332,0.837 0.67334,-8.27099 0.67334,-18.95401 0.67333,4.149 0.67333,0.531 0.67333,-6.17399 0.67334,-0.69301 0.67332,0.69301 0.67334,3.66299 0.67334,1.80899 0.67333,-1.071 0.67334,-0.71998 0.67332,-3.13201 0.67334,18.01799 0.67333,1.59301 0.67334,-0.657 0.67334,-15.87599 0.67332,-8.82001 0.67334,7.69501 0.67333,32.013 0.67334,-18.90001 0.67332,-18.594 0.67334,-0.09 0.67334,-1.692 0.67332,10.96199 0.67334,-7.461 0.67333,17.838 0.67334,7.24501 0.67332,-1.29601 0.67334,-19.25999 0.67334,-5.12101 0.67333,-0.85501 0.67334,8.93701 0.67332,-5.958 0.67334,-2.78099 0.67333,4.68899 0.67334,3.86099 0.67334,-1.16999 0.67332,-0.765 0.67334,1.845 0.67333,0.126 0.67333,-1.026 0.67333,0.198 0.67334,-0.477 0.67334,-1.053 0.67332,0.504 0.67334,0.89101 0.67333,0.306 0.67334,-2.50202 0.67332,-3.78 0.67334,22.38301 0.67334,8.325 0.67333,-4.158 0.67334,-26.60401 0.67332,3.60001 0.67334,19.026 0.67333,13.752 0.67334,-4.95 0.67334,-15.07499 0.67332,-10.017 0.67334,-5.96701 0.67332,24.264 0.67334,-1.962 0.67334,4.212 0.67333,2.304 0.67334,-6.57901 0.67332,-6.21899 0.67334,4.52699 0.67333,2.73601 0.67334,-5.562 0.67334,-1.863 0.67332,-17.901 0.67334,0.738 0.67333,21.18599 0.67334,4.07701 0.67332,-3.71701 0.67334,-20.60099 0.67334,1.179 0.67333,-1.512 0.67333,-0.621 0.67333,19.782 0.67334,0.072 0.67332,-20.052 0.67334,-0.405 0.67334,0.279 0.67333,21.11399 0.67334,-0.85499 0.67332,-20.58299 0.67334,1.59298 0.67333,2.43901 0.67334,-1.87201 0.67334,2.56501 0.67332,14.679 0.67334,3.56399 0.67333,-21.92399 0.67334,5.25599 0.67332,1.23301 0.67334,-2.448 0.67334,-0.036 0.67332,0.22499 0.67334,2.403 0.67333,1.06201 0.67334,-0.54 0.67332,-0.26101 0.67334,0.53101 0.67334,-0.59399 0.67333,-0.252 0.67334,0.081 0.67332,0.657 0.67334,-0.756 0.67333,0.27001 0.67334,-0.27001 0.67334,-0.144 0.67332,0.54 0.67334,-1.674 0.67333,-0.99901 0.67333,3.20401 0.67333,-1.944 0.67334,-0.60299 0.67334,2.67299 0.67332,-0.297 0.67334,-4.194 0.67333,-0.459 0.67334,-6.86701 0.67332,24.849 0.67334,18.43201 0.67334,-1.97099 0.67333,-6.52501 0.67334,-8.388 0.67332,-3.249 0.67334,-15.84899 0.67333,1.50299 0.67334,0.279 0.67334,19.60199 0.67332,6.291 0.67334,-2.69099 0.67332,-8.51399 0.67334,-16.18201 0.67334,3.384 0.67333,-0.576 0.67334,-3.519 0.67332,16.38001 0.67334,0.36 0.67333,-2.403 0.67334,-17.49601 0.67334,1.206 0.67332,1.92599 0.67334,-2.862 0.67333,17.72101 0.67334,1.62 0.67332,-1.278 0.67334,1.77299 0.67333,-2.40298 0.67334,-15.12902 0.67333,-1.47599 0.67334,22.69799 0.67331,-1.81799 0.67334,-16.659 0.67334,-8.67601 0.67334,3.38401 0.67334,17.658 0.67331,6.96601 0.67334,-1.017 0.67334,-1.39501 0.67334,-19.89 0.67331,1.19699 0.67334,-5.15699 0.67334,3.645 0.67334,5.373 0.67334,-7.317 0.67331,18.909 0.67334,-17.20799 0.67334,5.54399 0.67334,-0.441 0.67334,-0.027 0.67331,-2.71798 0.67334,0.44099 0.67334,-0.34199 0.67334,-1.57502 0.67334,-0.054 0.67331,1.65601 0.67334,2.169 0.67334,0.67499 0.67334,-3.222 0.67331,-0.018 0.67334,-3.384 0.67334,31.347 0.67334,-11.73601 0.67334,4.149 0.67331,9.666 0.67334,2.08802 0.67333,-11.19602 0.67334,-18.93599 0.67334,1.422 0.67331,0.63899 0.67334,-4.77899 0.67334,-3.285 0.67334,19.449 0.67331,0.135 0.67334,0.585 0.67334,-0.432 0.67334,-18.459 0.67334,2.304 0.67331,-2.637 0.67334,20.05201 0.67334,3.10499 0.67334,-2.08799 0.67334,-22.10401 0.67331,2.106 0.67334,-2.205 0.67334,18.01801 0.67334,0.26999 0.67331,1.05301 0.67334,-0.252 0.67334,-16.71302 0.67334,3.85201 0.67334,-5.418 0.67331,0.63 0.67334,1.98 0.67334,20.565 0.67334,17.24401 0.67334,-9.06301 0.67331,-14.625 0.67334,-13.63501 0.67334,0.11701 0.67334,-2.87999 0.67331,16.69499 0.67334,6.82201 0.67334,2.08799 0.67333,-27.04499 0.67334,8.73899 0.67331,-2.871 0.67334,1.14301 0.67334,12.89698 0.67334,5.85001 0.67334,-1.944 0.67331,-4.302 0.67334,-15.83099 0.67334,3.10499 0.67334,1.29601 0.67331,-0.027 0.67334,0.13499 0.67334,-2.23199 0.67334,2.412 0.67334,-0.144 0.67331,-2.961 0.67334,2.349 0.67334,-1.179 0.67334,2.37599 0.67334,-3.996 0.67331,-0.045 0.67334,14.34601 0.67334,7.929 0.67334,-0.90001 0.67334,-3.375 0.67331,-3.681 0.67334,-0.68399 0.67334,-17.964 0.67334,0.666 0.67331,17.019 0.67334,0.873 0.67334,-0.711 0.67334,-15.273 0.67334,-1.089 0.67331,16.659 0.67334,4.113 0.67333,4.833 0.67334,3.609 0.67334,-6.039 0.67331,-5.472 0.67334,-18.783 0.67334,1.188 0.67334,-2.17801 0.67331,0.46801 0.67334,-0.17099 0.67334,18.73799 0.67334,0.27 0.67334,-18.44099 0.67331,17.76599 0.67334,1.638 0.67334,0.477 0.67334,-0.576 0.67334,0.567 0.67331,-0.882 0.67334,-1.29599 0.67334,0.98999 0.67334,0.54001 0.67331,2.99699 0.67334,14.049 0.67334,-7.443 0.67334,-29.196 0.67334,7.43399 0.67331,-5.265 0.67334,-2.916 0.67334,2.64602 0.67334,6.11099 0.67334,-6.039 0.67331,-1.737 0.67334,3.744 0.67334,0.69299 0.67334,-0.27899 0.67331,3.681 0.67334,-3.86999 0.67334,-1.42202 0.67333,2.27701 0.67334,2.52001 0.67331,-2.502 0.67334,-2.58301 0.67334,1.80901 0.67334,1.692 0.67334,2.22299 0.67331,-1.76399 0.67334,0.79199 0.67334,-0.081 0.67334,-2.115 0.67331,0.828 0.67334,2.088 0.67334,-0.009 0.67334,-3.582 0.67334,2.988 0.67331,-5.50799 0.67334,23.265 0.67334,3.20399 0.67334,-22.338 0.67334,1.80001 0.67331,10.52099 0.67334,8.883 0.67334,-3.13201 0.67334,-23.625 0.67334,0.58501 0.67331,5.454 0.67334,-3.735 0.67334,4.374 0.67334,17.586 0.67331,3.636 0.67334,-3.249 0.67334,-3.95099 0.67334,-21.26702 0.67334,3.49201 0.67331,0.738 0.67334,-3.231 0.67333,19.62 0.67334,0.009 0.67334,-20.907 0.67331,1.76399 0.67334,1.95301 0.67334,-0.333 0.67334,-0.90901 0.67331,0.69301 0.67334,16.884 0.67334,2.682 0.67334,0.72 0.67334,0.765 0.67331,-5.67 0.67334,-12.03301 0.67334,-8.36999 0.67334,6.966 0.67334,19.60201 0.67331,-23.265 0.67334,6.93899 0.67334,-8.001 0.67334,-1.215 0.67331,8.748 0.67334,-4.14 0.67334,15.867 0.67334,7.083 0.67334,-7.308 0.67331,-15.138 0.67334,-5.54399 0.67334,2.097 0.67334,6.42599 0.67334,-1.449 0.67331,0.468 0.67334,0.99 0.67334,-3.303 0.67334,0.891 0.67331,3.609 0.67334,-0.432 0.67334,-0.099 0.67333,0.78298 0.67334,-1.79998 0.67331,1.34999 0.67334,-1.18801 0.67334,0.32401 0.67334,0.84599 0.67334,-3.63598 0.67331,14.99398 0.67334,5.14801 0.67334,4.932 0.67334,-8.919 0.67331,-20.889 0.67334,1.836 0.67334,6.12899 0.67334,-2.14199 0.67334,1.52101 0.67331,-6.51601 0.67334,0.657 0.67334,3.942 0.67334,0.12601 0.67334,3.09599 0.67331,-5.625 0.67334,17.31599 0.67334,0.27001 0.67334,-18.234 0.67334,5.499 0.67331,0.783 0.67334,-4.149 0.67334,14.427 0.67334,4.275 0.67331,0.86399 0.67334,-1.10699 0.67334,-2.151 0.67334,-2.34 0.67334,-17.793 0.67331,1.107 0.67334,-1.13401 0.67333,17.88302 0.67334,0.09 0.67334,1.845 0.67331,2.61901 0.67334,-1.42202 0.67334,-21.17698 0.67334,3.06 0.67331,0.819 0.67334,0.46798 0.67334,2.65502 0.67334,-1.332 0.67334,2.457 0.67331,-2.25901 0.67334,1.125 0.67334,-3.042 0.67334,1.21499 0.67334,13.41901 0.67331,0.43201 0.67334,2.53799 0.67334,-18.702 0.67334,5.27401 0.67331,-2.56501 0.67334,-3.96 0.67334,0.27 0.67334,5.19299 0.67334,-1.07099 0.67331,-0.405 0.67334,2.421 0.67334,-1.66501 0.67334,0.27901 0.67334,1.08901 0.67331,-2.79001 0.67334,0.414 0.67334,2.99701 0.67334,0.027 0.67331,-2.313 0.67334,-5.63401 0.67334,-0.26999 0.67333,3.528 0.67334,2.295 0.67331,-4.212 0.67334,32.418 0.67334,-25.695 0.67334,-3.906 0.67334,18.85499 0.67331,9.47701 0.67334,-0.48601 0.67334,-8.631 0.67334,-24.05699 0.67331,6.039 0.67334,-7.434 0.67334,6.075 0.67334,16.065 0.67334,7.884 0.67331,-3.34801 0.67334,-4.93199 L 472,202.646" /></g><g
             transform="matrix(3.1250001,0,0,3.1250001,459.375,1046.875)"
             id="g256"><path
               inkscape:connector-curvature="0"
               id="path258"
               style="fill:none;stroke:#ffbf00;stroke-width:1.33333302;stroke-linecap:square;stroke-linejoin:miter;stroke-miterlimit:10;stroke-opacity:1;stroke-dasharray:none"
               d="m 68.673332,123.761 0.673332,1.215 0.673333,-0.162 0.673339,-0.945 0.673333,-0.765 0.673332,0.666 0.673332,-1.314 0.673332,0.873 0.673333,0 0.673332,-1.27801 0.67334,-2.06999 0.673332,-0.576 0.673332,1.00799 0.673332,1.26001 0.673332,0.351 0.673333,0.252 0.673332,-1.84499 0.67334,-3.24002 0.673332,0.846 0.673332,2.92502 0.673332,3.86999 0.673333,0.081 0.673332,-4.01399 0.67334,5.247 0.673332,0.45 0.673332,-4.212 0.673332,4.29299 0.673333,2.92501 0.673332,-6.111 0.673332,-1.962 0.67334,6.14699 0.673332,2.49302 0.673332,-1.22402 0.673332,-1.79999 0.673333,-0.891 0.673332,2.772 0.673332,-1.944 0.67334,-2.214 0.673332,0.324 0.673332,1.044 0.673333,0.918 0.673332,-0.387 0.673332,-0.621 0.673332,-4.257 0.67334,-1.422 0.673332,3.276 0.673332,4.122 0.673333,-0.783 0.67333,-6.966 0.67333,-10.782 0.67334,-9.531006 0.67334,-1.727989 0.67333,4.482005 0.67333,12.627 0.67333,14.14799 0.67334,9.63899 0.67333,5.43601 0.67334,-3.987 0.67333,-13.509 0.67333,-12.789 0.67333,-2.43899 0.67334,3.47399 0.67333,1.368 0.67333,5.643 0.67334,5.976 0.67333,3.24901 0.67333,-0.72901 0.67334,-1.836 0.67333,-0.369 0.67333,-1.629 0.67333,-0.837 0.67334,0.639 0.67334,-1.341 0.67333,1.854 0.67333,0.14399 0.67333,-3.03299 0.67333,1.188 0.67334,2.025 0.67334,-4.815 0.67333,-2.85301 0.67333,-0.23399 0.67333,-0.693 0.67334,-3.42901 0.67333,-18.809988 0.67333,25.478998 0.67334,3.384 0.67333,6.039 0.67333,9.94499 0.67334,-11.75399 0.67334,-18.468 0.67332,1.656 0.67334,4.338 0.67333,5.472 0.67333,9.522 0.67333,5.823 0.67334,-2.34 0.67334,-4.49101 0.67332,-4.64399 0.67334,4.65299 0.67333,-0.93599 0.67334,-0.108 0.67332,-0.83699 0.67334,-0.09 0.67334,2.07899 0.67333,1.21502 0.67334,-2.75402 0.67332,-6.70499 0.67334,5.67901 0.67333,4.80598 0.67334,-8.40599 0.67334,-3.186 0.67332,2.583 0.67334,-2.26799 0.67332,-28.125003 0.67334,-21.069008 0.67334,38.151001 0.67333,14.589 0.67334,-10.269 0.67332,15.85799 0.67334,4.94101 0.67333,-12.132 0.67334,-5.913 0.67334,2.268 0.67332,3.645 0.67334,2.925 0.67333,3.276 0.67334,2.034 0.67332,4.815 0.67334,-0.873 0.67334,-6.381 0.67333,-0.99 0.67333,3.19501 0.67333,1.78199 0.67334,-3.456 0.67332,-3.123 0.67334,6.714 0.67334,-0.69301 0.67333,-1.60199 0.67334,-0.36 0.67332,-2.7 0.67334,-2.07 0.67333,-2.025 0.67334,-3.28499 0.67334,-4.76101 0.67332,-23.300998 0.67334,-19.907998 0.67333,29.996996 0.67334,11.82599 0.67332,2.91601 0.67334,20.484 0.67334,3.33001 0.67332,-19.71 L 171.02,111.8 l 0.67333,-0.51301 0.67334,0.78301 0.67332,9.62099 0.67334,6.21001 0.67334,1.071 0.67333,4.47299 0.67334,1.15201 0.67332,-3.438 0.67334,0.072 0.67333,3.942 0.67334,0.207 0.67334,-3.41101 0.67332,-2.90699 0.67334,-0.126 0.67333,2.43 0.67333,-3.555 0.67333,1.26 0.67334,1.143 0.67334,-4.03199 0.67332,0.68399 0.67334,3.546 0.67333,-4.707 0.67334,-6.63299 0.67332,-1.98901 0.67334,-18.647995 0.67334,-14.463005 0.67333,24.696 0.67334,13.54501 0.67332,8.96399 0.67334,11.98799 0.67333,-0.018 0.67334,-13.68901 0.67334,-12.10499 0.67332,-4.90499 0.67334,-0.40501 0.67332,11.565 0.67334,9.69299 0.67334,3.94201 0.67333,-4.185 0.67334,-4.88699 0.67332,-3.55501 0.67334,0.108 0.67333,0.981 0.67334,-4.752 0.67334,-2.313 0.67332,3.33 0.67334,4.455 0.67333,2.304 0.67334,1.467 0.67332,2.99699 0.67334,-4.58999 0.67334,-5.733 0.67333,2.916 0.67333,2.709 0.67333,-3.447 0.67334,1.548 0.67332,-2.961 0.67334,-8.712 0.67334,-9.873 0.67333,0.027 0.67334,7.929 0.67332,13.464 0.67334,16.497 0.67333,-8.14499 0.67334,-19.79101 0.67334,-2.277 0.67332,2.81701 0.67334,-5.93101 0.67333,4.716 0.67334,14.607 0.67332,4.239 0.67334,-2.376 0.67334,3.33001 0.67332,-1.17002 0.67334,-8.95499 0.67333,0.558 0.67334,5.238 0.67332,-3.321 0.67334,-1.404 0.67334,2.538 0.67333,3.20399 0.67334,1.377 0.67332,-0.50399 0.67334,-1.728 0.67333,-0.53999 0.67334,0.207 0.67334,-2.07 0.67332,-1.97101 0.67334,-2.43901 0.67333,3.91501 0.67333,-3.942 0.67333,-4.536 0.67334,4.869 0.67334,-0.198 0.67332,-10.22399 0.67334,-14.121015 0.67333,-1.682998 0.67334,12.852003 0.67332,1.332 0.67334,7.821 0.67334,21.717 0.67333,13.869 0.67334,-14.95799 0.67332,-19.64701 0.67334,-3.978 0.67333,1.80901 0.67334,-1.03502 0.67334,0.26101 0.67332,6.831 0.67334,6.55201 0.67332,2.10598 0.67334,-0.72 0.67334,-2.99699 0.67333,-0.94499 0.67334,1.37698 0.67332,-0.53099 0.67334,0.756 0.67333,-1.44899 0.67334,-0.972 0.67334,2.16899 0.67332,0.63 0.67334,-0.882 0.67333,-6.56101 0.67334,-0.92699 0.67332,1.60201 0.67334,-1.92602 0.67333,-0.36899 0.67334,-36.522004 0.67333,-19.043991 0.67334,26.567993 0.67331,32.193002 0.67334,8.937 0.67334,13.71601 0.67334,5.66999 0.67334,-18.837 0.67331,-24.219 0.67334,-2.709 0.67334,9.09 0.67334,6.273 0.67331,8.613 0.67334,3.249 0.67334,6.615 0.67334,-3.366 0.67334,-10.161 0.67331,2.96999 0.67334,6.07502 0.67334,-5.031 0.67334,-4.887 0.67334,0.756 0.67331,2.87099 0.67334,2.91602 0.67334,-0.29702 0.67334,0.51301 0.67334,-2.88001 0.67331,-1.03499 0.67334,-0.63901 0.67334,-2.70899 0.67334,-1.81801 0.67331,-6.73198 0.67334,-27.333011 0.67334,-8.882996 0.67334,34.586987 0.67334,5.12101 0.67331,5.868 0.67334,24.318 0.67333,1.15201 0.67334,-25.04701 0.67334,-15.246 0.67331,3.654 0.67334,-3.81599 0.67334,1.00799 0.67334,11.538 0.67331,6.192 0.67334,4.761 0.67334,3.339 0.67334,-4.158 0.67334,-4.608 0.67331,-0.83699 0.67334,1.95299 0.67334,-0.82799 0.67334,-2.99701 0.67334,0.468 0.67331,2.403 0.67334,2.745 0.67334,1.791 0.67334,-2.77199 0.67331,-3.276 0.67334,-0.18901 0.67334,-1.044 0.67334,-3.13201 0.67334,-2.49299 0.67331,-5.166 0.67334,-14.589 0.67334,-6.920997 0.67334,8.108997 0.67334,11.763 0.67331,8.856 0.67334,9.648 0.67334,-5.43599 0.67334,-19.17001 0.67331,1.8 0.67334,5.75099 0.67334,-0.19799 0.67333,10.278 0.67334,5.09399 0.67331,-4.09499 0.67334,0.909 0.67334,0.99899 0.67334,-5.877 0.67334,-4.42799 0.67331,5.247 0.67334,4.401 0.67334,-1.10701 0.67334,-2.75399 0.67331,2.727 0.67334,0.81899 0.67334,-6.01199 0.67334,2.439 0.67334,3.77101 0.67331,-6.39001 0.67334,0.72 0.67334,2.34001 0.67334,-2.90701 0.67334,-2.16 0.67331,-2.835 0.67334,-5.796 0.67334,3.015 0.67334,7.18201 0.67334,4.75199 0.67331,-2.178 0.67334,-0.32399 0.67334,1.80899 0.67334,-7.65 0.67331,-6.08401 0.67334,5.76001 0.67334,7.515 0.67334,-1.926 0.67334,-0.81901 0.67331,6.38102 0.67334,5.58 0.67333,-5.41802 0.67334,-7.21799 0.67334,1.701 0.67331,5.62499 0.67334,-0.873 0.67334,-6.33599 0.67334,5.985 0.67331,1.71 0.67334,-2.34 0.67334,3.01499 0.67334,1.62001 0.67334,-3.321 0.67331,0.495 0.67334,1.746 0.67334,-1.77301 0.67334,-3.21299 0.67334,0.972 0.67331,2.41199 0.67334,-3.483 0.67334,-2.78999 0.67334,-8.55 0.67331,-17.189999 0.67334,18.017999 0.67334,6.948 0.67334,-19.665 0.67334,15.453 0.67331,30.663 0.67334,-3.483 0.67334,-23.79601 0.67334,-6.22799 0.67334,3.555 0.67331,-8.424 0.67334,3.672 0.67334,13.491 0.67334,4.82399 0.67331,4.47301 0.67334,0.396 0.67334,-5.31 0.67333,-3.45599 0.67334,1.92599 0.67331,2.295 0.67334,-0.93601 0.67334,-2.78099 0.67334,-0.378 0.67334,-0.153 0.67331,1.998 0.67334,0.927 0.67334,-1.341 0.67334,-3.114 0.67331,-1.55699 0.67334,0.405 0.67334,-1.57501 0.67334,-2.916 0.67334,-0.531 0.67331,-2.709 0.67334,-20.682004 L 371,77.671997 l 0.67334,28.161003 0.67334,16.776 0.67331,-1.899 0.67334,16.98301 0.67334,17.44198 0.67334,-17.38798 0.67334,-30.98701 0.67331,-3.45601 0.67334,21.10501 0.67334,0.567 0.67334,-5.985 0.67331,7.38 0.67334,10.989 0.67334,0.873 0.67334,-7.821 0.67334,-1.53001 0.67331,4.06801 0.67334,0.162 0.67333,-3.177 0.67334,-2.277 0.67334,-0.216 0.67331,0.45 0.67334,3.339 0.67334,1.332 0.67334,-3.32101 0.67331,-1.63799 0.67334,-1.314 0.67334,0.819 0.67334,-2.52 0.67334,-2.37599 0.67331,1.55699 0.67334,-13.752 0.67334,-31.356005 0.67334,10.044006 0.67334,25.748999 0.67331,0.81 0.67334,14.34599 0.67334,23.71501 0.67334,-0.108 0.67331,-28.98 0.67334,-19.323 0.67334,7.74 0.67334,3.573 0.67334,-1.872 0.67331,9.297 0.67334,9.666 0.67334,4.82401 0.67334,0.68399 0.67334,-6.525 0.67331,-4.22999 0.67334,3.17698 0.67334,2.08802 0.67334,-7.93801 0.67331,-2.673 0.67334,7.713 0.67334,0.27 0.67333,-1.944 0.67334,2.448 0.67331,1.287 0.67334,-3.438 0.67334,-0.77401 0.67334,2.01601 0.67334,-1.53 0.67331,-3.22201 0.67334,-1.88099 0.67334,-17.235 0.67334,-10.628993 0.67331,9.332993 0.67334,16.371 0.67334,17.496 0.67334,-6.192 0.67334,-23.4 0.67331,-3.456 0.67334,8.84701 0.67334,-2.61901 0.67334,3.042 0.67334,13.5 0.67331,9.297 0.67334,0.441 0.67334,-9.639 0.67334,-1.845 0.67334,-1.269 0.67331,-5.094 0.67334,2.358 0.67334,4.167 0.67334,-2.79 0.67331,-0.92701 0.67334,2.58301 0.67334,3.726 0.67334,2.53801 0.67334,-0.13501 0.67331,-2.77199 0.67334,-4.66201 0.67333,-2.106 0.67334,2.043 0.67334,-1.30499 0.67331,-1.18801 0.67334,3.024 0.67334,0.153 0.67334,-2.106 0.67331,-7.77601 0.67334,-14.19299 0.67334,-4.175996 0.67334,10.754996 0.67334,15.201 0.67331,9.819 0.67334,6.849 0.67334,7.40699 0.67334,-9.42298 0.67334,-29.57401 0.67331,-7.326 0.67334,17.073 0.67334,0.72901 0.67334,10.49399 0.67331,13.47299 0.67334,-0.82798 0.67334,-10.66501 0.67334,-0.594 0.67334,1.03501 0.67331,-5.40901 0.67334,-3.87899 0.67334,1.51199 0.67334,2.115 0.67334,1.62 0.67331,0.648 0.67334,0.441 0.67334,0 0.67334,-3.501 0.67331,-3.61799 0.67334,0.26999 0.67334,-1.062 0.67333,-2.574 0.67334,-2.448 0.67331,-8.748 0.67334,-24.038998 0.67334,11.403 0.67334,17.765998 0.67334,9.342 0.67331,20.682 0.67334,10.80899 0.67334,-16.31698 0.67334,-23.56201 0.67331,-4.995 0.67334,9.027 0.67334,3.663 0.67334,5.463 0.67334,7.452 0.67331,5.031 0.67334,-1.863 L 472,130.808" /></g><g
             transform="matrix(3.1250001,0,0,3.1250001,459.375,1046.875)"
             id="g260"><path
               inkscape:connector-curvature="0"
               id="path262"
               style="fill:none;stroke:#80ff00;stroke-width:1.33333302;stroke-linecap:square;stroke-linejoin:miter;stroke-miterlimit:10;stroke-opacity:1;stroke-dasharray:none"
               d="m 68.673332,222.491 0.673332,-0.63899 0.673333,-1.071 0.673339,0.19799 0.673333,0.027 0.673332,-0.558 0.673332,0.44999 0.673332,-1.67399 0.673333,-18.819 0.673332,1.026 0.67334,-0.162 0.673332,0.44101 0.673332,-0.27001 0.673332,0.909 0.673332,0.378 0.673333,0.98099 0.673332,0.72 0.67334,1.89 0.673332,1.61101 0.673332,0.72 0.673332,0.261 0.673333,-1.845 0.673332,1.467 0.67334,0.108 0.673332,-2.673 0.673332,1.953 0.673332,-0.79199 0.673333,-2.31301 0.673332,-2.268 0.673332,-1.845 0.67334,-0.41401 0.673332,-1.43998 0.673332,1.06199 0.673332,0.153 0.673333,0.099 0.673332,-3.81601 0.673332,0.58501 0.67334,0.68401 0.673332,-3.70801 0.673332,-2.196 0.673333,0.64799 0.673332,-0.74699 0.673332,-1.107 0.673332,-2.28601 0.67334,0.98101 0.673332,-1.278 0.673332,-4.56301 0.673333,2.58301 0.67333,0.414 0.67333,2.898 0.67334,6.507 0.67334,12.717 0.67333,-6.804 0.67333,6.12001 0.67333,0.64799 0.67334,-1.485 0.67333,1.35899 0.67334,-2.23199 0.67333,-5.34599 0.67333,2.01599 0.67333,3.81601 0.67334,1.90799 0.67333,-2.68199 0.67333,-4.52701 0.67334,-0.98999 0.67333,1.46699 0.67333,-2.313 0.67334,-1.66499 0.67333,0.567 0.67333,-0.027 0.67333,-0.108 0.67334,-1.80899 0.67334,-3.03301 0.67333,-2.322 0.67333,0.29699 0.67333,1.899 0.67333,-0.47699 0.67334,-5.166 0.67334,1.062 0.67333,-0.162 0.67333,-0.135 0.67333,-0.684 0.67334,-3.123 0.67333,46.845 0.67333,-26.55 0.67334,3.609 0.67333,-2.223 0.67333,-0.9 0.67334,3.303 0.67334,-2.87999 0.67332,-4.16701 0.67334,3.681 0.67333,0.44099 0.67333,-7.13699 0.67333,-1.76401 0.67334,-2.15098 0.67334,-2.23201 0.67332,2.38501 0.67334,-0.17101 0.67333,-3.582 0.67334,-3.285 0.67332,-1.08 0.67334,-2.655 0.67334,-2.25901 0.67333,0.67501 0.67334,-0.72899 0.67332,1.40399 0.67334,-1.161 0.67333,-2.64601 0.67334,0.72 0.67334,-0.69299 0.67332,-5.886 0.67334,-8.442 0.67332,-5.175 0.67334,29.79901 0.67334,7.68599 0.67333,7.533 0.67334,-0.23399 0.67332,-4.37401 0.67334,2.763 0.67333,-8.685 0.67334,-4.662 0.67334,-0.027 0.67332,2.41198 0.67334,1.791 0.67333,-3.19499 0.67334,0.567 0.67332,1.74601 0.67334,-2.67301 0.67334,-3.51001 0.67333,1.08 0.67333,-0.054 0.67333,-2.47499 0.67334,-2.961 0.67332,0.081 0.67334,-3.13201 0.67334,1.87201 0.67333,1.674 0.67334,-1.062 0.67332,-3.25799 0.67334,2.71798 0.67333,0.567 0.67334,-1.82699 0.67334,-8.739 0.67332,-6.912 0.67334,24.084 0.67333,14.382 0.67334,4.293 0.67332,0.549 0.67334,-3.555 0.67334,-12.87899 0.67332,5.27398 0.67334,-0.67498 0.67333,-5.12101 0.67334,7.65 0.67332,5.35499 0.67334,-6.543 0.67334,-7.32599 0.67333,-2.016 0.67334,1.05301 0.67332,1.836 0.67334,0.89099 0.67333,-1.881 0.67334,2.48399 0.67334,-3.627 0.67332,-2.19599 0.67334,-6.45301 0.67333,1.485 0.67333,2.457 0.67333,-0.36898 0.67334,-2.01601 0.67334,0.045 0.67332,0.936 0.67334,-1.683 0.67333,0.639 0.67334,-3.888 0.67332,-11.178 0.67334,-3.55501 0.67334,16.569 0.67333,20.20501 0.67334,8.94599 0.67332,-4.75199 0.67334,3.285 0.67333,0.351 0.67334,-3.996 0.67334,-8.928 0.67332,-3.77099 0.67334,3.65399 0.67332,0.612 0.67334,-0.43199 0.67334,1.08 0.67333,1.46699 0.67334,-3.843 0.67332,-1.87199 0.67334,2.69099 0.67333,1.035 0.67334,-1.11599 0.67334,-3.24901 0.67332,-4.77001 0.67334,-1.64698 0.67333,0.045 0.67334,1.89 0.67332,-0.585 0.67334,-1.25099 0.67334,0.027 0.67333,1.25999 0.67333,0.09 0.67333,-1.42199 0.67334,-3.23101 0.67332,-4.49101 0.67334,1.81801 0.67334,3.591 0.67333,7.902 0.67334,8.31601 0.67332,10.485 0.67334,-1.96201 0.67333,-3.798 0.67334,-8.946 0.67334,-4.05001 0.67332,-1.14299 0.67334,1.818 0.67333,0.819 0.67334,-2.133 0.67332,0.441 0.67334,0.837 0.67334,-1.836 0.67332,0.37799 0.67334,1.75501 0.67333,0.981 0.67334,-2.94301 0.67332,-2.85299 0.67334,0.18 0.67334,-0.882 0.67333,-4.104 0.67334,-1.431 0.67332,0.64801 0.67334,0 0.67333,-0.93601 0.67334,2.079 0.67334,0.38701 0.67332,-0.96302 0.67334,4.14 0.67333,-5.84099 0.67333,-3.51899 0.67333,2.68199 0.67334,-1.881 0.67334,-5.04001 0.67332,-1.233 0.67334,10.134 0.67333,13.392 0.67334,6.88501 0.67332,6.24601 0.67334,-1.476 0.67334,0.054 0.67333,2.89801 0.67334,-10.035 0.67332,-3.735 0.67334,1.647 0.67333,0.234 0.67334,0.50399 0.67334,1.74601 0.67332,-0.585 0.67334,-0.999 0.67332,-2.943 0.67334,-3.393 0.67334,-0.342 0.67333,-0.315 0.67334,-0.198 0.67332,3.006 0.67334,-5.823 0.67333,0.828 0.67334,-0.639 0.67334,1.944 0.67332,-1.74601 0.67334,-0.099 0.67333,-1.92599 0.67334,-0.27 0.67332,-2.547 0.67334,-0.549 0.67333,-2.367 0.67334,-8.523 0.67333,22.041 0.67334,6.75901 0.67331,21.25799 0.67334,-16.263 0.67334,-4.104 0.67334,-4.77899 0.67334,4.06799 0.67331,-6.20101 0.67334,-4.74299 0.67334,6.048 0.67334,3.996 0.67331,-2.205 0.67334,-5.58 0.67334,-4.095 0.67334,0.342 0.67334,1.026 0.67331,-0.57599 0.67334,-2.38501 0.67334,-1.233 0.67334,-3.321 0.67334,-3.834 0.67331,-0.657 0.67334,1.944 0.67334,1.56599 0.67334,1.24201 0.67334,-0.93601 0.67331,-0.018 0.67334,1.728 0.67334,0.396 0.67334,-6.525 0.67331,-11.907 0.67334,-5.36401 0.67334,23.62502 0.67334,9.31498 0.67334,15.17401 0.67331,-2.718 0.67334,2.25901 0.67333,-5.931 0.67334,-7.48801 0.67334,-5.13899 0.67331,-7.83001 0.67334,7.88401 0.67334,4.66198 0.67334,0.918 0.67331,-4.59899 0.67334,-1.521 0.67334,0.477 0.67334,-0.126 0.67334,-0.945 0.67331,0.41401 0.67334,-0.33301 0.67334,-0.36 0.67334,-0.045 0.67334,-3.231 0.67331,-2.592 0.67334,0.11701 0.67334,2.03399 0.67334,-0.252 0.67331,0.801 0.67334,2.48401 0.67334,-0.98101 0.67334,-3.276 0.67334,-3.582 0.67331,-2.862 0.67334,-1.35 0.67334,16.389 0.67334,17.37 0.67334,-7.33501 0.67331,4.67101 0.67334,0.864 0.67334,-11.817 0.67334,-6.70501 0.67331,-1.75499 0.67334,4.176 0.67334,8.00101 0.67333,0.84599 0.67334,-3.123 0.67331,-1.80001 0.67334,-1.10699 0.67334,2.52 0.67334,1.791 0.67334,-0.477 0.67331,1.989 0.67334,0.423 0.67334,-2.07 0.67334,-0.54 0.67331,0.79199 0.67334,-2.05198 0.67334,0.081 0.67334,-0.774 0.67334,-2.619 0.67331,3.915 0.67334,-3.744 0.67334,1.593 0.67334,3.15 0.67334,-0.414 0.67331,-6.084 0.67334,3.708 0.67334,8.937 0.67334,4.27499 0.67334,-0.63899 0.67331,-1.52099 0.67334,-1.36802 0.67334,-4.401 0.67334,-2.36699 0.67331,-0.567 0.67334,-4.18499 0.67334,-0.099 0.67334,4.45498 0.67334,0.666 0.67331,-1.84498 0.67334,-2.79001 0.67333,-0.23399 0.67334,0.063 0.67334,-4.15799 0.67331,-2.628 0.67334,-2.385 0.67334,3.43801 0.67334,-3.54601 0.67331,-2.862 0.67334,-0.612 0.67334,2.82601 0.67334,-2.64601 0.67334,-1.95301 0.67331,0.67501 0.67334,-0.693 0.67334,-0.59399 0.67334,-3.35701 0.67334,-1.34101 0.67331,0.34202 0.67334,-0.56701 0.67334,-2.637 0.67334,0.837 0.67331,8.72099 0.67334,11.862 0.67334,10.071 0.67334,-0.22499 0.67334,2.745 0.67331,0.378 0.67334,-1.098 0.67334,-3.051 0.67334,-6.021 0.67334,-7.938 0.67331,5.886 0.67334,3.474 0.67334,-5.55301 0.67334,-3.78 0.67331,3.13201 0.67334,-0.747 0.67334,0.657 0.67333,-0.477 0.67334,-2.133 0.67331,-0.144 0.67334,-1.179 0.67334,-1.31399 0.67334,-2.93401 0.67334,0.387 0.67331,0.594 0.67334,-1.764 0.67334,1.278 0.67334,3.21299 0.67331,0.405 0.67334,-1.69198 0.67334,-1.09801 0.67334,-2.808 0.67334,-0.909 0.67331,-4.23001 0.67334,-6.55198 L 371,190.325 l 0.67334,10.944 0.67334,7.065 0.67331,-5.65199 0.67334,-2.43001 0.67334,3.159 0.67334,-7.659 0.67334,-4.31101 0.67331,1.836 0.67334,1.431 0.67334,3.46501 0.67334,-3.987 0.67331,-3.753 0.67334,0.459 0.67334,0.75599 0.67334,-0.61199 0.67334,-1.89901 0.67331,-1.08899 0.67334,1.18799 0.67333,0.70201 0.67334,-2.673 0.67334,-3.744 0.67331,-1.34999 0.67334,0.36898 0.67334,0.79201 0.67334,0.38699 0.67331,-1.75499 0.67334,2.079 0.67334,-4.82401 0.67334,0.72901 0.67334,-1.872 0.67331,-3.474 0.67334,-11.33999 0.67334,10.28699 0.67334,19.593 0.67334,5.71499 0.67331,8.09101 0.67334,-1.287 0.67334,-1.053 0.67334,-3.753 0.67331,-0.657 0.67334,-9.27899 0.67334,-7.89301 0.67334,10.062 0.67334,4.851 0.67331,-4.689 0.67334,-3.339 0.67334,-1.48501 0.67334,-1.60198 0.67334,-0.84601 0.67331,1.20601 0.67334,0.17999 0.67334,-3.006 0.67334,-0.369 0.67331,1.629 0.67334,-4.446 0.67334,-0.567 0.67333,0.108 0.67334,-1.413 0.67331,-0.585 0.67334,2.38501 0.67334,-0.48601 0.67334,-0.32401 0.67334,-1.64698 0.67331,-3.375 0.67334,-2.33101 0.67334,3.45601 0.67334,7.82099 0.67331,6.21 0.67334,18.225 0.67334,-0.108 0.67334,-8.46001 0.67334,-6.084 0.67331,-6.18299 0.67334,-5.355 0.67334,5.80501 0.67334,7.308 0.67334,0.16198 0.67331,-2.87999 0.67334,-0.74701 0.67334,5.29201 0.67334,-0.729 0.67334,-4.644 0.67331,-0.48601 0.67334,1.80001 0.67334,-1.098 0.67334,0.26999 0.67331,-3.04199 0.67334,-1.31399 0.67334,-0.45002 0.67334,-1.026 0.67334,-1.13398 0.67331,-2.87101 0.67334,-0.35099 0.67333,0.89999 0.67334,-0.37799 0.67334,-0.23401 0.67331,-0.84599 0.67334,-1.52101 0.67334,-2.322 0.67334,0.10801 0.67331,-0.87301 0.67334,3.95099 0.67334,7.416 0.67334,17.61301 0.67334,-5.29201 0.67331,5.74201 0.67334,-0.018 0.67334,-8.649 0.67334,-5.19301 0.67334,2.871 0.67331,-0.94499 0.67334,-0.34201 0.67334,2.29499 0.67334,-3.54599 0.67331,-5.22 0.67334,0 0.67334,2.11499 0.67334,-0.98999 0.67334,-0.684 0.67331,0.918 0.67334,-1.467 0.67334,-1.071 0.67334,-1.52099 0.67334,-1.80901 0.67331,0.072 0.67334,1.42201 0.67334,-0.49501 0.67334,0.98101 0.67331,-0.54 0.67334,-1.611 0.67334,-0.252 0.67333,-3.942 0.67334,-0.594 0.67331,-8.046 0.67334,19.41301 0.67334,8.68499 0.67334,3.177 0.67334,-0.675 0.67331,5.976 0.67334,-5.59801 0.67334,-3.80699 0.67334,-4.653 0.67331,-3.33 0.67334,1.476 0.67334,1.71901 0.67334,0.045 0.67334,-0.85501 0.67331,-1.82699 0.67334,1.179 L 472,189.03799" /></g><g
             transform="matrix(3.1250001,0,0,3.1250001,459.375,1046.875)"
             id="g264"><path
               inkscape:connector-curvature="0"
               id="path266"
               style="fill:none;stroke:#00ff40;stroke-width:1.33333302;stroke-linecap:square;stroke-linejoin:miter;stroke-miterlimit:10;stroke-opacity:1;stroke-dasharray:none"
               d="m 68.673332,208.082 0.673332,-0.027 0.673333,0.22501 0.673339,-0.036 0.673333,-0.23401 0.673332,-0.17999 0.673332,-0.063 0.673332,0.153 0.673333,0.045 0.673332,-0.198 0.67334,-0.342 0.673332,-0.18 0.673332,-0.351 0.673332,-0.36 0.673332,-0.396 0.673333,-0.477 0.673332,-0.21599 0.67334,0.252 0.673332,0.072 0.673332,-0.189 0.673332,-0.207 0.673333,0.522 0.673332,0.189 0.67334,-0.37801 0.673332,0.70201 0.673332,0.126 0.673332,-0.207 0.673333,0.882 0.673332,0.972 0.673332,-0.81 0.67334,-1.233 0.673332,0.53101 0.673332,0.54899 0.673332,-0.117 0.673333,-0.234 0.673332,0.009 0.673332,0.41398 0.67334,0.18901 0.673332,-0.126 0.673332,-0.306 0.673333,0.27 0.673332,0.53101 0.673332,0.35998 0.673332,0.53101 0.67334,-0.36 0.673332,-0.45 0.673332,0.252 0.673333,0.405 0.67333,-1.269 0.67333,1.584 0.67334,-0.504 0.67334,0.09 0.67333,-0.153 0.67333,0.603 0.67333,-1.28701 0.67334,0.18901 0.67333,1.125 0.67334,-0.846 0.67333,-0.92701 0.67333,0.045 0.67333,1.36801 0.67334,-1.557 0.67333,-0.37799 0.67333,0.21598 0.67334,0.28801 0.67333,0.693 0.67333,0.585 0.67334,-0.14399 0.67333,-0.414 0.67333,0.11698 0.67333,-0.42298 0.67334,-0.21601 0.67334,0.54 0.67333,0.117 0.67333,0.13499 0.67333,0.045 0.67333,-0.68399 0.67334,-0.108 0.67334,0.819 0.67333,0.12599 0.67333,-0.58499 0.67333,-0.315 0.67334,0.144 0.67333,-1.35 0.67333,-2.29499 0.67334,4.83299 0.67333,-0.78301 0.67333,0.459 0.67334,0.32401 0.67334,0.153 0.67332,-3.03301 0.67334,-2.87098 0.67333,-0.83701 0.67333,0.83701 0.67333,2.43899 0.67334,2.691 0.67334,0.13501 0.67332,-1.88102 0.67334,-0.873 0.67333,0.86402 0.67334,0.79199 0.67332,0.45 0.67334,0.09 0.67334,-0.32399 0.67333,0.459 0.67334,0.82801 0.67332,-0.459 0.67334,-2.23201 0.67333,-0.32399 0.67334,1.431 0.67334,0.28799 0.67332,-0.69299 0.67334,0.17999 0.67332,0.27 0.67334,0.26101 0.67334,-4.194 0.67333,3.57299 0.67334,-2.979 0.67332,1.19701 0.67334,1.72799 0.67333,1.125 0.67334,0.549 0.67334,0.459 0.67332,-0.58499 0.67334,-0.081 0.67333,0.70199 0.67334,-0.42299 0.67332,0.31501 0.67334,-0.33301 0.67334,-0.621 0.67333,0.99901 0.67333,-0.53101 0.67333,0.468 0.67334,-0.48601 0.67332,0.46801 0.67334,-0.9 0.67334,0.58499 0.67333,0.41401 0.67334,-0.21599 0.67332,-0.207 0.67334,0.36 0.67333,-0.47701 0.67334,-0.009 0.67334,0.414 0.67332,-0.45 0.67334,-0.324 0.67333,-2.925 0.67334,2.043 0.67332,0.126 0.67334,1.431 0.67334,-0.513 0.67332,-0.666 0.67334,0.57601 0.67333,0.261 0.67334,-1.97101 0.67332,-0.774 0.67334,1.332 0.67334,1.77301 0.67333,-0.42301 0.67334,-0.324 0.67332,0.13499 0.67334,-0.88199 0.67333,-0.27 0.67334,0.27901 0.67334,0.46798 0.67332,0.45002 0.67334,-0.11701 0.67333,-0.117 0.67333,0.60299 0.67333,-0.22499 0.67334,0.342 0.67334,0.216 0.67332,-0.18001 0.67334,0.207 0.67333,-1.00799 0.67334,-0.108 0.67332,0.49499 0.67334,-0.56698 0.67334,0.153 0.67333,-1.998 0.67334,2.27699 0.67332,-3.90599 0.67334,0.69299 0.67333,0.27 0.67334,-0.639 0.67334,0.981 0.67332,1.008 0.67334,1.87201 0.67332,-0.54902 0.67334,0.16201 0.67334,0.54901 0.67333,-2.00701 0.67334,-0.882 0.67332,0.261 0.67334,1.24201 0.67333,0.68399 0.67334,-0.26101 0.67334,0.62101 0.67332,0.54899 0.67334,-0.37799 0.67333,0.37799 0.67334,-0.153 0.67332,-0.68399 0.67334,-0.639 0.67334,0.981 0.67333,-0.79199 0.67333,-0.45002 0.67333,0.99001 0.67334,0.153 0.67332,0.33301 0.67334,0.099 0.67334,-0.90902 0.67333,-2.10598 0.67334,-1.00801 0.67332,0.693 0.67334,1.74601 0.67333,-0.46801 0.67334,-0.972 0.67334,2.62799 0.67332,0.198 0.67334,-0.198 0.67333,0.36 0.67334,-0.48599 0.67332,0.89099 0.67334,-0.65699 0.67334,0.315 0.67332,-0.84599 0.67334,-0.864 0.67333,1.77299 0.67334,-0.49499 0.67332,0.65699 0.67334,-0.099 0.67334,-0.52201 0.67333,0.108 0.67334,0.693 0.67332,-0.873 0.67334,-0.405 0.67333,0.513 0.67334,0.279 0.67334,-0.729 0.67332,-0.504 0.67334,0.333 0.67333,0.24301 0.67333,-0.873 0.67333,0.54899 0.67334,1.071 0.67334,-0.225 0.67332,-0.41401 0.67334,0.53101 0.67333,0.036 0.67334,-2.763 0.67332,2.961 0.67334,-1.989 0.67334,0.75602 0.67333,-0.62101 0.67334,-2.28601 0.67332,0.93601 0.67334,2.934 0.67333,0.306 0.67334,-0.225 0.67334,0.018 0.67332,-0.486 0.67334,0.324 0.67332,0.423 0.67334,-0.585 0.67334,-0.297 0.67333,0.43199 0.67334,0.36 0.67332,0.18001 0.67334,0.072 0.67333,-0.28801 0.67334,0.225 0.67334,-0.099 0.67332,-0.036 0.67334,-0.43199 0.67333,0.495 0.67334,-1.34101 0.67332,-0.93599 0.67334,0.288 0.67333,0.018 0.67334,0.801 0.67333,1.089 0.67334,-6.22799 0.67331,-0.73801 0.67334,5.85899 0.67334,1.179 0.67334,-0.53099 0.67334,-0.54 0.67331,0.75601 0.67334,-0.23401 0.67334,-3.60001 0.67334,-1.071 0.67331,0.43201 0.67334,2.06999 0.67334,0.30602 0.67334,0.53099 0.67334,0.927 0.67331,-0.79201 0.67334,-0.036 0.67334,1.917 0.67334,-0.207 0.67334,-0.783 0.67331,-0.72 0.67334,0.23401 0.67334,0.94499 0.67334,0.567 0.67334,-0.144 0.67331,-0.84601 0.67334,-0.59399 0.67334,0.459 0.67334,0.12601 0.67331,-0.153 0.67334,0.18899 0.67334,-0.54899 0.67334,-4.28402 0.67334,5.472 0.67331,-5.25599 0.67334,0.63 0.67333,-1.188 0.67334,0.59399 0.67334,3.78901 0.67331,1.746 0.67334,-0.081 0.67334,-0.063 0.67334,-0.045 0.67331,-0.765 0.67334,-0.423 0.67334,0.18899 0.67334,-0.69299 0.67334,-0.43201 0.67331,0.80101 0.67334,0.819 0.67334,-0.054 0.67334,0.297 0.67334,-0.297 0.67331,-0.90899 0.67334,0.063 0.67334,0.48601 0.67334,0.73799 0.67331,0.32401 0.67334,-0.018 0.67334,-0.207 0.67334,-0.12599 0.67334,0.081 0.67331,-0.67498 0.67334,0.16198 0.67334,-1.21499 0.67334,-1.593 0.67334,0.891 0.67331,1.944 0.67334,0.315 0.67334,-1.647 0.67334,-0.603 0.67331,1.24199 0.67334,-1.78199 0.67334,1.899 0.67333,0.045 0.67334,1.10701 0.67331,-0.98101 0.67334,0.657 0.67334,0.189 0.67334,-1.14299 0.67334,0.17099 0.67331,1.188 0.67334,-0.108 0.67334,-0.963 0.67334,-0.621 0.67331,0.99901 0.67334,0.063 0.67334,-1.08001 0.67334,0.59401 0.67334,0.45 0.67331,-0.84599 0.67334,0.83699 0.67334,0.792 0.67334,-0.108 0.67334,-0.24299 0.67331,-0.29702 0.67334,-0.25199 0.67334,0.91799 0.67334,-0.65699 0.67334,0.522 0.67331,-0.783 0.67334,-0.10801 0.67334,0.42301 0.67334,0.198 0.67331,-0.234 0.67334,-1.82699 0.67334,0.14399 0.67334,2.124 0.67334,-1.17 0.67331,0.369 0.67334,-0.009 0.67333,-0.504 0.67334,0.675 0.67334,0.144 0.67331,-0.81 0.67334,0.855 0.67334,0.297 0.67334,-0.036 0.67331,0.38699 0.67334,-0.14399 0.67334,0.126 0.67334,-0.35099 0.67334,-0.54901 0.67331,0.90901 0.67334,-0.774 0.67334,0.16198 0.67334,0.099 0.67334,-0.73801 0.67331,-0.054 0.67334,0.423 0.67334,-0.405 0.67334,-0.162 0.67331,0.594 0.67334,-1.935 0.67334,1.449 0.67334,-1.692 0.67334,2.943 0.67331,-2.754 0.67334,1.89 0.67334,-2.46601 0.67334,2.151 0.67334,0.81002 0.67331,0.48599 0.67334,-1.53 0.67334,-0.657 0.67334,1.566 0.67331,-0.009 0.67334,-1.44899 0.67334,-1.431 0.67333,0.64799 0.67334,1.80901 0.67331,0.69299 0.67334,-0.38699 0.67334,-0.29702 0.67334,0.045 0.67334,0.21599 0.67331,-0.135 0.67334,-0.675 0.67334,-0.78301 0.67334,-0.045 0.67331,0.83701 0.67334,0.93601 0.67334,0.108 0.67334,0.072 0.67334,-0.621 0.67331,-0.702 0.67334,0.22501 0.67334,1.03498 0.67334,-5.15699 0.67334,3.042 0.67331,-0.44101 0.67334,1.08901 0.67334,0.73801 0.67334,-1.71901 0.67334,0.29699 0.67331,2.16901 0.67334,-4.06799 0.67334,1.31399 0.67334,2.61 0.67331,-0.891 0.67334,-0.756 0.67334,1.224 0.67334,0.162 0.67334,-0.036 0.67331,0.74699 0.67334,-0.081 0.67333,0.25199 0.67334,-0.045 0.67334,-0.31501 0.67331,-0.315 0.67334,-0.216 0.67334,0.38701 0.67334,0.42299 0.67331,-0.26101 0.67334,-1.01699 0.67334,-0.099 0.67334,0.468 0.67334,-0.045 0.67331,-0.918 0.67334,0.17101 0.67334,1.55699 0.67334,-2.691 0.67334,-2.934 0.67331,5.877 0.67334,-0.648 0.67334,-0.13501 0.67334,0.24301 0.67331,-0.96299 0.67334,1.35899 0.67334,-2.88901 0.67334,-1.53898 0.67334,1.53898 0.67331,-0.21599 0.67334,0.396 0.67334,1.062 0.67334,0.84601 0.67334,0.45899 0.67331,-0.333 0.67334,0.585 0.67334,-0.216 0.67334,0.252 0.67331,-0.94499 0.67334,-1.50301 0.67334,0.58499 0.67333,0.57601 0.67334,0.018 0.67331,0.459 0.67334,0.32401 0.67334,-0.63001 0.67334,-0.765 0.67334,0.27001 0.67331,-0.25202 0.67334,-1.11599 0.67334,0.117 0.67334,0.23399 0.67331,-1.683 0.67334,1.17901 0.67334,2.86199 0.67334,-3.25799 0.67334,-1.071 0.67331,3.96001 0.67334,-1.51201 0.67334,0.69301 0.67334,0.82798 0.67334,-0.57598 0.67331,0.35099 0.67334,0.954 0.67334,-0.045 0.67334,-0.918 0.67334,-0.108 0.67331,-0.036 0.67334,-0.936 0.67334,0.261 0.67334,1.782 0.67331,-0.009 0.67334,-0.68399 0.67334,-0.26101 0.67334,0.396 0.67334,0.369 0.67331,-0.90899 0.67334,0.513 0.67333,0.33299 0.67334,-0.612 0.67334,0.819 0.67331,-0.063 0.67334,-0.495 0.67334,-0.36 0.67334,-0.666 0.67331,-0.306 0.67334,0.189 0.67334,-0.83699 0.67334,-0.70202 0.67334,2.25 0.67331,-0.57598 0.67334,-0.207 0.67334,1.66499 0.67334,-0.288 0.67334,-1.06199 0.67331,0.70199 0.67334,-2.24099 0.67334,0.873 0.67334,0.54899 0.67331,0.36901 0.67334,0.73799 0.67334,-1.359 0.67334,0.846 0.67334,0.504 0.67331,-0.153 0.67334,0.162 0.67334,0.49499 0.67334,-0.252 0.67334,-0.53099 0.67331,-0.468 0.67334,-0.09 0.67334,0.243 0.67334,0.306 0.67331,0.549 0.67334,-0.261 0.67334,-0.21599 0.67333,0.072 0.67334,-1.25099 0.67331,-1.485 0.67334,2.75399 0.67334,-1.87201 0.67334,-1.52099 0.67334,3.843 0.67331,0.072 0.67334,-0.44101 0.67334,-0.972 0.67334,0.918 0.67331,-0.846 0.67334,-2.817 0.67334,-0.36 0.67334,0.648 0.67334,1.098 0.67331,1.04399 0.67334,1.25101 L 472,208.64" /></g><g
             transform="matrix(3.1250001,0,0,3.1250001,459.375,1046.875)"
             id="g268"><path
               inkscape:connector-curvature="0"
               id="path270"
               style="fill:none;stroke:#00ffff;stroke-width:1.33333302;stroke-linecap:square;stroke-linejoin:miter;stroke-miterlimit:10;stroke-opacity:1;stroke-dasharray:none"
               d="m 68.673332,208.847 0.673332,0.063 0.673333,0.063 0.673339,-0.25202 0.673333,-0.37799 0.673332,-0.225 0.673332,0.054 0.673332,0.036 0.673333,-0.42299 0.673332,-0.29699 0.67334,-0.063 0.673332,-0.576 0.673332,-0.69299 0.673332,0.09 0.673332,0.54 0.673333,0.324 0.673332,-0.23399 0.67334,-1.14301 0.673332,-1.77299 0.673332,-0.94501 0.673332,0.207 0.673333,0.43201 0.673332,-0.81002 0.67334,-0.99899 0.673332,-0.711 0.673332,-0.108 0.673332,0.23399 0.673333,-0.80099 0.673332,-0.117 0.673332,1.35 0.67334,0.43199 0.673332,-0.558 0.673332,-0.50399 0.673332,-0.018 0.673333,0.38699 0.673332,0.27901 0.673332,-0.65702 0.67334,-0.31498 0.673332,0.62098 0.673332,0 0.673333,0.11701 0.673332,1.638 0.673332,1.476 0.673332,0.405 0.67334,0.63 0.673332,0.936 0.673332,0.432 0.673333,-0.495 0.67333,0.972 0.67333,0.144 0.67334,-0.909 0.67334,0.648 0.67333,-7.79399 0.67333,-0.31501 0.67333,1.224 0.67334,2.73599 0.67333,4.32901 0.67334,0.072 0.67333,-0.963 0.67333,1.683 0.67333,-5.12999 0.67334,-3.03301 0.67333,-0.378 0.67333,2.60099 0.67334,2.67301 0.67333,0.306 0.67333,-0.17999 0.67334,-0.37801 0.67333,-0.765 0.67333,-0.27901 0.67333,-0.36898 0.67334,-0.31501 0.67334,0.072 0.67333,0.94501 0.67333,0.43199 0.67333,-0.21599 0.67333,-0.162 0.67334,-0.48601 0.67334,-1.10699 0.67333,-0.504 0.67333,0 0.67333,-0.378 0.67334,-0.18 0.67333,-1.701 0.67333,8.19 0.67334,0.189 0.67333,-5.94899 0.67333,-4.36501 0.67334,0.79199 0.67334,4.06801 0.67332,3.23999 0.67334,2.50202 0.67333,-0.819 0.67333,-0.21601 0.67333,1.08 0.67334,-3.186 0.67334,-1.14301 0.67332,0.72001 0.67334,1.10701 0.67333,1.09799 0.67334,0.765 0.67332,0.513 0.67334,0.18899 0.67334,-0.53999 0.67333,0.63 0.67334,0.26999 0.67332,-0.22499 0.67334,-0.99901 0.67333,-2.42099 0.67334,-0.09 0.67334,0.93601 0.67332,0.84601 0.67334,0.072 0.67332,-0.414 0.67334,-2.87999 0.67334,-3.61802 0.67333,6.75 0.67334,-0.89999 0.67332,2.26801 0.67334,-2.51101 0.67333,-0.29699 0.67334,3.12298 0.67334,0.17101 0.67332,-0.513 0.67334,-0.17999 0.67333,-1.79101 0.67334,0.432 0.67332,1.791 0.67334,-0.855 0.67334,-0.73801 0.67333,0.73801 0.67333,1.26 0.67333,-0.801 0.67334,0.36 0.67332,0.216 0.67334,0.279 0.67334,-0.027 0.67333,-1.044 0.67334,-0.144 0.67332,-0.45 0.67334,-0.63 0.67333,0.981 0.67334,1.323 0.67334,-1.008 0.67332,1.026 0.67334,-4.89601 0.67333,-2.69099 0.67334,4.89599 0.67332,-3.15899 0.67334,5.04001 0.67334,-1.179 0.67332,-2.90702 0.67334,1.90801 0.67333,1.20601 0.67334,-3.45601 0.67332,-2.26801 0.67334,-0.90899 0.67334,0.71099 0.67333,1.944 0.67334,1.40401 0.67332,-0.43201 0.67334,-0.873 0.67333,-1.431 0.67334,-0.70199 0.67334,-0.036 0.67332,-0.198 0.67334,-0.846 0.67333,0.44999 0.67333,0.63001 0.67333,-0.36901 0.67334,17.30701 0.67334,0.48599 0.67332,0.77401 0.67334,0.54901 0.67333,-0.60301 0.67334,-0.16201 0.67332,0.99001 0.67334,1.269 0.67334,2.106 0.67333,1.863 0.67334,0.36001 0.67332,-2.30401 0.67334,-2.322 0.67333,1.82699 0.67334,3.933 0.67334,1.70101 0.67332,-1.39501 0.67334,-5.94899 0.67332,-0.936 0.67334,2.448 0.67334,0.28801 0.67333,0.44999 0.67334,1.728 0.67332,0.64799 0.67334,-0.83699 0.67333,-0.027 0.67334,0.34201 0.67334,-1.19701 0.67332,-0.80099 0.67334,-0.054 0.67333,-1.098 0.67334,-0.36 0.67332,0.63 0.67334,-0.657 0.67334,-2.24099 0.67333,-1.45801 0.67333,-17.694 0.67333,0.69301 0.67334,-0.44101 0.67332,17.52299 0.67334,-17.334 0.67334,0.81002 0.67333,0.65699 0.67334,-0.477 0.67332,-0.054 0.67334,0.729 0.67333,-1.242 0.67334,2.043 0.67334,1.908 0.67332,-2.79001 0.67334,16.46102 0.67333,2.42999 0.67334,0.74699 0.67332,-2.25898 0.67334,-1.44001 0.67334,0.57601 0.67332,0.23399 0.67334,-0.108 0.67333,-0.68401 0.67334,-18.27899 0.67332,17.91899 0.67334,-17.82899 0.67334,0.225 0.67333,0 0.67334,0.963 0.67332,1.18801 0.67334,0.567 0.67333,0.38699 0.67334,0.351 0.67334,-0.108 0.67332,-0.11699 0.67334,0.75599 0.67333,-0.225 0.67333,-0.48599 0.67333,1.16099 0.67334,0.27 0.67334,0.279 0.67332,1.638 0.67334,1.035 0.67333,-1.287 0.67334,1.66501 0.67332,-5.625 0.67334,1.78199 0.67334,3.38401 0.67333,-3.15901 0.67334,-1.63801 0.67332,1.34101 0.67334,2.169 0.67333,1.53901 0.67334,-0.94501 0.67334,-1.827 0.67332,0.918 0.67334,2.52001 0.67332,-2.26801 0.67334,0 0.67334,1.377 0.67333,0.657 0.67334,-1.161 0.67332,-0.882 0.67334,0.765 0.67333,0.64799 0.67334,-0.35998 0.67334,-0.58501 0.67332,-0.36 0.67334,-0.43201 0.67333,0.46801 0.67334,-0.027 0.67332,0 0.67334,-0.513 0.67333,0.42301 0.67334,-1.377 0.67333,-3.77101 0.67334,-2.943 0.67331,5.48999 0.67334,4.01401 0.67334,-1.584 0.67334,-4.851 0.67334,-3.483 0.67331,2.799 0.67334,4.104 0.67334,3.90601 0.67334,-3.24901 0.67331,-0.108 0.67334,2.27701 0.67334,-0.198 0.67334,-0.774 0.67334,0.47698 0.67331,1.431 0.67334,-1.485 L 270,206.03 l 0.67334,-0.207 0.67334,0.297 0.67331,0.054 0.67334,-0.45 0.67334,-0.099 0.67334,-0.603 0.67334,-1.287 0.67331,-1.188 0.67334,-0.27899 0.67334,0.16198 0.67334,-0.75599 0.67331,0.63 0.67334,2.097 0.67334,-0.18899 0.67334,-3.51001 0.67334,2.664 0.67331,0.711 0.67334,-3.99601 0.67333,22.67101 0.67334,1.503 0.67334,-3.582 0.67331,-20.268 0.67334,1.845 0.67334,1.161 0.67334,-0.252 0.67331,-1.305 0.67334,-0.783 0.67334,-0.495 0.67334,-0.522 0.67334,0.53999 0.67331,1.54801 0.67334,0.837 0.67334,-0.36 0.67334,-1.242 0.67334,-1.161 0.67331,0.45 0.67334,1.584 0.67334,0.522 0.67334,0.072 0.67331,0.50402 0.67334,-0.27001 0.67334,-0.936 0.67334,-0.33299 0.67334,0.60299 0.67331,1.458 0.67334,1.548 0.67334,3.09601 0.67334,-0.47701 0.67334,-5.66099 0.67331,15.89399 0.67334,-17.93701 0.67334,17.70301 0.67334,1.26001 0.67331,0.85499 0.67334,-0.144 0.67334,2.16001 0.67333,3.42898 0.67334,0.927 0.67331,-0.47698 0.67334,-0.765 0.67334,0.018 0.67334,1.647 0.67334,2.53799 0.67331,1.88102 0.67334,1.11599 0.67334,-0.09 0.67334,-0.37801 0.67331,-0.144 0.67334,-0.792 0.67334,-0.054 0.67334,0.84601 0.67334,-0.18 0.67331,-0.756 0.67334,0.27901 0.67334,-0.54001 0.67334,-1.08 0.67334,0.153 0.67331,0.85501 0.67334,-0.513 0.67334,0.29699 0.67334,2.16001 0.67334,1.44899 0.67331,0.072 0.67334,-1.395 0.67334,-1.125 0.67334,-1.575 0.67331,-2.16 0.67334,-0.954 0.67334,-0.324 0.67334,-0.189 0.67334,-1.017 0.67331,-0.80999 0.67334,-0.53101 0.67333,0.063 0.67334,0.83699 0.67334,1.48501 0.67331,-0.36899 0.67334,-1.35901 0.67334,-1.422 0.67334,-1.51201 0.67331,0.018 0.67334,-0.67501 0.67334,-1.31399 0.67334,-0.855 0.67334,-0.468 0.67331,-17.811 0.67334,0.72 0.67334,0.531 0.67334,0.486 0.67334,0.684 0.67331,0.405 0.67334,0.054 0.67334,0.405 0.67334,1.17 0.67331,1.21499 0.67334,0.45002 0.67334,-4.63501 0.67334,-1.91699 0.67334,2.92498 0.67331,1.56601 0.67334,2.538 0.67334,1.593 0.67334,-1.39501 0.67334,-2.412 0.67331,-0.79199 0.67334,-0.459 0.67334,-0.873 0.67334,1.143 0.67331,1.575 0.67334,0.819 0.67334,-0.13499 0.67333,-0.52201 0.67334,-0.432 0.67331,-0.52201 0.67334,0.50402 0.67334,1.26899 0.67334,0.396 0.67334,0.207 0.67331,0.018 0.67334,-0.50402 0.67334,0.09 0.67334,0.33299 0.67331,-0.63899 0.67334,-0.306 0.67334,-0.11701 0.67334,0.063 0.67334,1.03499 0.67331,-0.39599 0.67334,-0.855 0.67334,-2.241 0.67334,-1.242 0.67334,5.94 0.67331,-0.981 0.67334,0.63 0.67334,-1.863 0.67334,-3.771 0.67334,0.504 0.67331,2.547 0.67334,2.862 0.67334,-1.098 0.67334,-1.548 0.67331,1.575 0.67334,1.458 0.67334,-0.70201 0.67334,0.24302 0.67334,0.53999 0.67331,0.081 0.67334,-0.71102 0.67333,-0.54899 0.67334,0.63 0.67334,0.504 0.67331,-0.099 0.67334,-0.171 0.67334,-0.549 0.67334,-0.513 0.67331,-0.711 0.67334,-1.116 0.67334,0.41401 0.67334,1.01699 0.67334,0.53099 0.67331,0.74701 0.67334,-0.09 0.67334,-2.34902 0.67334,-3.42 0.67334,1.29601 0.67331,3.771 0.67334,-0.26999 0.67334,-1.72802 0.67334,-4.04998 0.67331,-3.20401 0.67334,2.43899 0.67334,3.43801 0.67334,2.39399 0.67334,1.638 0.67331,-1.04399 0.67334,0.801 0.67334,-3.18601 0.67334,-1.61999 0.67334,-0.054 0.67331,0.64801 0.67334,0.78299 0.67334,0.423 0.67334,-0.549 0.67331,-0.738 0.67334,0.675 0.67334,0.37801 0.67333,-0.72901 0.67334,-0.74701 0.67331,0.306 0.67334,0.099 0.67334,0.045 0.67334,0.42298 0.67334,-0.12599 0.67331,-0.279 0.67334,0.513 0.67334,0.70199 0.67334,2.02501 0.67331,1.881 0.67334,-3.24001 0.67334,-2.69099 0.67334,-1.35001 0.67334,-1.92599 0.67331,-2.151 0.67334,-2.457 0.67334,-0.963 0.67334,0.459 0.67334,-1.49401 0.67331,-1.90798 0.67334,-0.87301 0.67334,-0.40499 0.67334,0.54899 0.67334,0.38699 0.67331,-2.08799 0.67334,-1.26 0.67334,-0.009 0.67334,0.63899 0.67331,1.82701 0.67334,1.90799 0.67334,1.179 0.67334,0.79201 0.67334,0.72901 0.67331,0.17999 0.67334,-0.57601 0.67333,-0.48599 0.67334,0.27001 0.67334,-0.14402 0.67331,0.38701 0.67334,2.205 0.67334,1.728 0.67334,0.405 0.67331,-1.09801 0.67334,-1.09799 0.67334,-0.171 0.67334,0.639 0.67334,2.034 0.67331,1.494 0.67334,1.017 0.67334,-2.33099 0.67334,-1.65601 0.67334,-0.12601 0.67331,3.31202 0.67334,3.20399 0.67334,2.93401 0.67334,-0.47701 0.67331,-0.89101 0.67334,0.081 0.67334,1.03501 0.67334,0.72899 0.67334,0.306 0.67331,-0.432 0.67334,-0.36 0.67334,0.648 0.67334,1.17 0.67334,0.414 0.67331,-0.054 0.67334,-0.855 0.67334,-0.774 0.67334,-0.027 0.67331,-1.06201 0.67334,-0.765 0.67334,0.95401 0.67333,0.78299 0.67334,-0.279 0.67331,0.351 0.67334,-1.854 0.67334,13.248 0.67334,-12.213 0.67334,1.70101 0.67331,-0.88201 0.67334,-2.52 0.67334,-3.14099 0.67334,0.83699 0.67331,1.755 0.67334,2.025 0.67334,2.64601 0.67334,-2.79901 0.67334,1.197 0.67331,0.48599 0.67334,-1.52099 0.67334,-0.027" /></g><g
             transform="matrix(3.1250001,0,0,3.1250001,459.375,1046.875)"
             id="g272"><path
               inkscape:connector-curvature="0"
               id="path274"
               style="fill:none;stroke:#0040ff;stroke-width:1.33333302;stroke-linecap:square;stroke-linejoin:miter;stroke-miterlimit:10;stroke-opacity:1;stroke-dasharray:none"
               d="m 68.673332,208.991 0.673332,0.009 0.673333,-0.009 0.673339,-0.144 0.673333,-0.054 0.673332,0.099 0.673332,0.045 0.673332,0.009 0.673333,-0.018 0.673332,-0.09 0.67334,-0.17099 0.673332,-0.19802 0.673332,-0.28799 0.673332,-0.621 0.673332,-0.657 0.673333,-0.549 0.673332,0 0.67334,0.42299 0.673332,0.50402 0.673332,0.018 0.673332,-0.432 0.673333,-0.432 0.673332,-0.12599 0.67334,-0.13501 0.673332,-0.459 0.673332,-0.288 0.673332,0.054 0.673333,0.072 0.673332,-0.19799 0.673332,-0.20701 0.67334,-0.018 0.673332,0.081 0.673332,0.153 0.673332,0.099 0.673333,-0.11701 0.673332,0.09 0.673332,0.351 0.67334,0.045 0.673332,-0.162 0.673332,0.12601 0.673333,-0.33301 0.673332,-0.441 0.673332,0.16201 0.673332,0.009 0.67334,-0.34199 0.673332,-0.36901 0.673332,0.054 0.673333,0.29699 0.67333,0.17101 0.67333,0.765 0.67334,1.476 0.67334,1.287 0.67333,-0.612 0.67333,-0.17101 0.67333,-0.93599 0.67334,0.144 0.67333,1.215 0.67334,0.729 0.67333,-0.081 0.67333,-0.24301 0.67333,-0.37799 0.67334,0.64799 0.67333,-0.297 0.67333,-0.486 0.67334,-0.018 0.67333,0.69299 0.67333,-0.17999 0.67334,-0.33301 0.67333,0.28801 0.67333,0.26999 0.67333,-0.711 0.67334,-0.144 0.67334,0.45 0.67333,0.23401 0.67333,-0.207 0.67333,-0.405 0.67333,-0.37801 0.67334,-0.504 0.67334,-0.54001 0.67333,-0.48599 0.67333,-0.423 0.67333,-0.09 0.67334,0.17999 0.67333,1.51201 0.67333,-0.24299 0.67334,1.06199 0.67333,-1.377 0.67333,-0.18901 0.67334,0.49501 0.67334,0.306 0.67332,0.288 0.67334,0.711 0.67333,0.063 0.67333,-0.819 0.67333,0.53101 0.67334,0.52198 0.67334,-0.71099 0.67332,0.675 0.67334,0.081 0.67333,-0.49501 0.67334,-0.36 0.67332,-0.198 0.67334,-0.099 0.67334,0.099 0.67333,0.216 0.67334,0.17101 0.67332,0 0.67334,-0.68401 0.67333,-0.765 0.67334,-0.216 0.67334,-0.099 0.67332,-0.33299 0.67334,-0.43201 0.67332,-0.702 0.67334,0.054 0.67334,1.35899 0.67333,1.575 0.67334,0.972 0.67332,0.117 0.67334,0.081 0.67333,-0.11699 0.67334,-0.081 0.67334,0.153 0.67332,-0.846 0.67334,-1.46699 0.67333,-0.35102 0.67334,0.92701 0.67332,1.21499 0.67334,0.45902 0.67334,-0.072 0.67333,-0.162 0.67333,-0.774 0.67333,-0.57601 0.67334,-0.099 0.67332,0.23401 0.67334,0.189 0.67334,-0.333 0.67333,-0.49501 0.67334,-0.25199 0.67332,-0.153 0.67334,0.522 0.67333,0.504 0.67334,0.261 0.67334,-0.063 0.67332,-0.47698 0.67334,-0.26101 0.67333,0.396 0.67334,1.224 0.67332,-0.522 0.67334,0.44999 0.67334,0.513 0.67332,-0.045 0.67334,-0.21598 0.67333,0.26999 0.67334,-0.47699 0.67332,-1.72802 0.67334,-1.93499 0.67334,-0.288 0.67333,1.34101 0.67334,1.278 0.67332,0.315 0.67334,-0.49501 0.67333,-0.94499 0.67334,-0.09 0.67334,0.16201 0.67332,-0.072 0.67334,0.063 0.67333,0.18001 0.67333,0.153 0.67333,-0.252 0.67334,-0.216 0.67334,-0.009 0.67332,-0.26101 0.67334,-0.26998 0.67333,0.099 0.67334,-0.009 0.67332,-0.414 0.67334,-0.74699 0.67334,-0.36 0.67333,-0.045 0.67334,0.252 0.67332,-0.35102 0.67334,0.44101 0.67333,0.46801 0.67334,-0.20701 0.67334,-0.39601 0.67332,-0.18899 0.67334,1.91701 0.67332,0.67498 0.67334,-0.099 0.67334,-0.62098 0.67333,-1.06201 0.67334,-0.77401 0.67332,-0.09 0.67334,0.39599 0.67333,0.27001 0.67334,0.14399 0.67334,0.13501 0.67332,0.225 0.67334,0.036 0.67333,0.09 0.67334,-0.081 0.67332,0.036 0.67334,0.333 0.67334,0.567 0.67333,0.729 0.67333,0.666 0.67333,0.711 0.67334,0.38699 0.67332,0.29702 0.67334,0.22499 0.67334,-0.207 0.67333,-0.36 0.67334,-0.693 0.67332,-0.49501 0.67334,-0.35998 0.67333,-0.063 0.67334,0.873 0.67334,0.26101 0.67332,-0.513 0.67334,-0.57601 0.67333,-0.765 0.67334,-0.225 0.67332,0.28801 0.67334,0.16198 0.67334,0.063 0.67332,0.009 0.67334,-0.054 0.67333,-0.09 0.67334,-0.072 0.67332,0.13501 0.67334,0.261 0.67334,0.063 0.67333,0.018 0.67334,0.045 0.67332,-0.11701 0.67334,-0.072 0.67333,-0.24299 0.67334,-0.34201 0.67334,-0.11701 0.67332,-0.054 0.67334,-0.036 0.67333,-0.144 0.67333,-0.072 0.67333,0.207 0.67334,-0.17999 0.67334,-0.009 0.67332,0.33301 0.67334,0.24299 0.67333,0.52201 0.67334,1.44899 0.67332,0.63 0.67334,0.243 0.67334,-1.476 0.67333,-1.125 0.67334,0.34199 0.67332,1.06202 0.67334,0.43199 0.67333,0.18001 0.67334,-0.081 0.67334,-0.792 0.67332,0.279 0.67334,0.675 0.67332,0.477 0.67334,-0.027 0.67334,-0.36899 0.67333,-0.63001 0.67334,-0.315 0.67332,-0.12601 0.67334,0.23401 0.67333,0.297 0.67334,-0.036 0.67334,-0.225 0.67332,-0.342 0.67334,-0.306 0.67333,-0.117 0.67334,0.036 0.67332,0.18001 0.67334,0.189 0.67333,0.045 0.67334,-0.72 0.67333,0.027 0.67334,0.11701 0.67331,-0.67501 0.67334,0.963 0.67334,-0.261 0.67334,0 0.67334,0.666 0.67331,1.287 0.67334,-0.081 0.67334,0.09 0.67334,0.099 0.67331,-0.333 0.67334,-0.26101 0.67334,0.31501 0.67334,0.13501 0.67334,-0.33301 0.67331,0.54001 0.67334,-0.75601 0.67334,-0.558 0.67334,-0.018 0.67334,0.17099 0.67331,0.14399 0.67334,-0.13499 0.67334,-0.27899 0.67334,-0.49501 0.67334,-0.639 0.67331,-0.477 0.67334,-0.23399 0.67334,-0.009 0.67334,0.234 0.67331,0.65699 0.67334,0.68401 0.67334,-0.162 0.67334,-0.144 0.67334,-0.198 0.67331,-0.18001 0.67334,-0.48599 0.67333,-0.315 0.67334,0.756 0.67334,0.44999 0.67331,-0.52198 0.67334,0.78299 0.67334,1.296 0.67334,0.315 0.67331,-0.072 0.67334,-0.612 0.67334,-0.648 0.67334,-0.009 0.67334,0.34199 0.67331,0.37801 0.67334,0.018 0.67334,-0.28801 0.67334,-0.26101 0.67334,-0.16198 0.67331,0.22499 0.67334,0.44099 0.67334,0.063 0.67334,-0.081 0.67331,-0.153 0.67334,-0.14399 0.67334,0.29699 0.67334,0.78301 0.67334,-1.49401 0.67331,-1.179 0.67334,-0.279 0.67334,1.089 0.67334,1.17 0.67334,-0.774 0.67331,-1.55699 0.67334,-0.54001 0.67334,-0.279 0.67334,0.063 0.67331,0.60302 0.67334,0 0.67334,-0.96302 0.67333,-0.75599 0.67334,-0.18 0.67331,0.45 0.67334,0.38699 0.67334,-0.009 0.67334,-0.37801 0.67334,-0.783 0.67331,-0.603 0.67334,-0.342 0.67334,0.09 0.67334,0.315 0.67331,0.153 0.67334,0.009 0.67334,-0.045 0.67334,-0.153 0.67334,-0.23401 0.67331,-0.17101 0.67334,-0.38699 0.67334,-0.243 0.67334,0.22499 0.67334,0.036 0.67331,-0.234 0.67334,-0.243 0.67334,-0.405 0.67334,-0.80099 0.67334,-0.49501 0.67331,0.76499 0.67334,0.82801 0.67334,0.207 0.67334,0.657 0.67331,0.936 0.67334,0.53101 0.67334,0.045 0.67334,0.153 0.67334,0.47699 0.67331,0.26101 0.67334,-0.11699 0.67333,-0.24301 0.67334,-0.18 0.67334,-0.23401 0.67331,0.17101 0.67334,0.45 0.67334,0.72 0.67334,0.513 0.67331,0.162 0.67334,0.414 0.67334,0.297 0.67334,0.13499 0.67334,0.38701 0.67331,0.36 0.67334,0.21601 0.67334,0.12599 0.67334,0.072 0.67334,0.144 0.67331,0.216 0.67334,0.32399 0.67334,-0.12599 0.67334,-0.216 0.67331,0.477 0.67334,-1.395 0.67334,-1.61999 0.67334,-0.28801 0.67334,0.95401 0.67331,0.89099 0.67334,1.197 0.67334,-0.279 0.67334,0.117 0.67334,0.44099 0.67331,-0.88198 0.67334,-0.54001 0.67334,-0.21601 0.67334,0.864 0.67331,0.68401 0.67334,-0.027 0.67334,0.018 0.67333,-0.459 0.67334,-0.31501 0.67331,0.081 0.67334,0.441 0.67334,0.306 0.67334,0.063 0.67334,-0.063 0.67331,-0.31501 0.67334,-0.39599 0.67334,-0.252 0.67334,-0.135 0.67331,-0.306 0.67334,-0.19799 0.67334,-0.14402 0.67334,0.099 0.67334,-0.34199 0.67331,-0.68399 0.67334,-0.74701 0.67334,-0.144 0.67334,0.675 0.67334,0.432 0.67331,1.278 0.67334,0.873 0.67334,-0.62999 0.67334,-0.153 0.67334,0.57599 0.67331,-0.17099 0.67334,-0.46801 0.67334,1.14299 0.67334,-1.16999 0.67331,-0.225 0.67334,0.62999 0.67334,0.67501 0.67334,-0.063 0.67334,0.099 0.67331,-0.14399 0.67334,-0.32399 0.67333,-0.10801 0.67334,0.189 0.67334,0.216 0.67331,0.045 0.67334,-0.171 0.67334,-0.342 0.67334,-0.252 0.67331,-0.054 0.67334,-0.144 0.67334,0.198 0.67334,0.297 0.67334,0.099 0.67331,0.117 0.67334,-0.468 0.67334,-0.73801 0.67334,-0.09 0.67334,-0.36901 0.67331,0.41401 0.67334,0.774 0.67334,-0.234 0.67334,-0.14399 0.67331,-0.28801 0.67334,0.29699 0.67334,0.26101 0.67334,0.477 0.67334,-0.027 0.67331,-0.27899 0.67334,0.69299 0.67334,-0.10798 0.67334,-0.72 0.67334,-0.45002 0.67331,0.081 0.67334,0.43199 0.67334,0.24302 0.67334,0.009 0.67331,-0.054 0.67334,0.34201 0.67334,0.17099 0.67333,-0.11699 0.67334,0.10801 0.67331,0.18899 0.67334,0.018 0.67334,0.054 0.67334,-0.207 0.67334,-0.42301 0.67331,-0.981 0.67334,-1.287 0.67334,-1.017 0.67334,-0.018 0.67331,1.35901 0.67334,2.142 0.67334,-1.51199 0.67334,-1.62902 0.67334,-0.62098 0.67331,0.459 0.67334,0.13499 0.67334,-0.927 0.67334,-1.422 0.67334,-0.90001 0.67331,-0.018 0.67334,0.53099 0.67334,0.77401 0.67334,0.315 0.67334,-0.081 0.67331,-0.675 0.67334,-0.522 0.67334,-0.252 0.67334,0.261 0.67331,0.828 0.67334,0.918 0.67334,0.603 0.67334,0.27901 0.67334,-0.12601 0.67331,-0.081 0.67334,-0.18901 0.67333,-0.306 0.67334,-0.396 0.67334,-0.342 0.67331,0.09 0.67334,0.207 0.67334,0.153 0.67334,-0.108 0.67331,-0.243 0.67334,-0.18901 0.67334,-0.198 0.67334,-0.74699 0.67334,-0.396 0.67331,0.432 0.67334,0.80999 0.67334,0.68401 0.67334,1.46699 0.67334,0.93601 0.67331,0.69299 0.67334,-0.56698 0.67334,0.153 0.67334,1.05299 0.67331,0.306 0.67334,0.036 0.67334,0.009 0.67334,0.38701 0.67334,0.38699 0.67331,-0.018 0.67334,-0.009 0.67334,-0.045 0.67334,-0.054 0.67334,-0.153 0.67331,-0.26098 0.67334,-0.43201 0.67334,-0.32401 0.67334,-0.23399 0.67331,-0.18001 0.67334,0.16201 0.67334,0.639 0.67333,0.279 0.67334,-0.11699 0.67331,-0.18001 0.67334,-0.864 0.67334,0.522 0.67334,0.819 0.67334,0.405 0.67331,-0.045 0.67334,-0.39599 0.67334,-0.49501 0.67334,-0.198 0.67331,-0.45 0.67334,0.32401 0.67334,0.96299 0.67334,-1.296 0.67334,-0.081 0.67331,0.72 L 471.32666,209 472,208.496" /></g><g
             transform="matrix(3.1250001,0,0,3.1250001,459.375,1046.875)"
             id="g276"><path
               inkscape:connector-curvature="0"
               id="path278"
               style="fill:#ffffff;fill-opacity:1;fill-rule:nonzero;stroke:none"
               d="m 392,141 0,-99 67,0 0,99 -67,0 z" /></g><g
             id="g280"><g
               transform="matrix(3.1250001,0,0,3.1250001,1846.7923,1209.1558)"
               id="g282"><text
                 id="text284"
                 transform="translate(2.095844,2.879956)"><tspan
                   id="tspan286"
                   y="0"
                   x="0"
                   style="font-size:12px;font-variant:normal;font-weight:normal;writing-mode:lr-tb;fill:#000000;fill-opacity:1;fill-rule:nonzero;stroke:none;font-family:mwa_cmr10;-inkscape-font-specification:mwa_cmr10">_</tspan></text>
</g></g><g
             id="g288"><g
               transform="matrix(3.1250001,0,0,3.1250001,1846.7923,1209.1558)"
               id="g290"><text
                 id="text292"
                 transform="translate(0,2.879956)"><tspan
                   id="tspan294"
                   y="0"
                   x="0"
                   style="font-size:12px;font-variant:normal;font-weight:normal;writing-mode:lr-tb;fill:#000000;fill-opacity:1;fill-rule:nonzero;stroke:none;font-family:mwa_cmmi10;-inkscape-font-specification:mwa_cmmi10">x</tspan></text>
</g></g><g
             transform="matrix(3.1250001,0,0,3.1250001,459.375,1046.875)"
             id="g296"><path
               inkscape:connector-curvature="0"
               id="path298"
               style="fill:none;stroke:#ff0000;stroke-width:1.33333302;stroke-linecap:square;stroke-linejoin:miter;stroke-miterlimit:10;stroke-opacity:1;stroke-dasharray:none"
               d="m 399.99591,51.929882 39.97965,0" /></g><g
             id="g300"><g
               transform="matrix(3.1250001,0,0,3.1250001,1846.7923,1256.5409)"
               id="g302"><text
                 id="text304"
                 transform="translate(2.156982,2.879956)"><tspan
                   id="tspan306"
                   y="0"
                   x="0"
                   style="font-size:12px;font-variant:normal;font-weight:normal;writing-mode:lr-tb;fill:#000000;fill-opacity:1;fill-rule:nonzero;stroke:none;font-family:mwa_cmr10;-inkscape-font-specification:mwa_cmr10">_</tspan></text>
</g></g><g
             id="g308"><g
               transform="matrix(3.1250001,0,0,3.1250001,1846.7923,1256.5409)"
               id="g310"><text
                 id="text312"
                 transform="translate(0,2.879956)"><tspan
                   id="tspan314"
                   y="0"
                   x="0"
                   style="font-size:12px;font-variant:normal;font-weight:normal;writing-mode:lr-tb;fill:#000000;fill-opacity:1;fill-rule:nonzero;stroke:none;font-family:mwa_cmmi10;-inkscape-font-specification:mwa_cmmi10">y</tspan></text>
</g></g><g
             transform="matrix(3.1250001,0,0,3.1250001,459.375,1046.875)"
             id="g316"><path
               inkscape:connector-curvature="0"
               id="path318"
               style="fill:none;stroke:#ffbf00;stroke-width:1.33333302;stroke-linecap:square;stroke-linejoin:miter;stroke-miterlimit:10;stroke-opacity:1;stroke-dasharray:none"
               d="m 399.99591,67.093079 39.97965,0" /></g><g
             id="g320"><g
               transform="matrix(3.1250001,0,0,3.1250001,1846.7923,1303.9258)"
               id="g322"><text
                 id="text324"
                 transform="translate(2.054205,2.879956)"><tspan
                   id="tspan326"
                   y="0"
                   x="0"
                   style="font-size:12px;font-variant:normal;font-weight:normal;writing-mode:lr-tb;fill:#000000;fill-opacity:1;fill-rule:nonzero;stroke:none;font-family:mwa_cmr10;-inkscape-font-specification:mwa_cmr10">_</tspan></text>
</g></g><g
             id="g328"><g
               transform="matrix(3.1250001,0,0,3.1250001,1846.7923,1303.9258)"
               id="g330"><text
                 id="text332"
                 transform="translate(0,2.879956)"><tspan
                   id="tspan334"
                   y="0"
                   x="0"
                   style="font-size:12px;font-variant:normal;font-weight:normal;writing-mode:lr-tb;fill:#000000;fill-opacity:1;fill-rule:nonzero;stroke:none;font-family:mwa_cmmi10;-inkscape-font-specification:mwa_cmmi10">z</tspan></text>
</g></g><g
             transform="matrix(3.1250001,0,0,3.1250001,459.375,1046.875)"
             id="g336"><path
               inkscape:connector-curvature="0"
               id="path338"
               style="fill:none;stroke:#80ff00;stroke-width:1.33333302;stroke-linecap:square;stroke-linejoin:miter;stroke-miterlimit:10;stroke-opacity:1;stroke-dasharray:none"
               d="m 399.99591,82.256271 39.97965,0" /></g><g
             id="g340"><g
               transform="matrix(3.1250001,0,0,3.1250001,1846.7923,1353.0422)"
               id="g342"><text
                 id="text344"
                 transform="translate(2.316705,0.2638)"><tspan
                   id="tspan346"
                   y="0"
                   x="0"
                   style="font-size:12px;font-variant:normal;font-weight:normal;writing-mode:lr-tb;fill:#000000;fill-opacity:1;fill-rule:nonzero;stroke:none;font-family:mwa_cmr10;-inkscape-font-specification:mwa_cmr10">_</tspan></text>
</g></g><g
             id="g348"><g
               transform="matrix(3.1250001,0,0,3.1250001,1846.7923,1353.0422)"
               id="g350"><text
                 id="text352"
                 transform="translate(0,3.430481)"><tspan
                   id="tspan354"
                   y="0"
                   x="0"
                   style="font-size:12px;font-variant:normal;font-weight:normal;writing-mode:lr-tb;fill:#000000;fill-opacity:1;fill-rule:nonzero;stroke:none;font-family:mwb_cmmi10;-inkscape-font-specification:mwb_cmmi10">3</tspan></text>
</g></g><g
             id="g356"><g
               transform="matrix(3.1250001,0,0,3.1250001,1846.7923,1353.0422)"
               id="g358"><text
                 id="text360"
                 transform="translate(5.633331,5.230463)"><tspan
                   id="tspan362"
                   y="0"
                   x="0"
                   style="font-size:8px;font-variant:normal;font-weight:normal;writing-mode:lr-tb;fill:#000000;fill-opacity:1;fill-rule:nonzero;stroke:none;font-family:mwa_cmmi10;-inkscape-font-specification:mwa_cmmi10">x</tspan></text>
</g></g><g
             transform="matrix(3.1250001,0,0,3.1250001,459.375,1046.875)"
             id="g364"><path
               inkscape:connector-curvature="0"
               id="path366"
               style="fill:none;stroke:#00ff40;stroke-width:1.33333302;stroke-linecap:square;stroke-linejoin:miter;stroke-miterlimit:10;stroke-opacity:1;stroke-dasharray:none"
               d="m 399.99591,97.973511 39.97965,0" /></g><g
             id="g368"><g
               transform="matrix(3.1250001,0,0,3.1250001,1846.7923,1403.89)"
               id="g370"><text
                 id="text372"
                 transform="translate(2.316705,0.2638)"><tspan
                   id="tspan374"
                   y="0"
                   x="0"
                   style="font-size:12px;font-variant:normal;font-weight:normal;writing-mode:lr-tb;fill:#000000;fill-opacity:1;fill-rule:nonzero;stroke:none;font-family:mwa_cmr10;-inkscape-font-specification:mwa_cmr10">_</tspan></text>
</g></g><g
             id="g376"><g
               transform="matrix(3.1250001,0,0,3.1250001,1846.7923,1403.89)"
               id="g378"><text
                 id="text380"
                 transform="translate(0,3.430481)"><tspan
                   id="tspan382"
                   y="0"
                   x="0"
                   style="font-size:12px;font-variant:normal;font-weight:normal;writing-mode:lr-tb;fill:#000000;fill-opacity:1;fill-rule:nonzero;stroke:none;font-family:mwb_cmmi10;-inkscape-font-specification:mwb_cmmi10">3</tspan></text>
</g></g><g
             id="g384"><g
               transform="matrix(3.1250001,0,0,3.1250001,1846.7923,1403.89)"
               id="g386"><text
                 id="text388"
                 transform="translate(5.633331,5.230463)"><tspan
                   id="tspan390"
                   y="0"
                   x="0"
                   style="font-size:8px;font-variant:normal;font-weight:normal;writing-mode:lr-tb;fill:#000000;fill-opacity:1;fill-rule:nonzero;stroke:none;font-family:mwa_cmmi10;-inkscape-font-specification:mwa_cmmi10">y</tspan></text>
</g></g><g
             transform="matrix(3.1250001,0,0,3.1250001,459.375,1046.875)"
             id="g392"><path
               inkscape:connector-curvature="0"
               id="path394"
               style="fill:none;stroke:#00ffff;stroke-width:1.33333302;stroke-linecap:square;stroke-linejoin:miter;stroke-miterlimit:10;stroke-opacity:1;stroke-dasharray:none"
               d="m 399.99591,114.2448 39.97965,0" /></g><g
             id="g396"><g
               transform="matrix(3.1250001,0,0,3.1250001,1846.7923,1454.7377)"
               id="g398"><text
                 id="text400"
                 transform="translate(2.316705,0.2638)"><tspan
                   id="tspan402"
                   y="0"
                   x="0"
                   style="font-size:12px;font-variant:normal;font-weight:normal;writing-mode:lr-tb;fill:#000000;fill-opacity:1;fill-rule:nonzero;stroke:none;font-family:mwa_cmr10;-inkscape-font-specification:mwa_cmr10">_</tspan></text>
</g></g><g
             id="g404"><g
               transform="matrix(3.1250001,0,0,3.1250001,1846.7923,1454.7377)"
               id="g406"><text
                 id="text408"
                 transform="translate(0,3.430481)"><tspan
                   id="tspan410"
                   y="0"
                   x="0"
                   style="font-size:12px;font-variant:normal;font-weight:normal;writing-mode:lr-tb;fill:#000000;fill-opacity:1;fill-rule:nonzero;stroke:none;font-family:mwb_cmmi10;-inkscape-font-specification:mwb_cmmi10">3</tspan></text>
</g></g><g
             id="g412"><g
               transform="matrix(3.1250001,0,0,3.1250001,1846.7923,1454.7377)"
               id="g414"><text
                 id="text416"
                 transform="translate(5.633331,5.230463)"><tspan
                   id="tspan418"
                   y="0"
                   x="0"
                   style="font-size:8px;font-variant:normal;font-weight:normal;writing-mode:lr-tb;fill:#000000;fill-opacity:1;fill-rule:nonzero;stroke:none;font-family:mwa_cmmi10;-inkscape-font-specification:mwa_cmmi10">z</tspan></text>
</g></g><g
             transform="matrix(3.1250001,0,0,3.1250001,459.375,1046.875)"
             id="g420"><path
               inkscape:connector-curvature="0"
               id="path422"
               style="fill:none;stroke:#0040ff;stroke-width:1.33333302;stroke-linecap:square;stroke-linejoin:miter;stroke-miterlimit:10;stroke-opacity:1;stroke-dasharray:none"
               d="m 399.99591,130.51608 39.97965,0" /></g><g
             transform="matrix(3.1250001,0,0,3.1250001,459.375,1046.875)"
             id="g424"><path
               inkscape:connector-curvature="0"
               id="path426"
               style="fill:none;stroke:#262626;stroke-width:1;stroke-linecap:square;stroke-linejoin:miter;stroke-miterlimit:10;stroke-opacity:1;stroke-dasharray:none"
               d="m 392,141 0,-99 67,0 0,99 -67,0" /></g></g></g></g></g></svg>